%TF.GenerationSoftware,KiCad,Pcbnew,10.0.3*%
%TF.CreationDate,2026-07-27T20:22:06-04:00*%
%TF.ProjectId,node,6e6f6465-2e6b-4696-9361-645f70636258,rev?*%
%TF.SameCoordinates,Original*%
%TF.FileFunction,Soldermask,Bot*%
%TF.FilePolarity,Negative*%
%FSLAX46Y46*%
G04 Gerber Fmt 4.6, Leading zero omitted, Abs format (unit mm)*
G04 Created by KiCad (PCBNEW 10.0.3) date 2026-07-27 20:22:06*
%MOMM*%
%LPD*%
G01*
G04 APERTURE LIST*
G04 Aperture macros list*
%AMRoundRect*
0 Rectangle with rounded corners*
0 $1 Rounding radius*
0 $2 $3 $4 $5 $6 $7 $8 $9 X,Y pos of 4 corners*
0 Add a 4 corners polygon primitive as box body*
4,1,4,$2,$3,$4,$5,$6,$7,$8,$9,$2,$3,0*
0 Add four circle primitives for the rounded corners*
1,1,$1+$1,$2,$3*
1,1,$1+$1,$4,$5*
1,1,$1+$1,$6,$7*
1,1,$1+$1,$8,$9*
0 Add four rect primitives between the rounded corners*
20,1,$1+$1,$2,$3,$4,$5,0*
20,1,$1+$1,$4,$5,$6,$7,0*
20,1,$1+$1,$6,$7,$8,$9,0*
20,1,$1+$1,$8,$9,$2,$3,0*%
G04 Aperture macros list end*
%ADD10C,5.700000*%
%ADD11R,1.700000X1.700000*%
%ADD12C,1.700000*%
%ADD13RoundRect,0.200100X-0.949900X-0.949900X0.949900X-0.949900X0.949900X0.949900X-0.949900X0.949900X0*%
%ADD14C,2.200000*%
%ADD15RoundRect,0.250000X1.350000X-1.350000X1.350000X1.350000X-1.350000X1.350000X-1.350000X-1.350000X0*%
%ADD16C,3.200000*%
%ADD17RoundRect,0.250000X-0.625000X0.350000X-0.625000X-0.350000X0.625000X-0.350000X0.625000X0.350000X0*%
%ADD18O,1.750000X1.200000*%
%ADD19C,0.650000*%
%ADD20O,1.000000X2.100000*%
%ADD21O,1.000000X1.600000*%
%ADD22RoundRect,0.200000X-0.200000X-0.275000X0.200000X-0.275000X0.200000X0.275000X-0.200000X0.275000X0*%
%ADD23RoundRect,0.200000X-0.275000X0.200000X-0.275000X-0.200000X0.275000X-0.200000X0.275000X0.200000X0*%
%ADD24RoundRect,0.225000X0.225000X0.250000X-0.225000X0.250000X-0.225000X-0.250000X0.225000X-0.250000X0*%
%ADD25RoundRect,0.200000X0.275000X-0.200000X0.275000X0.200000X-0.275000X0.200000X-0.275000X-0.200000X0*%
%ADD26RoundRect,0.200000X0.200000X0.275000X-0.200000X0.275000X-0.200000X-0.275000X0.200000X-0.275000X0*%
%ADD27RoundRect,0.250000X0.262500X0.450000X-0.262500X0.450000X-0.262500X-0.450000X0.262500X-0.450000X0*%
%ADD28RoundRect,0.225000X-0.225000X-0.250000X0.225000X-0.250000X0.225000X0.250000X-0.225000X0.250000X0*%
G04 APERTURE END LIST*
D10*
%TO.C,REF\u002A\u002A*%
X162500000Y-108250000D03*
%TD*%
D11*
%TO.C,J9*%
X128250000Y-65525000D03*
D12*
X128250000Y-62985000D03*
%TD*%
D11*
%TO.C,J6*%
X119000000Y-65500000D03*
D12*
X119000000Y-62960000D03*
%TD*%
D11*
%TO.C,J5*%
X110000000Y-65500000D03*
D12*
X110000000Y-62960000D03*
%TD*%
D13*
%TO.C,J4*%
X155500000Y-66000000D03*
D14*
X152950000Y-63450000D03*
X152950000Y-68550000D03*
X158050000Y-63450000D03*
X158050000Y-68550000D03*
%TD*%
D11*
%TO.C,J8*%
X123500000Y-65525000D03*
D12*
X123500000Y-62985000D03*
%TD*%
D11*
%TO.C,J7*%
X114500000Y-65500000D03*
D12*
X114500000Y-62960000D03*
%TD*%
D11*
%TO.C,J3*%
X164500000Y-80460000D03*
D12*
X164500000Y-83000000D03*
X164500000Y-85540000D03*
X164500000Y-88080000D03*
X164500000Y-90620000D03*
X164500000Y-93160000D03*
X164500000Y-95700000D03*
X164500000Y-98240000D03*
%TD*%
D15*
%TO.C,D1*%
X114000000Y-113500000D03*
D16*
X114000000Y-98260000D03*
%TD*%
D17*
%TO.C,J1*%
X98500000Y-107000000D03*
D18*
X98500000Y-109000000D03*
%TD*%
D19*
%TO.C,J2*%
X148290000Y-108530000D03*
X154070000Y-108530000D03*
D20*
X146860000Y-108000000D03*
D21*
X146860000Y-112180000D03*
D20*
X155500000Y-108000000D03*
D21*
X155500000Y-112180000D03*
%TD*%
D22*
%TO.C,R13*%
X145425000Y-86500000D03*
X147075000Y-86500000D03*
%TD*%
D23*
%TO.C,R12*%
X99000000Y-72925000D03*
X99000000Y-74575000D03*
%TD*%
D22*
%TO.C,R16*%
X123100000Y-70250000D03*
X124750000Y-70250000D03*
%TD*%
D24*
%TO.C,C20*%
X120750000Y-74500000D03*
X119200000Y-74500000D03*
%TD*%
%TO.C,C18*%
X146275000Y-88000000D03*
X144725000Y-88000000D03*
%TD*%
%TO.C,C23*%
X121775000Y-71750000D03*
X120225000Y-71750000D03*
%TD*%
D25*
%TO.C,R17*%
X128750000Y-70825000D03*
X128750000Y-69175000D03*
%TD*%
D26*
%TO.C,R15*%
X104500000Y-84750000D03*
X102850000Y-84750000D03*
%TD*%
D27*
%TO.C,R19*%
X98912500Y-77750000D03*
X97087500Y-77750000D03*
%TD*%
%TO.C,R18*%
X98412500Y-81500000D03*
X96587500Y-81500000D03*
%TD*%
D28*
%TO.C,C21*%
X101450000Y-86500000D03*
X103000000Y-86500000D03*
%TD*%
D24*
%TO.C,C22*%
X124750000Y-71750000D03*
X123200000Y-71750000D03*
%TD*%
M02*
