%TF.GenerationSoftware,KiCad,Pcbnew,10.0.3*%
%TF.CreationDate,2026-07-27T20:22:06-04:00*%
%TF.ProjectId,node,6e6f6465-2e6b-4696-9361-645f70636258,rev?*%
%TF.SameCoordinates,Original*%
%TF.FileFunction,Copper,L2,Bot*%
%TF.FilePolarity,Positive*%
%FSLAX46Y46*%
G04 Gerber Fmt 4.6, Leading zero omitted, Abs format (unit mm)*
G04 Created by KiCad (PCBNEW 10.0.3) date 2026-07-27 20:22:06*
%MOMM*%
%LPD*%
G01*
G04 APERTURE LIST*
G04 Aperture macros list*
%AMRoundRect*
0 Rectangle with rounded corners*
0 $1 Rounding radius*
0 $2 $3 $4 $5 $6 $7 $8 $9 X,Y pos of 4 corners*
0 Add a 4 corners polygon primitive as box body*
4,1,4,$2,$3,$4,$5,$6,$7,$8,$9,$2,$3,0*
0 Add four circle primitives for the rounded corners*
1,1,$1+$1,$2,$3*
1,1,$1+$1,$4,$5*
1,1,$1+$1,$6,$7*
1,1,$1+$1,$8,$9*
0 Add four rect primitives between the rounded corners*
20,1,$1+$1,$2,$3,$4,$5,0*
20,1,$1+$1,$4,$5,$6,$7,0*
20,1,$1+$1,$6,$7,$8,$9,0*
20,1,$1+$1,$8,$9,$2,$3,0*%
G04 Aperture macros list end*
%TA.AperFunction,ComponentPad*%
%ADD10C,5.700000*%
%TD*%
%TA.AperFunction,ComponentPad*%
%ADD11R,1.700000X1.700000*%
%TD*%
%TA.AperFunction,ComponentPad*%
%ADD12C,1.700000*%
%TD*%
%TA.AperFunction,ComponentPad*%
%ADD13RoundRect,0.200100X-0.949900X-0.949900X0.949900X-0.949900X0.949900X0.949900X-0.949900X0.949900X0*%
%TD*%
%TA.AperFunction,ComponentPad*%
%ADD14C,2.200000*%
%TD*%
%TA.AperFunction,ComponentPad*%
%ADD15RoundRect,0.250000X1.350000X-1.350000X1.350000X1.350000X-1.350000X1.350000X-1.350000X-1.350000X0*%
%TD*%
%TA.AperFunction,ComponentPad*%
%ADD16C,3.200000*%
%TD*%
%TA.AperFunction,HeatsinkPad*%
%ADD17C,0.500000*%
%TD*%
%TA.AperFunction,HeatsinkPad*%
%ADD18R,2.900000X1.900000*%
%TD*%
%TA.AperFunction,ComponentPad*%
%ADD19RoundRect,0.250000X-0.625000X0.350000X-0.625000X-0.350000X0.625000X-0.350000X0.625000X0.350000X0*%
%TD*%
%TA.AperFunction,ComponentPad*%
%ADD20O,1.750000X1.200000*%
%TD*%
%TA.AperFunction,ComponentPad*%
%ADD21O,1.000000X2.100000*%
%TD*%
%TA.AperFunction,ComponentPad*%
%ADD22O,1.000000X1.600000*%
%TD*%
%TA.AperFunction,HeatsinkPad*%
%ADD23C,0.600000*%
%TD*%
%TA.AperFunction,SMDPad,CuDef*%
%ADD24RoundRect,0.200000X-0.200000X-0.275000X0.200000X-0.275000X0.200000X0.275000X-0.200000X0.275000X0*%
%TD*%
%TA.AperFunction,SMDPad,CuDef*%
%ADD25RoundRect,0.200000X-0.275000X0.200000X-0.275000X-0.200000X0.275000X-0.200000X0.275000X0.200000X0*%
%TD*%
%TA.AperFunction,SMDPad,CuDef*%
%ADD26RoundRect,0.225000X0.225000X0.250000X-0.225000X0.250000X-0.225000X-0.250000X0.225000X-0.250000X0*%
%TD*%
%TA.AperFunction,SMDPad,CuDef*%
%ADD27RoundRect,0.200000X0.275000X-0.200000X0.275000X0.200000X-0.275000X0.200000X-0.275000X-0.200000X0*%
%TD*%
%TA.AperFunction,SMDPad,CuDef*%
%ADD28RoundRect,0.200000X0.200000X0.275000X-0.200000X0.275000X-0.200000X-0.275000X0.200000X-0.275000X0*%
%TD*%
%TA.AperFunction,SMDPad,CuDef*%
%ADD29RoundRect,0.250000X0.262500X0.450000X-0.262500X0.450000X-0.262500X-0.450000X0.262500X-0.450000X0*%
%TD*%
%TA.AperFunction,SMDPad,CuDef*%
%ADD30RoundRect,0.225000X-0.225000X-0.250000X0.225000X-0.250000X0.225000X0.250000X-0.225000X0.250000X0*%
%TD*%
%TA.AperFunction,ViaPad*%
%ADD31C,0.600000*%
%TD*%
%TA.AperFunction,ViaPad*%
%ADD32C,0.800000*%
%TD*%
%TA.AperFunction,ViaPad*%
%ADD33C,1.000000*%
%TD*%
%TA.AperFunction,Conductor*%
%ADD34C,1.000000*%
%TD*%
%TA.AperFunction,Conductor*%
%ADD35C,0.400000*%
%TD*%
%TA.AperFunction,Conductor*%
%ADD36C,0.800000*%
%TD*%
%TA.AperFunction,Conductor*%
%ADD37C,0.600000*%
%TD*%
%TA.AperFunction,Conductor*%
%ADD38C,0.500000*%
%TD*%
%TA.AperFunction,Conductor*%
%ADD39C,0.300000*%
%TD*%
G04 APERTURE END LIST*
D10*
%TO.P,REF\u002A\u002A,1*%
%TO.N,N/C*%
X162500000Y-108250000D03*
%TD*%
D11*
%TO.P,J9,1,Pin_1_1*%
%TO.N,/MCU_IO16*%
X128250000Y-65525000D03*
D12*
%TO.P,J9,2,Pin_2_2*%
%TO.N,GND*%
X128250000Y-62985000D03*
%TD*%
D11*
%TO.P,J6,1,Pin_1_1*%
%TO.N,/MCU_IO6*%
X119000000Y-65500000D03*
D12*
%TO.P,J6,2,Pin_2_2*%
%TO.N,GND*%
X119000000Y-62960000D03*
%TD*%
D11*
%TO.P,J5,1,Pin_1_1*%
%TO.N,/MCU_IO2*%
X110000000Y-65500000D03*
D12*
%TO.P,J5,2,Pin_2_2*%
%TO.N,GND*%
X110000000Y-62960000D03*
%TD*%
D13*
%TO.P,J4,1,In_1*%
%TO.N,Net-(J4-In)*%
X155500000Y-66000000D03*
D14*
%TO.P,J4,2,Ext_2*%
%TO.N,GND*%
X152950000Y-63450000D03*
X152950000Y-68550000D03*
X158050000Y-63450000D03*
X158050000Y-68550000D03*
%TD*%
D11*
%TO.P,J8,1,Pin_1_1*%
%TO.N,/MCU_IO7*%
X123500000Y-65525000D03*
D12*
%TO.P,J8,2,Pin_2_2*%
%TO.N,GND*%
X123500000Y-62985000D03*
%TD*%
D11*
%TO.P,J7,1,Pin_1_1*%
%TO.N,/MCU_IO3*%
X114500000Y-65500000D03*
D12*
%TO.P,J7,2,Pin_2_2*%
%TO.N,GND*%
X114500000Y-62960000D03*
%TD*%
D11*
%TO.P,J3,1,Pin_1_1*%
%TO.N,GND*%
X164500000Y-80460000D03*
D12*
%TO.P,J3,2,Pin_2_2*%
%TO.N,+3.3V*%
X164500000Y-83000000D03*
%TO.P,J3,3,Pin_3_3*%
%TO.N,/LCD_SCL*%
X164500000Y-85540000D03*
%TO.P,J3,4,Pin_4_4*%
%TO.N,/LCD_SDA*%
X164500000Y-88080000D03*
%TO.P,J3,5,Pin_5_5*%
%TO.N,/LCD_RST*%
X164500000Y-90620000D03*
%TO.P,J3,6,Pin_6_6*%
%TO.N,/LCD_DC*%
X164500000Y-93160000D03*
%TO.P,J3,7,Pin_7_7*%
%TO.N,/LCD_CS*%
X164500000Y-95700000D03*
%TO.P,J3,8,Pin_8_8*%
%TO.N,+3.3V*%
X164500000Y-98240000D03*
%TD*%
D15*
%TO.P,D1,1,K_1*%
%TO.N,Net-(D1-K)*%
X114000000Y-113500000D03*
D16*
%TO.P,D1,2,A_2*%
%TO.N,GND*%
X114000000Y-98260000D03*
%TD*%
D17*
%TO.P,U4,9,EPAD_9*%
%TO.N,GND*%
X140500000Y-111100000D03*
X139300000Y-111100000D03*
X138100000Y-111100000D03*
D18*
X139300000Y-111800000D03*
D17*
X140500000Y-112500000D03*
X139300000Y-112500000D03*
X138100000Y-112500000D03*
%TD*%
D19*
%TO.P,J1,1,Pin_1_1*%
%TO.N,Net-(J1-Pin_1)*%
X98500000Y-107000000D03*
D20*
%TO.P,J1,2,Pin_2_2*%
%TO.N,GND*%
X98500000Y-109000000D03*
%TD*%
D21*
%TO.P,J2,SH,SHIELD_SH*%
%TO.N,GND*%
X146860000Y-108000000D03*
D22*
X146860000Y-112180000D03*
D21*
X155500000Y-108000000D03*
D22*
X155500000Y-112180000D03*
%TD*%
D23*
%TO.P,U1,41,GND_41*%
%TO.N,GND*%
X103260000Y-83200000D03*
X104660000Y-83200000D03*
X102560000Y-82500000D03*
X103960000Y-82500000D03*
X105360000Y-82500000D03*
X103260000Y-81800000D03*
X104660000Y-81800000D03*
X102560000Y-81100000D03*
X103960000Y-81100000D03*
X105360000Y-81100000D03*
X103260000Y-80400000D03*
X104660000Y-80400000D03*
%TD*%
D24*
%TO.P,R13,1*%
%TO.N,Net-(U6-VBAT)*%
X145425000Y-86500000D03*
%TO.P,R13,2*%
%TO.N,+3.3V*%
X147075000Y-86500000D03*
%TD*%
D25*
%TO.P,R12,1*%
%TO.N,/MCU_IO2*%
X99000000Y-72925000D03*
%TO.P,R12,2*%
%TO.N,+3.3V*%
X99000000Y-74575000D03*
%TD*%
D24*
%TO.P,R16,1*%
%TO.N,/MCU_IO7*%
X123100000Y-70250000D03*
%TO.P,R16,2*%
%TO.N,+3.3V*%
X124750000Y-70250000D03*
%TD*%
D26*
%TO.P,C20,1*%
%TO.N,GND*%
X120750000Y-74500000D03*
%TO.P,C20,2*%
%TO.N,/MCU_IO3*%
X119200000Y-74500000D03*
%TD*%
%TO.P,C18,1*%
%TO.N,+3.3V*%
X146275000Y-88000000D03*
%TO.P,C18,2*%
%TO.N,GND*%
X144725000Y-88000000D03*
%TD*%
%TO.P,C23,1*%
%TO.N,GND*%
X121775000Y-71750000D03*
%TO.P,C23,2*%
%TO.N,/MCU_IO16*%
X120225000Y-71750000D03*
%TD*%
D27*
%TO.P,R17,1*%
%TO.N,/MCU_IO16*%
X128750000Y-70825000D03*
%TO.P,R17,2*%
%TO.N,+3.3V*%
X128750000Y-69175000D03*
%TD*%
D28*
%TO.P,R15,1*%
%TO.N,/MCU_IO6*%
X104500000Y-84750000D03*
%TO.P,R15,2*%
%TO.N,+3.3V*%
X102850000Y-84750000D03*
%TD*%
D29*
%TO.P,R19,1*%
%TO.N,GND*%
X98912500Y-77750000D03*
%TO.P,R19,2*%
%TO.N,/BAT_DIV*%
X97087500Y-77750000D03*
%TD*%
%TO.P,R18,1*%
%TO.N,/BAT_DIV*%
X98412500Y-81500000D03*
%TO.P,R18,2*%
%TO.N,/VCC_BAT*%
X96587500Y-81500000D03*
%TD*%
D30*
%TO.P,C21,1*%
%TO.N,GND*%
X101450000Y-86500000D03*
%TO.P,C21,2*%
%TO.N,/MCU_IO6*%
X103000000Y-86500000D03*
%TD*%
D26*
%TO.P,C22,1*%
%TO.N,GND*%
X124750000Y-71750000D03*
%TO.P,C22,2*%
%TO.N,/MCU_IO7*%
X123200000Y-71750000D03*
%TD*%
D31*
%TO.N,GND*%
X156500000Y-77000000D03*
X96240000Y-71550000D03*
%TO.N,/GPIO0*%
X104000000Y-68000000D03*
%TO.N,GND*%
X96040000Y-102500000D03*
X103750000Y-102500000D03*
X96040000Y-63500000D03*
X104250000Y-63500000D03*
X110750000Y-80500000D03*
X112500000Y-84000000D03*
X109750000Y-84500000D03*
X109750000Y-87500000D03*
D32*
X126625000Y-104575000D03*
X136000000Y-73275000D03*
D31*
X162493752Y-70993752D03*
X154430000Y-107085000D03*
D32*
X96225000Y-91500000D03*
D31*
X164800000Y-69500000D03*
X157350000Y-66200003D03*
X139250000Y-89500000D03*
X167500000Y-84250000D03*
X147930000Y-107085000D03*
X139500000Y-81500000D03*
X150598528Y-68598528D03*
X133750000Y-81750000D03*
D32*
X96240000Y-89050000D03*
X96225000Y-93000000D03*
D31*
X157350000Y-65500000D03*
X161049387Y-75549387D03*
X160549387Y-76049387D03*
X164000000Y-68000000D03*
X157500000Y-90250000D03*
X162549387Y-74049387D03*
X136000000Y-78500000D03*
X164800000Y-71000000D03*
X100500000Y-95750000D03*
X121775000Y-71750000D03*
D32*
X123225000Y-104575000D03*
D31*
X140250000Y-92750000D03*
X137000000Y-86500000D03*
X147216881Y-68533119D03*
X99000000Y-104250000D03*
X140500000Y-69500000D03*
X156828278Y-64150000D03*
X155250000Y-86250000D03*
X124750000Y-71750000D03*
X153349512Y-79261758D03*
X119337500Y-76500000D03*
X99750000Y-83500000D03*
X153382414Y-103117586D03*
X130350000Y-114400000D03*
X147000000Y-67750000D03*
D32*
X96500000Y-113500000D03*
X147548008Y-89048008D03*
D31*
X160743752Y-72743752D03*
X157350000Y-67700003D03*
X160049387Y-76549387D03*
X120750000Y-74500000D03*
X129750000Y-92500000D03*
X108500000Y-97000000D03*
X164800000Y-68400000D03*
X154250000Y-99750000D03*
X109750000Y-102500000D03*
X96225000Y-94500000D03*
D32*
X161500000Y-80725000D03*
D31*
X131250000Y-77250000D03*
X144500000Y-69750000D03*
X103250000Y-74000000D03*
X153985103Y-78626167D03*
X149750000Y-69010000D03*
X154500000Y-64150000D03*
X138100000Y-70350000D03*
X164750000Y-72000000D03*
X147245000Y-66995000D03*
X158993752Y-74493752D03*
X157350000Y-64671722D03*
X145250000Y-64750000D03*
X149000000Y-69010000D03*
X98912500Y-77750000D03*
X97500000Y-87000000D03*
X98750000Y-99750000D03*
X154160861Y-67839139D03*
D32*
X142459262Y-80818198D03*
D31*
X143500000Y-96750000D03*
X101450000Y-86500000D03*
X162049387Y-74549387D03*
X147750000Y-66540000D03*
X103250000Y-78500000D03*
X109500000Y-113250000D03*
X155750000Y-67850000D03*
D32*
X141500000Y-108000000D03*
D31*
X105450000Y-94500000D03*
X106000000Y-77000000D03*
X129750000Y-72500000D03*
X154500000Y-80817319D03*
X97500000Y-84000000D03*
X153250000Y-67200000D03*
X124000000Y-77500000D03*
X150799997Y-64800000D03*
D32*
X134000000Y-111500000D03*
D31*
X140000000Y-74000000D03*
X113750000Y-105500000D03*
X150151472Y-65651472D03*
X167750000Y-97000000D03*
X156000000Y-64150000D03*
X148500000Y-66540000D03*
X99250000Y-115250000D03*
X161743752Y-71743752D03*
X113000000Y-95250000D03*
X136750000Y-101750000D03*
X126250000Y-81500000D03*
D32*
X116000000Y-70225000D03*
D31*
X148250000Y-69010000D03*
X163000000Y-68000000D03*
D32*
X144275000Y-111000000D03*
X126625000Y-99500000D03*
D31*
X120000000Y-87500000D03*
X163299387Y-73299387D03*
X151997056Y-67200000D03*
X133000000Y-104500000D03*
X157493752Y-75993752D03*
X157000000Y-76487505D03*
X155000000Y-67850000D03*
D33*
X123225000Y-95425000D03*
D32*
X106000000Y-64725000D03*
D31*
X158549387Y-78049387D03*
X151223528Y-67973528D03*
X152950003Y-64800000D03*
X162600000Y-69000000D03*
X100000000Y-101000000D03*
X155897557Y-79768341D03*
X153576402Y-80423598D03*
X159250000Y-92750000D03*
X157549387Y-79049387D03*
X129500000Y-104500000D03*
X164000000Y-72750000D03*
X159743752Y-73743752D03*
X156500000Y-67850000D03*
X159299387Y-77299387D03*
X105750000Y-75250000D03*
X149250000Y-81750000D03*
X147500000Y-92500000D03*
X155250000Y-64150000D03*
X125000000Y-109500000D03*
X151500000Y-64800000D03*
X158243752Y-75243752D03*
X157350000Y-67000000D03*
X134500000Y-75250000D03*
X162600000Y-70000000D03*
D32*
X147500000Y-100000000D03*
D31*
X149262944Y-66540000D03*
X156500000Y-79768341D03*
X153750000Y-64500000D03*
X152250000Y-64800000D03*
%TO.N,/MCU_IO2*%
X99000000Y-72000000D03*
X117750000Y-70250000D03*
%TO.N,/MCU_IO16*%
X106500000Y-89000000D03*
X128750000Y-70825000D03*
X120225000Y-71750000D03*
%TO.N,/VCC_BAT*%
X104000000Y-112500000D03*
D32*
X131050000Y-111500000D03*
D33*
X121525000Y-104575000D03*
D32*
%TO.N,+3.3V*%
X108385076Y-95614924D03*
D31*
X99500000Y-93000000D03*
X147208452Y-86958452D03*
D33*
X136000000Y-71725000D03*
D31*
X122250000Y-108000000D03*
X115250000Y-69100000D03*
X109500000Y-99250000D03*
X146451992Y-87951992D03*
X118950025Y-68988361D03*
D32*
X107135076Y-94364924D03*
D31*
X97510000Y-89050000D03*
%TO.N,/MCU_IO6*%
X103000000Y-88000000D03*
X119630025Y-70027215D03*
%TO.N,/LORA_RF_SW|*%
X138100000Y-62730000D03*
X107670000Y-70750000D03*
%TO.N,/LORA_MOSI*%
X138100000Y-65270000D03*
X134750000Y-65200000D03*
%TO.N,/LORA_RST*%
X138100000Y-67810000D03*
X132250000Y-66500000D03*
X111132233Y-70029289D03*
X132250000Y-63750000D03*
%TO.N,/LORA_NSS*%
X138100000Y-69080000D03*
X103860000Y-71550000D03*
%TO.N,/LORA_BUSY*%
X148500000Y-65270000D03*
X111500000Y-79000000D03*
%TO.N,/LORA_DIO1*%
X148500000Y-64000000D03*
X112165000Y-78300000D03*
%TO.N,/GPIO0*%
X108000000Y-73500000D03*
%TO.N,/MCU_IO3*%
X119045180Y-72795180D03*
X114000000Y-87250000D03*
%TO.N,/MCU_IO7*%
X121000000Y-70000000D03*
X104000000Y-89000000D03*
%TO.N,/GPS_RST*%
X100050000Y-89050000D03*
X147500000Y-90700000D03*
%TO.N,/LCD_SCL*%
X114000000Y-79665000D03*
%TO.N,/LCD_SDA*%
X114000000Y-80935000D03*
%TO.N,/LCD_RST*%
X114000000Y-82205000D03*
%TO.N,/LCD_DC*%
X106500000Y-91500000D03*
%TO.N,/LCD_CS*%
X161905072Y-84604928D03*
X120565686Y-79934314D03*
%TO.N,+5V*%
X141205000Y-114275000D03*
X137395000Y-109325000D03*
%TO.N,Net-(U4-~{STDBY})*%
X138665000Y-114275000D03*
X140500000Y-107500000D03*
%TO.N,Net-(U4-~{CHRG})*%
X136000000Y-113375000D03*
X139935000Y-114275000D03*
%TO.N,Net-(F2-Pad1)*%
X153630000Y-107085000D03*
X148730000Y-107085000D03*
%TO.N,/USB_D+*%
X112500000Y-92300000D03*
X151535475Y-105463788D03*
%TO.N,/USB_D-*%
X150508161Y-105959844D03*
X111500000Y-92300000D03*
%TO.N,/GPS_TX*%
X118137740Y-88925002D03*
X107670000Y-89050000D03*
%TO.N,/GPS_RX*%
X117437741Y-89625001D03*
X108940000Y-89050000D03*
%TO.N,/GPS_ON{slash}OFF*%
X107000000Y-92500000D03*
X101320000Y-89050000D03*
%TO.N,Net-(U6-VBAT)*%
X144928726Y-86126909D03*
%TO.N,/BAT_DIV*%
X97510000Y-71550000D03*
%TD*%
%TO.N,/GPIO0*%
D34*
X103500000Y-68000000D02*
X104000000Y-68000000D01*
X102500000Y-69000000D02*
X103500000Y-68000000D01*
%TO.N,/GPS_TX*%
D35*
X108220000Y-88500000D02*
X107670000Y-89050000D01*
X109229950Y-88350000D02*
X108650050Y-88350000D01*
X108650050Y-88350000D02*
X108500050Y-88500000D01*
X109663529Y-88925001D02*
X109640000Y-88901472D01*
X109640000Y-88760050D02*
X109229950Y-88350000D01*
X108500050Y-88500000D02*
X108220000Y-88500000D01*
X118137739Y-88925001D02*
X109663529Y-88925001D01*
X109640000Y-88901472D02*
X109640000Y-88760050D01*
X118137740Y-88925002D02*
X118137739Y-88925001D01*
%TO.N,GND*%
D36*
X156123765Y-76487505D02*
X153985103Y-78626167D01*
X157000000Y-76487505D02*
X156123765Y-76487505D01*
%TO.N,/MCU_IO2*%
D35*
X107102944Y-78000000D02*
X113077944Y-72025000D01*
X99000000Y-72000000D02*
X105000000Y-78000000D01*
X105000000Y-78000000D02*
X107102944Y-78000000D01*
X115975000Y-72025000D02*
X117750000Y-70250000D01*
X113077944Y-72025000D02*
X115975000Y-72025000D01*
D37*
X99000000Y-72925000D02*
X99000000Y-72000000D01*
%TO.N,/MCU_IO16*%
D35*
X119376509Y-71473901D02*
X116975410Y-73875000D01*
X108750000Y-86750000D02*
X106500000Y-89000000D01*
X113875000Y-73875000D02*
X108750000Y-79000000D01*
X108750000Y-79000000D02*
X108750000Y-86750000D01*
X119376509Y-71473901D02*
X119900000Y-71473901D01*
X119900000Y-71473901D02*
X120000000Y-71573901D01*
X116975410Y-73875000D02*
X113875000Y-73875000D01*
%TO.N,/VCC_BAT*%
D34*
X131050000Y-111500000D02*
X126500000Y-106950000D01*
D38*
X95395000Y-81950000D02*
X95395000Y-94773086D01*
X101520000Y-110020000D02*
X104000000Y-112500000D01*
X101520000Y-100251913D02*
X101520000Y-110020000D01*
D34*
X123900000Y-106950000D02*
X121525000Y-104575000D01*
D38*
X96548087Y-95280000D02*
X95901914Y-95280000D01*
X96548087Y-95280000D02*
X101520000Y-100251913D01*
X96587500Y-81500000D02*
X95845000Y-81500000D01*
X95901914Y-95280000D02*
X95395000Y-94773086D01*
X95845000Y-81500000D02*
X95395000Y-81950000D01*
D34*
X126500000Y-106950000D02*
X123900000Y-106950000D01*
%TO.N,+3.3V*%
D38*
X128345564Y-69100000D02*
X128675000Y-69100000D01*
D35*
X97510000Y-89050000D02*
X101250000Y-85310000D01*
X101310000Y-85250000D02*
X97510000Y-89050000D01*
D34*
X99750000Y-93250000D02*
X99500000Y-93000000D01*
X109500000Y-96585786D02*
X108914214Y-96000000D01*
D36*
X115250000Y-69100000D02*
X129154436Y-69100000D01*
D34*
X108914214Y-96000000D02*
X108770152Y-96000000D01*
D38*
X124750000Y-70250000D02*
X124750000Y-69100000D01*
D37*
X101310000Y-76885000D02*
X99000000Y-74575000D01*
D36*
X129134436Y-69080000D02*
X128365564Y-69080000D01*
X131975000Y-71725000D02*
X129350000Y-69100000D01*
D37*
X101310000Y-85250000D02*
X101310000Y-76885000D01*
D34*
X122250000Y-108000000D02*
X122200000Y-107950000D01*
X107135076Y-94364924D02*
X106020152Y-93250000D01*
D36*
X128365564Y-69080000D02*
X128345564Y-69100000D01*
X129154436Y-69100000D02*
X129134436Y-69080000D01*
D38*
X147075000Y-86500000D02*
X147075000Y-86825000D01*
D37*
X101310000Y-85250000D02*
X102350000Y-85250000D01*
D34*
X106020152Y-93250000D02*
X99750000Y-93250000D01*
X122200000Y-107950000D02*
X118200000Y-107950000D01*
X108385076Y-95614924D02*
X107135076Y-94364924D01*
X108770152Y-96000000D02*
X108385076Y-95614924D01*
D36*
X136000000Y-71725000D02*
X131975000Y-71725000D01*
D34*
X118200000Y-107950000D02*
X109500000Y-99250000D01*
D38*
X147075000Y-86825000D02*
X147208452Y-86958452D01*
D36*
X128750000Y-69175000D02*
X128675000Y-69100000D01*
X129350000Y-69100000D02*
X129154436Y-69100000D01*
D34*
X109500000Y-99250000D02*
X109500000Y-96585786D01*
D37*
X102350000Y-85250000D02*
X102850000Y-84750000D01*
%TO.N,/MCU_IO6*%
D35*
X104500000Y-84750000D02*
X106250000Y-84750000D01*
X107450000Y-78501472D02*
X107450000Y-83550000D01*
X105000000Y-86000000D02*
X103000000Y-88000000D01*
X107450000Y-83550000D02*
X105000000Y-86000000D01*
X103000000Y-86500000D02*
X103000000Y-88000000D01*
X116375000Y-72625000D02*
X113326472Y-72625000D01*
X118990064Y-70009936D02*
X116375000Y-72625000D01*
X106250000Y-84750000D02*
X107450000Y-83550000D01*
X119630025Y-70027215D02*
X119612746Y-70009936D01*
X119612746Y-70009936D02*
X118990064Y-70009936D01*
X113326472Y-72625000D02*
X107450000Y-78501472D01*
%TO.N,/LORA_RF_SW|*%
X107670000Y-70750000D02*
X111401472Y-70750000D01*
X114451472Y-67700000D02*
X129300000Y-67700000D01*
X134270000Y-62730000D02*
X138100000Y-62730000D01*
X111401472Y-70750000D02*
X114451472Y-67700000D01*
X129300000Y-67700000D02*
X134270000Y-62730000D01*
%TO.N,/LORA_MOSI*%
D37*
X138030000Y-65200000D02*
X138100000Y-65270000D01*
X134750000Y-65200000D02*
X138030000Y-65200000D01*
%TO.N,/LORA_RST*%
D35*
X132250000Y-63901472D02*
X129325736Y-66825736D01*
X129325736Y-66825736D02*
X114477208Y-66825736D01*
D37*
X132250000Y-66500000D02*
X136790000Y-66500000D01*
D35*
X114477208Y-66825736D02*
X111152944Y-70150000D01*
X132250000Y-63750000D02*
X132250000Y-63901472D01*
D37*
X136790000Y-66500000D02*
X138100000Y-67810000D01*
%TO.N,/LORA_NSS*%
D35*
X138100000Y-69080000D02*
X136080000Y-69080000D01*
X114700000Y-68300000D02*
X111450000Y-71550000D01*
X111450000Y-71550000D02*
X103860000Y-71550000D01*
X135300000Y-68300000D02*
X114700000Y-68300000D01*
X136080000Y-69080000D02*
X135300000Y-68300000D01*
%TO.N,/LORA_BUSY*%
X147078528Y-65270000D02*
X133348528Y-79000000D01*
X148500000Y-65270000D02*
X147078528Y-65270000D01*
X119987005Y-79000000D02*
X119987002Y-79000003D01*
X113923078Y-78965000D02*
X113923075Y-78965003D01*
X113675050Y-79000000D02*
X111500000Y-79000000D01*
X119987002Y-79000003D02*
X119489949Y-79000000D01*
X113710056Y-78965000D02*
X113710051Y-78965005D01*
X113923075Y-78965003D02*
X113710056Y-78965000D01*
X119489949Y-79000000D02*
X119454950Y-78965000D01*
X133348528Y-79000000D02*
X119987005Y-79000000D01*
X113710051Y-78965005D02*
X113710046Y-78965005D01*
X113710046Y-78965005D02*
X113675050Y-79000000D01*
X119454950Y-78965000D02*
X113923078Y-78965000D01*
%TO.N,/LORA_DIO1*%
X113674555Y-78365000D02*
X113461531Y-78364997D01*
X112230000Y-78365000D02*
X112165000Y-78300000D01*
X119703478Y-78365000D02*
X119206430Y-78364997D01*
X119738482Y-78400000D02*
X119703487Y-78365004D01*
X148500000Y-64000000D02*
X147500000Y-64000000D01*
X147500000Y-64000000D02*
X133100000Y-78400000D01*
X113461523Y-78365000D02*
X112230000Y-78365000D01*
X119703487Y-78365004D02*
X119703482Y-78365004D01*
X119703482Y-78365004D02*
X119703478Y-78365000D01*
X119206427Y-78365000D02*
X113674555Y-78365000D01*
X133100000Y-78400000D02*
X119738482Y-78400000D01*
X119206430Y-78364997D02*
X119206427Y-78365000D01*
X113461531Y-78364997D02*
X113461523Y-78365000D01*
%TO.N,/GPIO0*%
D36*
X104537207Y-73500000D02*
X102500000Y-71462793D01*
X102500000Y-71462793D02*
X102500000Y-69000000D01*
X108000000Y-73500000D02*
X104537207Y-73500000D01*
%TO.N,/MCU_IO3*%
D39*
X114000000Y-87250000D02*
X114000000Y-87000000D01*
D37*
X119045180Y-72795180D02*
X119045180Y-74345180D01*
D35*
X114123528Y-74475000D02*
X109350000Y-79248528D01*
X117223938Y-74475000D02*
X114123528Y-74475000D01*
X109350000Y-79248528D02*
X109350000Y-82600000D01*
X119045180Y-72795180D02*
X118974469Y-72724469D01*
D37*
X119045180Y-74345180D02*
X119200000Y-74500000D01*
D35*
X118974469Y-72724469D02*
X117223938Y-74475000D01*
X109350000Y-82600000D02*
X114000000Y-87250000D01*
%TO.N,/MCU_IO7*%
D38*
X123200000Y-71750000D02*
X123200000Y-70350000D01*
D35*
X116726882Y-73275000D02*
X113525000Y-73275000D01*
X123200000Y-71750000D02*
X123085000Y-71635000D01*
D38*
X123200000Y-70350000D02*
X123100000Y-70250000D01*
D35*
X121000000Y-70000000D02*
X120126099Y-70873901D01*
X120126099Y-70873901D02*
X119127981Y-70873901D01*
X108050000Y-78750000D02*
X108050000Y-84950000D01*
X108050000Y-84950000D02*
X104000000Y-89000000D01*
D38*
X122850000Y-70000000D02*
X123100000Y-70250000D01*
D35*
X119127981Y-70873901D02*
X116726882Y-73275000D01*
D38*
X121000000Y-70000000D02*
X122850000Y-70000000D01*
D35*
X113525000Y-73275000D02*
X108050000Y-78750000D01*
%TO.N,/GPS_RST*%
X103959950Y-90700000D02*
X101609950Y-88350000D01*
X101609950Y-88350000D02*
X100750000Y-88350000D01*
X100750000Y-88350000D02*
X100050000Y-89050000D01*
X147500000Y-90700000D02*
X103959950Y-90700000D01*
%TO.N,/LCD_SCL*%
D37*
X164500000Y-85540000D02*
X161737056Y-85540000D01*
X119165000Y-79665000D02*
X114000000Y-79665000D01*
X159847056Y-83650000D02*
X123150000Y-83650000D01*
X161737056Y-85540000D02*
X159847056Y-83650000D01*
X123150000Y-83650000D02*
X119165000Y-79665000D01*
%TO.N,/LCD_SDA*%
X164500000Y-88080000D02*
X163145685Y-88080000D01*
X163145685Y-88080000D02*
X159515685Y-84450000D01*
X159515685Y-84450000D02*
X122818630Y-84450000D01*
X119303630Y-80935000D02*
X114000000Y-80935000D01*
X122818630Y-84450000D02*
X119303630Y-80935000D01*
%TO.N,/LCD_RST*%
X159130000Y-85250000D02*
X164500000Y-90620000D01*
X119442260Y-82205000D02*
X114000000Y-82205000D01*
X122487260Y-85250000D02*
X119442260Y-82205000D01*
X159130000Y-85250000D02*
X122487260Y-85250000D01*
X164500000Y-90565685D02*
X164500000Y-90620000D01*
%TO.N,/LCD_DC*%
X162840000Y-91500000D02*
X164500000Y-93160000D01*
X106500000Y-91500000D02*
X162840000Y-91500000D01*
%TO.N,/LCD_CS*%
X160150144Y-82850000D02*
X123481372Y-82850000D01*
X161905072Y-84604928D02*
X160150144Y-82850000D01*
X123481372Y-82850000D02*
X120565686Y-79934314D01*
%TO.N,+5V*%
D36*
X140425000Y-109325000D02*
X137395000Y-109325000D01*
X141350000Y-110250000D02*
X140425000Y-109325000D01*
X141205000Y-114275000D02*
X141350000Y-114130000D01*
X141350000Y-114130000D02*
X141350000Y-110250000D01*
%TO.N,Net-(U4-~{STDBY})*%
D35*
X136595000Y-108993629D02*
X136595000Y-112205000D01*
X138088629Y-107500000D02*
X136595000Y-108993629D01*
X140500000Y-107500000D02*
X138088629Y-107500000D01*
X136595000Y-112205000D02*
X138665000Y-114275000D01*
%TO.N,Net-(U4-~{CHRG})*%
X140000000Y-114340000D02*
X139935000Y-114275000D01*
X136000000Y-113375000D02*
X136000000Y-115000000D01*
X136000000Y-115000000D02*
X136500000Y-115500000D01*
X139500000Y-115500000D02*
X140000000Y-115000000D01*
X136500000Y-115500000D02*
X139500000Y-115500000D01*
X140000000Y-115000000D02*
X140000000Y-114340000D01*
%TO.N,Net-(F2-Pad1)*%
D38*
X148730000Y-107085000D02*
X153630000Y-107085000D01*
%TO.N,/USB_D+*%
X123000000Y-102800000D02*
X112500000Y-92300000D01*
X148800000Y-102800000D02*
X123000000Y-102800000D01*
X151463788Y-105463788D02*
X148800000Y-102800000D01*
X151535475Y-105463788D02*
X151463788Y-105463788D01*
%TO.N,/USB_D-*%
X111500000Y-92300000D02*
X111500000Y-92360661D01*
X111500000Y-92360661D02*
X122639339Y-103500000D01*
X148048317Y-103500000D02*
X150508161Y-105959844D01*
X122639339Y-103500000D02*
X148048317Y-103500000D01*
%TO.N,/GPS_RX*%
D35*
X109515001Y-89625001D02*
X108940000Y-89050000D01*
X117437741Y-89625001D02*
X109515001Y-89625001D01*
%TO.N,/GPS_ON{slash}OFF*%
X103000000Y-90730000D02*
X103000000Y-90750000D01*
X106700000Y-92200000D02*
X107000000Y-92500000D01*
X104450000Y-92200000D02*
X106700000Y-92200000D01*
X101320000Y-89050000D02*
X103000000Y-90730000D01*
X103000000Y-90750000D02*
X104450000Y-92200000D01*
%TO.N,Net-(U6-VBAT)*%
D38*
X145425000Y-86500000D02*
X145301817Y-86500000D01*
X145301817Y-86500000D02*
X144928726Y-86126909D01*
%TO.N,/BAT_DIV*%
D36*
X97087500Y-79475000D02*
X97087500Y-77750000D01*
X98412500Y-80800000D02*
X97087500Y-79475000D01*
X97087500Y-77750000D02*
X97087500Y-71972500D01*
X98412500Y-81500000D02*
X98412500Y-80800000D01*
X97087500Y-71972500D02*
X97510000Y-71550000D01*
%TD*%
%TA.AperFunction,Conductor*%
%TO.N,GND*%
G36*
X155602172Y-60925038D02*
G01*
X156328635Y-60944062D01*
X156335112Y-60944401D01*
X157058041Y-61001297D01*
X157064433Y-61001969D01*
X157783396Y-61096623D01*
X157789752Y-61097629D01*
X158502782Y-61229783D01*
X158509123Y-61231131D01*
X159214230Y-61400412D01*
X159220456Y-61402080D01*
X159915757Y-61608037D01*
X159921912Y-61610037D01*
X160605462Y-61852095D01*
X160611518Y-61854420D01*
X161159874Y-62081557D01*
X161281442Y-62131912D01*
X161287368Y-62134550D01*
X161941879Y-62446735D01*
X161947643Y-62449673D01*
X162584916Y-62795684D01*
X162590511Y-62798914D01*
X163168315Y-63152993D01*
X163208788Y-63177795D01*
X163214230Y-63181329D01*
X163783730Y-63572736D01*
X163811834Y-63592051D01*
X163817081Y-63595863D01*
X164091995Y-63806812D01*
X164392362Y-64037292D01*
X164397408Y-64041378D01*
X164948804Y-64512315D01*
X164953628Y-64516659D01*
X165479611Y-65015798D01*
X165484201Y-65020388D01*
X165983340Y-65546371D01*
X165987684Y-65551195D01*
X166458621Y-66102591D01*
X166462707Y-66107637D01*
X166904132Y-66682913D01*
X166907948Y-66688165D01*
X167318669Y-67285767D01*
X167322204Y-67291211D01*
X167701077Y-67909475D01*
X167704323Y-67915097D01*
X168050321Y-68552346D01*
X168053269Y-68558131D01*
X168365447Y-69212627D01*
X168368087Y-69218557D01*
X168645577Y-69888476D01*
X168647904Y-69894537D01*
X168889959Y-70578078D01*
X168891965Y-70584252D01*
X169097913Y-71279520D01*
X169099593Y-71285791D01*
X169268867Y-71990871D01*
X169270217Y-71997221D01*
X169402365Y-72710219D01*
X169403380Y-72716631D01*
X169498026Y-73435534D01*
X169498705Y-73441990D01*
X169555597Y-74164884D01*
X169555937Y-74171367D01*
X169574956Y-74897645D01*
X169574997Y-74901351D01*
X169474599Y-101972823D01*
X169474599Y-101972840D01*
X169474526Y-101991676D01*
X169474500Y-101991715D01*
X169474500Y-101998574D01*
X169474499Y-101998834D01*
X169474493Y-101998852D01*
X169474458Y-102001603D01*
X169455432Y-102728127D01*
X169455092Y-102734610D01*
X169398200Y-103457504D01*
X169397521Y-103463960D01*
X169302876Y-104182863D01*
X169301861Y-104189275D01*
X169169714Y-104902274D01*
X169168364Y-104908624D01*
X168999090Y-105613703D01*
X168997410Y-105619974D01*
X168791461Y-106315243D01*
X168789455Y-106321417D01*
X168547401Y-107004958D01*
X168545074Y-107011019D01*
X168267584Y-107680938D01*
X168264944Y-107686868D01*
X167952766Y-108341364D01*
X167949818Y-108347149D01*
X167603820Y-108984398D01*
X167600574Y-108990020D01*
X167221701Y-109608284D01*
X167218166Y-109613728D01*
X166807445Y-110211331D01*
X166803629Y-110216583D01*
X166362204Y-110791859D01*
X166358118Y-110796905D01*
X165887181Y-111348301D01*
X165882837Y-111353125D01*
X165383698Y-111879108D01*
X165379108Y-111883698D01*
X164853125Y-112382837D01*
X164848301Y-112387181D01*
X164296905Y-112858118D01*
X164291859Y-112862204D01*
X163716583Y-113303629D01*
X163711331Y-113307445D01*
X163113728Y-113718166D01*
X163108284Y-113721701D01*
X162490020Y-114100574D01*
X162484398Y-114103820D01*
X161847149Y-114449818D01*
X161841364Y-114452766D01*
X161186868Y-114764944D01*
X161180938Y-114767584D01*
X160511019Y-115045074D01*
X160504958Y-115047401D01*
X159821417Y-115289455D01*
X159815243Y-115291461D01*
X159119974Y-115497410D01*
X159113703Y-115499090D01*
X158408624Y-115668364D01*
X158402274Y-115669714D01*
X157689275Y-115801861D01*
X157682863Y-115802876D01*
X156963960Y-115897521D01*
X156957504Y-115898200D01*
X156234610Y-115955092D01*
X156228127Y-115955432D01*
X155501604Y-115974458D01*
X155498358Y-115974500D01*
X139891256Y-115974500D01*
X139824217Y-115954815D01*
X139778462Y-115902011D01*
X139768518Y-115832853D01*
X139797543Y-115769297D01*
X139803574Y-115762819D01*
X139923742Y-115642650D01*
X140245910Y-115320481D01*
X140245913Y-115320480D01*
X140320480Y-115245913D01*
X140363067Y-115172150D01*
X140373207Y-115154588D01*
X140400500Y-115052727D01*
X140400500Y-114947273D01*
X140400500Y-114534593D01*
X140420185Y-114467554D01*
X140472989Y-114421799D01*
X140542147Y-114411855D01*
X140605703Y-114440880D01*
X140643477Y-114499658D01*
X140644271Y-114502485D01*
X140645423Y-114506785D01*
X140724481Y-114643716D01*
X140836284Y-114755519D01*
X140973215Y-114834577D01*
X141125943Y-114875501D01*
X141125946Y-114875501D01*
X141284054Y-114875501D01*
X141284057Y-114875501D01*
X141436785Y-114834577D01*
X141573716Y-114755519D01*
X141708506Y-114620727D01*
X141708510Y-114620725D01*
X141718714Y-114610520D01*
X141718716Y-114610520D01*
X141830520Y-114498716D01*
X141891712Y-114392727D01*
X141909577Y-114361785D01*
X141950501Y-114209057D01*
X141950501Y-114050943D01*
X141950501Y-114043348D01*
X141950500Y-114043330D01*
X141950500Y-111781504D01*
X145860000Y-111781504D01*
X145860000Y-111930000D01*
X146560000Y-111930000D01*
X146560000Y-112430000D01*
X145860000Y-112430000D01*
X145860000Y-112578495D01*
X145898427Y-112771681D01*
X145898430Y-112771693D01*
X145973807Y-112953671D01*
X145973814Y-112953684D01*
X146083248Y-113117462D01*
X146083251Y-113117466D01*
X146222533Y-113256748D01*
X146222537Y-113256751D01*
X146386315Y-113366185D01*
X146386328Y-113366192D01*
X146568308Y-113441569D01*
X146610000Y-113449862D01*
X146610000Y-112646988D01*
X146619940Y-112664205D01*
X146675795Y-112720060D01*
X146744204Y-112759556D01*
X146820504Y-112780000D01*
X146899496Y-112780000D01*
X146975796Y-112759556D01*
X147044205Y-112720060D01*
X147100060Y-112664205D01*
X147110000Y-112646988D01*
X147110000Y-113449862D01*
X147151690Y-113441569D01*
X147151692Y-113441569D01*
X147333671Y-113366192D01*
X147333684Y-113366185D01*
X147497462Y-113256751D01*
X147497466Y-113256748D01*
X147636748Y-113117466D01*
X147636751Y-113117462D01*
X147746185Y-112953684D01*
X147746192Y-112953671D01*
X147821569Y-112771693D01*
X147821572Y-112771681D01*
X147859999Y-112578495D01*
X147860000Y-112578492D01*
X147860000Y-112430000D01*
X147160000Y-112430000D01*
X147160000Y-111930000D01*
X147860000Y-111930000D01*
X147860000Y-111781508D01*
X147859999Y-111781504D01*
X154500000Y-111781504D01*
X154500000Y-111930000D01*
X155200000Y-111930000D01*
X155200000Y-112430000D01*
X154500000Y-112430000D01*
X154500000Y-112578495D01*
X154538427Y-112771681D01*
X154538430Y-112771693D01*
X154613807Y-112953671D01*
X154613814Y-112953684D01*
X154723248Y-113117462D01*
X154723251Y-113117466D01*
X154862533Y-113256748D01*
X154862537Y-113256751D01*
X155026315Y-113366185D01*
X155026328Y-113366192D01*
X155208308Y-113441569D01*
X155250000Y-113449862D01*
X155250000Y-112646988D01*
X155259940Y-112664205D01*
X155315795Y-112720060D01*
X155384204Y-112759556D01*
X155460504Y-112780000D01*
X155539496Y-112780000D01*
X155615796Y-112759556D01*
X155684205Y-112720060D01*
X155740060Y-112664205D01*
X155750000Y-112646988D01*
X155750000Y-113449862D01*
X155791690Y-113441569D01*
X155791692Y-113441569D01*
X155973671Y-113366192D01*
X155973684Y-113366185D01*
X156137462Y-113256751D01*
X156137466Y-113256748D01*
X156276748Y-113117466D01*
X156276751Y-113117462D01*
X156386185Y-112953684D01*
X156386192Y-112953671D01*
X156461569Y-112771693D01*
X156461572Y-112771681D01*
X156499999Y-112578495D01*
X156500000Y-112578492D01*
X156500000Y-112430000D01*
X155800000Y-112430000D01*
X155800000Y-111930000D01*
X156500000Y-111930000D01*
X156500000Y-111781508D01*
X156499999Y-111781504D01*
X156461572Y-111588318D01*
X156461569Y-111588306D01*
X156386192Y-111406328D01*
X156386185Y-111406315D01*
X156276751Y-111242537D01*
X156276748Y-111242533D01*
X156137466Y-111103251D01*
X156137462Y-111103248D01*
X155973684Y-110993814D01*
X155973671Y-110993807D01*
X155791691Y-110918429D01*
X155791683Y-110918427D01*
X155750000Y-110910135D01*
X155750000Y-111713011D01*
X155740060Y-111695795D01*
X155684205Y-111639940D01*
X155615796Y-111600444D01*
X155539496Y-111580000D01*
X155460504Y-111580000D01*
X155384204Y-111600444D01*
X155315795Y-111639940D01*
X155259940Y-111695795D01*
X155250000Y-111713011D01*
X155250000Y-110910136D01*
X155249999Y-110910135D01*
X155208316Y-110918427D01*
X155208308Y-110918429D01*
X155026328Y-110993807D01*
X155026315Y-110993814D01*
X154862537Y-111103248D01*
X154862533Y-111103251D01*
X154723251Y-111242533D01*
X154723248Y-111242537D01*
X154613814Y-111406315D01*
X154613807Y-111406328D01*
X154538430Y-111588306D01*
X154538427Y-111588318D01*
X154500000Y-111781504D01*
X147859999Y-111781504D01*
X147821572Y-111588318D01*
X147821569Y-111588306D01*
X147746192Y-111406328D01*
X147746185Y-111406315D01*
X147636751Y-111242537D01*
X147636748Y-111242533D01*
X147497466Y-111103251D01*
X147497462Y-111103248D01*
X147333684Y-110993814D01*
X147333671Y-110993807D01*
X147151691Y-110918429D01*
X147151683Y-110918427D01*
X147110000Y-110910135D01*
X147110000Y-111713011D01*
X147100060Y-111695795D01*
X147044205Y-111639940D01*
X146975796Y-111600444D01*
X146899496Y-111580000D01*
X146820504Y-111580000D01*
X146744204Y-111600444D01*
X146675795Y-111639940D01*
X146619940Y-111695795D01*
X146610000Y-111713011D01*
X146610000Y-110910136D01*
X146609999Y-110910135D01*
X146568316Y-110918427D01*
X146568308Y-110918429D01*
X146386328Y-110993807D01*
X146386315Y-110993814D01*
X146222537Y-111103248D01*
X146222533Y-111103251D01*
X146083251Y-111242533D01*
X146083248Y-111242537D01*
X145973814Y-111406315D01*
X145973807Y-111406328D01*
X145898430Y-111588306D01*
X145898427Y-111588318D01*
X145860000Y-111781504D01*
X141950500Y-111781504D01*
X141950500Y-110339060D01*
X141950501Y-110339047D01*
X141950501Y-110170944D01*
X141950501Y-110170943D01*
X141909577Y-110018216D01*
X141899456Y-110000685D01*
X141830524Y-109881290D01*
X141830518Y-109881282D01*
X141385421Y-109436185D01*
X140912589Y-108963354D01*
X140912588Y-108963352D01*
X140793717Y-108844481D01*
X140793716Y-108844480D01*
X140706904Y-108794360D01*
X140706904Y-108794359D01*
X140706900Y-108794358D01*
X140656785Y-108765423D01*
X140504057Y-108724499D01*
X140345943Y-108724499D01*
X140338347Y-108724499D01*
X140338331Y-108724500D01*
X137729884Y-108724500D01*
X137662845Y-108704815D01*
X137617090Y-108652011D01*
X137607146Y-108582853D01*
X137636171Y-108519297D01*
X137642203Y-108512819D01*
X138218203Y-107936819D01*
X138279526Y-107903334D01*
X138305884Y-107900500D01*
X140159460Y-107900500D01*
X140221460Y-107917113D01*
X140245524Y-107931006D01*
X140306814Y-107966392D01*
X140434108Y-108000500D01*
X140434110Y-108000500D01*
X140565890Y-108000500D01*
X140565892Y-108000500D01*
X140693186Y-107966392D01*
X140807314Y-107900500D01*
X140900500Y-107807314D01*
X140966392Y-107693186D01*
X141000500Y-107565892D01*
X141000500Y-107434108D01*
X140978367Y-107351504D01*
X145860000Y-107351504D01*
X145860000Y-107750000D01*
X146560000Y-107750000D01*
X146560000Y-108250000D01*
X145860000Y-108250000D01*
X145860000Y-108648495D01*
X145898427Y-108841681D01*
X145898430Y-108841693D01*
X145973807Y-109023671D01*
X145973814Y-109023684D01*
X146083248Y-109187462D01*
X146083251Y-109187466D01*
X146222533Y-109326748D01*
X146222537Y-109326751D01*
X146386315Y-109436185D01*
X146386328Y-109436192D01*
X146568308Y-109511569D01*
X146610000Y-109519862D01*
X146610000Y-108716988D01*
X146619940Y-108734205D01*
X146675795Y-108790060D01*
X146744204Y-108829556D01*
X146820504Y-108850000D01*
X146899496Y-108850000D01*
X146975796Y-108829556D01*
X147044205Y-108790060D01*
X147100060Y-108734205D01*
X147110000Y-108716988D01*
X147110000Y-109519862D01*
X147151690Y-109511569D01*
X147151692Y-109511569D01*
X147333671Y-109436192D01*
X147333684Y-109436185D01*
X147497462Y-109326751D01*
X147497466Y-109326748D01*
X147636748Y-109187466D01*
X147636751Y-109187462D01*
X147749574Y-109018613D01*
X147751007Y-109019570D01*
X147794198Y-108975580D01*
X147862332Y-108960103D01*
X147928018Y-108983919D01*
X147930089Y-108985697D01*
X147930189Y-108985568D01*
X147936630Y-108990510D01*
X147936635Y-108990515D01*
X148067865Y-109066281D01*
X148214234Y-109105500D01*
X148214236Y-109105500D01*
X148365764Y-109105500D01*
X148365766Y-109105500D01*
X148512135Y-109066281D01*
X148643365Y-108990515D01*
X148750515Y-108883365D01*
X148826281Y-108752135D01*
X148865500Y-108605766D01*
X148865500Y-108454234D01*
X153494500Y-108454234D01*
X153494500Y-108605766D01*
X153512671Y-108673581D01*
X153533719Y-108752136D01*
X153558097Y-108794359D01*
X153609485Y-108883365D01*
X153716635Y-108990515D01*
X153847865Y-109066281D01*
X153994234Y-109105500D01*
X153994236Y-109105500D01*
X154145764Y-109105500D01*
X154145766Y-109105500D01*
X154292135Y-109066281D01*
X154423365Y-108990515D01*
X154423372Y-108990507D01*
X154429811Y-108985568D01*
X154432044Y-108988478D01*
X154478258Y-108962865D01*
X154547980Y-108967411D01*
X154604176Y-109008930D01*
X154610394Y-109018634D01*
X154610426Y-109018613D01*
X154723248Y-109187462D01*
X154723251Y-109187466D01*
X154862533Y-109326748D01*
X154862537Y-109326751D01*
X155026315Y-109436185D01*
X155026328Y-109436192D01*
X155208308Y-109511569D01*
X155250000Y-109519862D01*
X155250000Y-108716988D01*
X155259940Y-108734205D01*
X155315795Y-108790060D01*
X155384204Y-108829556D01*
X155460504Y-108850000D01*
X155539496Y-108850000D01*
X155615796Y-108829556D01*
X155684205Y-108790060D01*
X155740060Y-108734205D01*
X155750000Y-108716988D01*
X155750000Y-109519862D01*
X155791690Y-109511569D01*
X155791692Y-109511569D01*
X155973671Y-109436192D01*
X155973684Y-109436185D01*
X156137462Y-109326751D01*
X156137466Y-109326748D01*
X156276748Y-109187466D01*
X156276751Y-109187462D01*
X156386185Y-109023684D01*
X156386192Y-109023671D01*
X156461569Y-108841693D01*
X156461572Y-108841681D01*
X156499999Y-108648495D01*
X156500000Y-108648492D01*
X156500000Y-108250000D01*
X155800000Y-108250000D01*
X155800000Y-108078681D01*
X159449500Y-108078681D01*
X159449500Y-108421318D01*
X159487858Y-108761768D01*
X159487860Y-108761780D01*
X159487861Y-108761783D01*
X159494315Y-108790060D01*
X159564102Y-109095816D01*
X159564103Y-109095818D01*
X159677264Y-109419216D01*
X159825922Y-109727907D01*
X159825924Y-109727910D01*
X160008211Y-110018018D01*
X160221834Y-110285893D01*
X160464107Y-110528166D01*
X160731982Y-110741789D01*
X160953898Y-110881228D01*
X161022092Y-110924077D01*
X161123341Y-110972836D01*
X161330785Y-111072736D01*
X161654183Y-111185897D01*
X161988217Y-111262139D01*
X161988226Y-111262140D01*
X161988231Y-111262141D01*
X162215197Y-111287713D01*
X162328682Y-111300499D01*
X162328685Y-111300500D01*
X162328688Y-111300500D01*
X162671315Y-111300500D01*
X162671316Y-111300499D01*
X162845311Y-111280895D01*
X163011768Y-111262141D01*
X163011771Y-111262140D01*
X163011783Y-111262139D01*
X163345817Y-111185897D01*
X163669215Y-111072736D01*
X163977910Y-110924076D01*
X164268018Y-110741789D01*
X164535893Y-110528166D01*
X164778166Y-110285893D01*
X164991789Y-110018018D01*
X165174076Y-109727910D01*
X165322736Y-109419215D01*
X165435897Y-109095817D01*
X165512139Y-108761783D01*
X165513725Y-108747713D01*
X165542297Y-108494114D01*
X165550500Y-108421312D01*
X165550500Y-108078688D01*
X165530743Y-107903334D01*
X165512141Y-107738231D01*
X165512140Y-107738226D01*
X165512139Y-107738217D01*
X165435897Y-107404183D01*
X165322736Y-107080785D01*
X165174076Y-106772090D01*
X164991789Y-106481982D01*
X164778166Y-106214107D01*
X164535893Y-105971834D01*
X164526429Y-105964287D01*
X164401033Y-105864287D01*
X164268018Y-105758211D01*
X163977910Y-105575924D01*
X163977907Y-105575922D01*
X163669216Y-105427264D01*
X163345818Y-105314103D01*
X163345816Y-105314102D01*
X163088024Y-105255262D01*
X163011783Y-105237861D01*
X163011780Y-105237860D01*
X163011768Y-105237858D01*
X162671318Y-105199500D01*
X162671312Y-105199500D01*
X162328688Y-105199500D01*
X162328681Y-105199500D01*
X161988231Y-105237858D01*
X161988217Y-105237861D01*
X161654183Y-105314102D01*
X161654181Y-105314103D01*
X161330783Y-105427264D01*
X161022092Y-105575922D01*
X160731983Y-105758210D01*
X160464107Y-105971833D01*
X160221833Y-106214107D01*
X160008210Y-106481983D01*
X159825922Y-106772092D01*
X159677264Y-107080783D01*
X159564103Y-107404181D01*
X159564102Y-107404183D01*
X159487861Y-107738217D01*
X159487858Y-107738231D01*
X159449500Y-108078681D01*
X155800000Y-108078681D01*
X155800000Y-107750000D01*
X156500000Y-107750000D01*
X156500000Y-107351508D01*
X156499999Y-107351504D01*
X156461572Y-107158318D01*
X156461569Y-107158306D01*
X156386192Y-106976328D01*
X156386185Y-106976315D01*
X156276751Y-106812537D01*
X156276748Y-106812533D01*
X156137466Y-106673251D01*
X156137462Y-106673248D01*
X155973684Y-106563814D01*
X155973671Y-106563807D01*
X155791691Y-106488429D01*
X155791683Y-106488427D01*
X155750000Y-106480135D01*
X155750000Y-107283011D01*
X155740060Y-107265795D01*
X155684205Y-107209940D01*
X155615796Y-107170444D01*
X155539496Y-107150000D01*
X155460504Y-107150000D01*
X155384204Y-107170444D01*
X155315795Y-107209940D01*
X155259940Y-107265795D01*
X155250000Y-107283011D01*
X155250000Y-106480136D01*
X155249999Y-106480135D01*
X155208316Y-106488427D01*
X155208308Y-106488429D01*
X155026328Y-106563807D01*
X155026315Y-106563814D01*
X154862537Y-106673248D01*
X154862533Y-106673251D01*
X154723251Y-106812533D01*
X154723248Y-106812537D01*
X154613814Y-106976315D01*
X154613807Y-106976328D01*
X154538430Y-107158306D01*
X154538427Y-107158318D01*
X154500000Y-107351504D01*
X154500000Y-107750000D01*
X155200000Y-107750000D01*
X155200000Y-108250000D01*
X154644464Y-108250000D01*
X154577425Y-108230315D01*
X154547059Y-108202735D01*
X154541537Y-108195725D01*
X154530515Y-108176635D01*
X154423365Y-108069485D01*
X154357750Y-108031602D01*
X154292136Y-107993719D01*
X154190144Y-107966391D01*
X154145766Y-107954500D01*
X153994234Y-107954500D01*
X153847863Y-107993719D01*
X153716635Y-108069485D01*
X153716632Y-108069487D01*
X153609487Y-108176632D01*
X153609485Y-108176635D01*
X153533719Y-108307863D01*
X153524743Y-108341364D01*
X153494500Y-108454234D01*
X148865500Y-108454234D01*
X148826281Y-108307865D01*
X148750515Y-108176635D01*
X148643365Y-108069485D01*
X148577750Y-108031602D01*
X148512136Y-107993719D01*
X148410144Y-107966391D01*
X148365766Y-107954500D01*
X148214234Y-107954500D01*
X148067863Y-107993719D01*
X147936635Y-108069485D01*
X147936632Y-108069487D01*
X147829486Y-108176633D01*
X147829482Y-108176638D01*
X147822923Y-108188000D01*
X147772356Y-108236216D01*
X147715536Y-108250000D01*
X147160000Y-108250000D01*
X147160000Y-107750000D01*
X147860000Y-107750000D01*
X147860000Y-107351508D01*
X147859999Y-107351504D01*
X147821572Y-107158318D01*
X147821569Y-107158306D01*
X147746192Y-106976328D01*
X147746185Y-106976315D01*
X147636751Y-106812537D01*
X147636748Y-106812533D01*
X147497466Y-106673251D01*
X147497462Y-106673248D01*
X147333684Y-106563814D01*
X147333671Y-106563807D01*
X147151691Y-106488429D01*
X147151683Y-106488427D01*
X147110000Y-106480135D01*
X147110000Y-107283011D01*
X147100060Y-107265795D01*
X147044205Y-107209940D01*
X146975796Y-107170444D01*
X146899496Y-107150000D01*
X146820504Y-107150000D01*
X146744204Y-107170444D01*
X146675795Y-107209940D01*
X146619940Y-107265795D01*
X146610000Y-107283011D01*
X146610000Y-106480136D01*
X146609999Y-106480135D01*
X146568316Y-106488427D01*
X146568308Y-106488429D01*
X146386328Y-106563807D01*
X146386315Y-106563814D01*
X146222537Y-106673248D01*
X146222533Y-106673251D01*
X146083251Y-106812533D01*
X146083248Y-106812537D01*
X145973814Y-106976315D01*
X145973807Y-106976328D01*
X145898430Y-107158306D01*
X145898427Y-107158318D01*
X145860000Y-107351504D01*
X140978367Y-107351504D01*
X140966392Y-107306814D01*
X140900500Y-107192686D01*
X140807314Y-107099500D01*
X140750250Y-107066554D01*
X140693187Y-107033608D01*
X140597663Y-107008013D01*
X140565892Y-106999500D01*
X140434108Y-106999500D01*
X140306814Y-107033608D01*
X140306813Y-107033608D01*
X140306811Y-107033609D01*
X140306810Y-107033609D01*
X140221460Y-107082887D01*
X140159460Y-107099500D01*
X138035902Y-107099500D01*
X137934042Y-107126793D01*
X137934039Y-107126794D01*
X137893846Y-107150000D01*
X137886350Y-107154328D01*
X137864533Y-107166924D01*
X137842717Y-107179519D01*
X137842714Y-107179521D01*
X136274522Y-108747713D01*
X136274520Y-108747716D01*
X136221792Y-108839042D01*
X136219903Y-108846095D01*
X136219902Y-108846100D01*
X136194500Y-108940902D01*
X136194500Y-112152273D01*
X136194500Y-112257727D01*
X136204987Y-112296865D01*
X136221793Y-112359589D01*
X136235216Y-112382837D01*
X136274520Y-112450913D01*
X136274522Y-112450915D01*
X138141005Y-114317398D01*
X138173099Y-114372985D01*
X138198608Y-114468186D01*
X138264500Y-114582314D01*
X138357686Y-114675500D01*
X138471814Y-114741392D01*
X138599108Y-114775500D01*
X138599110Y-114775500D01*
X138730890Y-114775500D01*
X138730892Y-114775500D01*
X138858186Y-114741392D01*
X138972314Y-114675500D01*
X139065500Y-114582314D01*
X139131392Y-114468186D01*
X139165500Y-114340892D01*
X139165500Y-114209108D01*
X139131392Y-114081814D01*
X139065500Y-113967686D01*
X138972314Y-113874500D01*
X138858186Y-113808608D01*
X138762985Y-113783099D01*
X138707398Y-113751005D01*
X138350149Y-113393756D01*
X138316664Y-113332433D01*
X138321648Y-113262741D01*
X138336872Y-113234079D01*
X138377165Y-113177577D01*
X138975975Y-113177577D01*
X139081236Y-113221178D01*
X139081240Y-113221179D01*
X139226126Y-113249999D01*
X139226129Y-113250000D01*
X139373871Y-113250000D01*
X139373873Y-113249999D01*
X139518760Y-113221179D01*
X139518775Y-113221175D01*
X139624024Y-113177578D01*
X139624024Y-113177577D01*
X139300001Y-112853554D01*
X139300000Y-112853554D01*
X138975975Y-113177577D01*
X138377165Y-113177577D01*
X138396671Y-113150224D01*
X137923223Y-112676777D01*
X137782765Y-112536319D01*
X137716609Y-112470163D01*
X137950000Y-112470163D01*
X137950000Y-112529837D01*
X137972836Y-112584968D01*
X138015032Y-112627164D01*
X138070163Y-112650000D01*
X138129837Y-112650000D01*
X138184968Y-112627164D01*
X138227164Y-112584968D01*
X138250000Y-112529837D01*
X138250000Y-112500000D01*
X138453554Y-112500000D01*
X138700000Y-112746446D01*
X138946446Y-112500000D01*
X138916609Y-112470163D01*
X139150000Y-112470163D01*
X139150000Y-112529837D01*
X139172836Y-112584968D01*
X139215032Y-112627164D01*
X139270163Y-112650000D01*
X139329837Y-112650000D01*
X139384968Y-112627164D01*
X139427164Y-112584968D01*
X139450000Y-112529837D01*
X139450000Y-112500000D01*
X139653554Y-112500000D01*
X139900000Y-112746446D01*
X140146446Y-112500000D01*
X139900000Y-112253554D01*
X139653554Y-112500000D01*
X139450000Y-112500000D01*
X139450000Y-112470163D01*
X139427164Y-112415032D01*
X139384968Y-112372836D01*
X139329837Y-112350000D01*
X139270163Y-112350000D01*
X139215032Y-112372836D01*
X139172836Y-112415032D01*
X139150000Y-112470163D01*
X138916609Y-112470163D01*
X138700000Y-112253554D01*
X138453554Y-112500000D01*
X138250000Y-112500000D01*
X138250000Y-112470163D01*
X138227164Y-112415032D01*
X138184968Y-112372836D01*
X138129837Y-112350000D01*
X138070163Y-112350000D01*
X138015032Y-112372836D01*
X137972836Y-112415032D01*
X137950000Y-112470163D01*
X137716609Y-112470163D01*
X137422421Y-112175974D01*
X137422420Y-112175974D01*
X137408484Y-112209621D01*
X137387896Y-112235168D01*
X137368233Y-112261435D01*
X137366083Y-112262236D01*
X137364643Y-112264024D01*
X137333512Y-112274385D01*
X137302769Y-112285852D01*
X137300526Y-112285364D01*
X137298348Y-112286089D01*
X137266546Y-112277972D01*
X137234496Y-112271000D01*
X137232047Y-112269166D01*
X137230649Y-112268810D01*
X137206242Y-112249849D01*
X137031819Y-112075426D01*
X136998334Y-112014103D01*
X136995500Y-111987745D01*
X136995500Y-111777930D01*
X137775622Y-111777930D01*
X137775622Y-111822068D01*
X138100000Y-112146446D01*
X138100001Y-112146446D01*
X138424376Y-111822069D01*
X138424376Y-111815852D01*
X138422486Y-111811049D01*
X138424261Y-111777930D01*
X138975622Y-111777930D01*
X138975622Y-111822068D01*
X139300000Y-112146446D01*
X139300001Y-112146446D01*
X139624376Y-111822069D01*
X139624376Y-111777929D01*
X139300001Y-111453554D01*
X139300000Y-111453554D01*
X138975622Y-111777930D01*
X138424261Y-111777930D01*
X138424267Y-111777820D01*
X138100001Y-111453554D01*
X138100000Y-111453554D01*
X137775622Y-111777930D01*
X136995500Y-111777930D01*
X136995500Y-111026126D01*
X137350000Y-111026126D01*
X137350000Y-111173873D01*
X137378820Y-111318759D01*
X137378822Y-111318767D01*
X137422421Y-111424024D01*
X137746446Y-111100000D01*
X137746446Y-111099999D01*
X137716610Y-111070163D01*
X137950000Y-111070163D01*
X137950000Y-111129837D01*
X137972836Y-111184968D01*
X138015032Y-111227164D01*
X138070163Y-111250000D01*
X138129837Y-111250000D01*
X138184968Y-111227164D01*
X138227164Y-111184968D01*
X138250000Y-111129837D01*
X138250000Y-111100000D01*
X138453554Y-111100000D01*
X138700000Y-111346446D01*
X138946446Y-111100000D01*
X138916609Y-111070163D01*
X139150000Y-111070163D01*
X139150000Y-111129837D01*
X139172836Y-111184968D01*
X139215032Y-111227164D01*
X139270163Y-111250000D01*
X139329837Y-111250000D01*
X139384968Y-111227164D01*
X139427164Y-111184968D01*
X139450000Y-111129837D01*
X139450000Y-111100000D01*
X139653554Y-111100000D01*
X139900000Y-111346446D01*
X140146446Y-111100000D01*
X139900000Y-110853554D01*
X139653554Y-111100000D01*
X139450000Y-111100000D01*
X139450000Y-111070163D01*
X139427164Y-111015032D01*
X139384968Y-110972836D01*
X139329837Y-110950000D01*
X139270163Y-110950000D01*
X139215032Y-110972836D01*
X139172836Y-111015032D01*
X139150000Y-111070163D01*
X138916609Y-111070163D01*
X138700000Y-110853554D01*
X138453554Y-111100000D01*
X138250000Y-111100000D01*
X138250000Y-111070163D01*
X138227164Y-111015032D01*
X138184968Y-110972836D01*
X138129837Y-110950000D01*
X138070163Y-110950000D01*
X138015032Y-110972836D01*
X137972836Y-111015032D01*
X137950000Y-111070163D01*
X137716610Y-111070163D01*
X137422421Y-110775974D01*
X137422420Y-110775974D01*
X137378823Y-110881228D01*
X137378820Y-110881240D01*
X137350000Y-111026126D01*
X136995500Y-111026126D01*
X136995500Y-110422420D01*
X137775974Y-110422420D01*
X137775974Y-110422421D01*
X138100000Y-110746446D01*
X138100001Y-110746446D01*
X138424024Y-110422421D01*
X138424022Y-110422420D01*
X138975974Y-110422420D01*
X138975974Y-110422421D01*
X139300000Y-110746446D01*
X139300001Y-110746446D01*
X139624024Y-110422421D01*
X139518767Y-110378822D01*
X139518759Y-110378820D01*
X139373872Y-110350000D01*
X139226128Y-110350000D01*
X139081240Y-110378820D01*
X139081228Y-110378823D01*
X138975974Y-110422420D01*
X138424022Y-110422420D01*
X138318767Y-110378822D01*
X138318759Y-110378820D01*
X138173872Y-110350000D01*
X138026128Y-110350000D01*
X137881240Y-110378820D01*
X137881228Y-110378823D01*
X137775974Y-110422420D01*
X136995500Y-110422420D01*
X136995500Y-110000685D01*
X137015185Y-109933646D01*
X137067989Y-109887891D01*
X137137147Y-109877947D01*
X137155246Y-109882913D01*
X137155365Y-109882473D01*
X137163214Y-109884576D01*
X137163216Y-109884577D01*
X137315943Y-109925500D01*
X140124903Y-109925500D01*
X140191942Y-109945185D01*
X140212584Y-109961819D01*
X140407751Y-110156986D01*
X140441236Y-110218309D01*
X140436252Y-110288001D01*
X140394380Y-110343934D01*
X140344262Y-110366284D01*
X140281238Y-110378820D01*
X140281228Y-110378823D01*
X140175974Y-110422420D01*
X140175974Y-110422421D01*
X140589095Y-110835542D01*
X140622580Y-110896865D01*
X140617596Y-110966557D01*
X140602374Y-110990242D01*
X140584968Y-110972836D01*
X140529837Y-110950000D01*
X140470163Y-110950000D01*
X140415032Y-110972836D01*
X140372836Y-111015032D01*
X140350000Y-111070163D01*
X140350000Y-111129837D01*
X140372836Y-111184968D01*
X140415032Y-111227164D01*
X140470163Y-111250000D01*
X140529837Y-111250000D01*
X140584968Y-111227164D01*
X140601082Y-111211049D01*
X140622580Y-111250418D01*
X140617596Y-111320110D01*
X140589095Y-111364457D01*
X140175622Y-111777929D01*
X140175622Y-111822068D01*
X140589096Y-112235542D01*
X140622581Y-112296865D01*
X140617597Y-112366557D01*
X140602374Y-112390242D01*
X140584968Y-112372836D01*
X140529837Y-112350000D01*
X140470163Y-112350000D01*
X140415032Y-112372836D01*
X140372836Y-112415032D01*
X140350000Y-112470163D01*
X140350000Y-112529837D01*
X140372836Y-112584968D01*
X140415032Y-112627164D01*
X140470163Y-112650000D01*
X140529837Y-112650000D01*
X140584968Y-112627164D01*
X140601082Y-112611049D01*
X140622580Y-112650418D01*
X140617596Y-112720110D01*
X140589095Y-112764457D01*
X140175974Y-113177577D01*
X140281236Y-113221178D01*
X140281240Y-113221179D01*
X140426126Y-113249999D01*
X140426129Y-113250000D01*
X140573870Y-113250000D01*
X140601307Y-113244542D01*
X140670899Y-113250768D01*
X140726077Y-113293631D01*
X140749322Y-113359520D01*
X140749500Y-113366159D01*
X140749500Y-113831586D01*
X140735654Y-113888525D01*
X140728607Y-113902157D01*
X140724481Y-113906284D01*
X140645423Y-114043215D01*
X140634366Y-114084477D01*
X140628212Y-114096384D01*
X140612958Y-114112346D01*
X140601466Y-114131201D01*
X140589291Y-114137114D01*
X140579942Y-114146899D01*
X140558480Y-114152081D01*
X140538618Y-114161729D01*
X140525179Y-114160121D01*
X140512025Y-114163298D01*
X140491167Y-114156054D01*
X140469243Y-114153432D01*
X140458807Y-114144815D01*
X140446022Y-114140375D01*
X140432390Y-114123002D01*
X140415366Y-114108945D01*
X140403493Y-114086888D01*
X140401391Y-114081812D01*
X140392563Y-114066521D01*
X140335500Y-113967686D01*
X140242314Y-113874500D01*
X140167985Y-113831586D01*
X140128187Y-113808608D01*
X140032984Y-113783099D01*
X140000892Y-113774500D01*
X139869108Y-113774500D01*
X139741812Y-113808608D01*
X139627686Y-113874500D01*
X139627683Y-113874502D01*
X139534502Y-113967683D01*
X139534500Y-113967686D01*
X139468608Y-114081812D01*
X139434514Y-114209054D01*
X139434500Y-114209108D01*
X139434500Y-114340892D01*
X139438028Y-114354057D01*
X139468608Y-114468187D01*
X139486235Y-114498717D01*
X139534500Y-114582314D01*
X139534502Y-114582316D01*
X139563181Y-114610995D01*
X139577884Y-114637922D01*
X139594477Y-114663741D01*
X139595368Y-114669941D01*
X139596666Y-114672318D01*
X139599500Y-114698676D01*
X139599500Y-114782745D01*
X139579815Y-114849784D01*
X139563181Y-114870426D01*
X139370426Y-115063181D01*
X139309103Y-115096666D01*
X139282745Y-115099500D01*
X136717254Y-115099500D01*
X136650215Y-115079815D01*
X136629573Y-115063181D01*
X136436819Y-114870426D01*
X136403334Y-114809103D01*
X136400500Y-114782745D01*
X136400500Y-113715539D01*
X136417112Y-113653540D01*
X136466392Y-113568186D01*
X136500500Y-113440892D01*
X136500500Y-113309108D01*
X136466392Y-113181814D01*
X136400500Y-113067686D01*
X136307314Y-112974500D01*
X136250250Y-112941554D01*
X136193187Y-112908608D01*
X136129539Y-112891554D01*
X136065892Y-112874500D01*
X135934108Y-112874500D01*
X135806812Y-112908608D01*
X135692686Y-112974500D01*
X135692683Y-112974502D01*
X135599502Y-113067683D01*
X135599500Y-113067686D01*
X135533608Y-113181812D01*
X135513529Y-113256751D01*
X135499500Y-113309108D01*
X135499500Y-113440892D01*
X135533608Y-113568186D01*
X135582887Y-113653540D01*
X135599500Y-113715539D01*
X135599500Y-114947273D01*
X135599500Y-115052727D01*
X135602221Y-115062882D01*
X135626793Y-115154589D01*
X135653156Y-115200250D01*
X135679520Y-115245913D01*
X136179518Y-115745910D01*
X136179520Y-115745913D01*
X136185806Y-115752199D01*
X136196429Y-115762823D01*
X136211286Y-115790035D01*
X136229910Y-115824142D01*
X136229909Y-115824145D01*
X136229911Y-115824148D01*
X136228025Y-115850500D01*
X136224926Y-115893834D01*
X136224924Y-115893836D01*
X136224924Y-115893839D01*
X136207637Y-115916929D01*
X136183054Y-115949767D01*
X136183052Y-115949767D01*
X136183050Y-115949771D01*
X136148453Y-115962672D01*
X136117590Y-115974184D01*
X136108744Y-115974500D01*
X94649500Y-115974500D01*
X94582461Y-115954815D01*
X94536706Y-115902011D01*
X94525500Y-115850500D01*
X94525500Y-108749999D01*
X97150884Y-108749999D01*
X97150885Y-108750000D01*
X98219670Y-108750000D01*
X98199925Y-108769745D01*
X98150556Y-108855255D01*
X98125000Y-108950630D01*
X98125000Y-109049370D01*
X98150556Y-109144745D01*
X98199925Y-109230255D01*
X98219670Y-109250000D01*
X97150885Y-109250000D01*
X97152085Y-109257584D01*
X97205591Y-109422255D01*
X97284195Y-109576524D01*
X97385967Y-109716602D01*
X97508397Y-109839032D01*
X97648475Y-109940804D01*
X97802742Y-110019408D01*
X97967415Y-110072914D01*
X98138429Y-110100000D01*
X98250000Y-110100000D01*
X98250000Y-109280330D01*
X98269745Y-109300075D01*
X98355255Y-109349444D01*
X98450630Y-109375000D01*
X98549370Y-109375000D01*
X98644745Y-109349444D01*
X98730255Y-109300075D01*
X98750000Y-109280330D01*
X98750000Y-110100000D01*
X98861571Y-110100000D01*
X99032584Y-110072914D01*
X99197257Y-110019408D01*
X99351524Y-109940804D01*
X99491602Y-109839032D01*
X99614032Y-109716602D01*
X99715804Y-109576524D01*
X99794408Y-109422255D01*
X99847914Y-109257584D01*
X99849115Y-109250000D01*
X98780330Y-109250000D01*
X98800075Y-109230255D01*
X98849444Y-109144745D01*
X98875000Y-109049370D01*
X98875000Y-108950630D01*
X98849444Y-108855255D01*
X98800075Y-108769745D01*
X98780330Y-108750000D01*
X99849115Y-108750000D01*
X99849115Y-108749999D01*
X99847914Y-108742415D01*
X99794408Y-108577744D01*
X99715804Y-108423475D01*
X99614032Y-108283397D01*
X99491602Y-108160967D01*
X99351521Y-108059194D01*
X99247947Y-108006419D01*
X99197152Y-107958445D01*
X99180357Y-107890624D01*
X99202895Y-107824489D01*
X99257610Y-107781038D01*
X99263248Y-107778908D01*
X99337882Y-107752793D01*
X99447150Y-107672150D01*
X99527793Y-107562882D01*
X99554870Y-107485500D01*
X99572646Y-107434701D01*
X99572646Y-107434699D01*
X99575500Y-107404269D01*
X99575500Y-106595730D01*
X99572646Y-106565300D01*
X99572646Y-106565298D01*
X99535920Y-106460344D01*
X99527793Y-106437118D01*
X99447150Y-106327850D01*
X99337882Y-106247207D01*
X99337880Y-106247206D01*
X99209700Y-106202353D01*
X99179270Y-106199500D01*
X99179266Y-106199500D01*
X97820734Y-106199500D01*
X97820730Y-106199500D01*
X97790300Y-106202353D01*
X97790298Y-106202353D01*
X97662119Y-106247206D01*
X97662117Y-106247207D01*
X97552850Y-106327850D01*
X97472207Y-106437117D01*
X97472206Y-106437119D01*
X97427353Y-106565298D01*
X97427353Y-106565300D01*
X97424500Y-106595730D01*
X97424500Y-107404269D01*
X97427353Y-107434699D01*
X97427353Y-107434701D01*
X97468186Y-107551391D01*
X97472207Y-107562882D01*
X97552850Y-107672150D01*
X97662118Y-107752793D01*
X97736714Y-107778895D01*
X97793487Y-107819615D01*
X97819234Y-107884568D01*
X97805778Y-107953130D01*
X97757390Y-108003532D01*
X97752052Y-108006419D01*
X97648478Y-108059194D01*
X97508397Y-108160967D01*
X97385967Y-108283397D01*
X97284195Y-108423475D01*
X97205591Y-108577744D01*
X97152085Y-108742415D01*
X97150884Y-108749999D01*
X94525500Y-108749999D01*
X94525500Y-104424000D01*
X94545185Y-104356961D01*
X94597989Y-104311206D01*
X94649500Y-104300000D01*
X94750000Y-104300000D01*
X94750000Y-95019688D01*
X94769685Y-94952649D01*
X94822489Y-94906894D01*
X94891647Y-94896950D01*
X94955203Y-94925975D01*
X94981386Y-94957686D01*
X95034511Y-95049700D01*
X95625300Y-95640490D01*
X95728027Y-95699799D01*
X95752235Y-95706284D01*
X95752238Y-95706286D01*
X95752239Y-95706286D01*
X95782361Y-95714357D01*
X95842605Y-95730500D01*
X96310122Y-95730500D01*
X96377161Y-95750185D01*
X96397803Y-95766819D01*
X101033181Y-100402197D01*
X101066666Y-100463520D01*
X101069500Y-100489878D01*
X101069500Y-110079308D01*
X101093712Y-110169672D01*
X101100200Y-110193885D01*
X101100200Y-110193886D01*
X101114301Y-110218309D01*
X101159511Y-110296614D01*
X101159513Y-110296616D01*
X103501886Y-112638989D01*
X103529160Y-112686227D01*
X103530496Y-112685674D01*
X103533607Y-112693184D01*
X103533608Y-112693186D01*
X103599500Y-112807314D01*
X103692686Y-112900500D01*
X103806814Y-112966392D01*
X103934108Y-113000500D01*
X103934110Y-113000500D01*
X104065890Y-113000500D01*
X104065892Y-113000500D01*
X104193186Y-112966392D01*
X104307314Y-112900500D01*
X104400500Y-112807314D01*
X104466392Y-112693186D01*
X104500500Y-112565892D01*
X104500500Y-112434108D01*
X104466392Y-112306814D01*
X104400500Y-112192686D01*
X104307314Y-112099500D01*
X104300784Y-112095730D01*
X112199500Y-112095730D01*
X112199500Y-114904269D01*
X112202353Y-114934699D01*
X112202353Y-114934701D01*
X112247206Y-115062880D01*
X112247207Y-115062882D01*
X112327850Y-115172150D01*
X112437118Y-115252793D01*
X112479845Y-115267744D01*
X112565299Y-115297646D01*
X112595730Y-115300500D01*
X112595734Y-115300500D01*
X115404270Y-115300500D01*
X115434699Y-115297646D01*
X115434701Y-115297646D01*
X115498790Y-115275219D01*
X115562882Y-115252793D01*
X115672150Y-115172150D01*
X115752793Y-115062882D01*
X115775219Y-114998790D01*
X115797646Y-114934701D01*
X115797646Y-114934699D01*
X115800500Y-114904269D01*
X115800500Y-112095730D01*
X115797646Y-112065300D01*
X115797646Y-112065298D01*
X115764006Y-111969163D01*
X115752793Y-111937118D01*
X115672150Y-111827850D01*
X115562882Y-111747207D01*
X115562880Y-111747206D01*
X115434700Y-111702353D01*
X115404270Y-111699500D01*
X115404266Y-111699500D01*
X112595734Y-111699500D01*
X112595730Y-111699500D01*
X112565300Y-111702353D01*
X112565298Y-111702353D01*
X112437119Y-111747206D01*
X112437117Y-111747207D01*
X112327850Y-111827850D01*
X112247207Y-111937117D01*
X112247206Y-111937119D01*
X112202353Y-112065298D01*
X112202353Y-112065300D01*
X112199500Y-112095730D01*
X104300784Y-112095730D01*
X104193186Y-112033608D01*
X104193185Y-112033607D01*
X104193184Y-112033607D01*
X104185674Y-112030496D01*
X104186227Y-112029160D01*
X104138989Y-112001886D01*
X102006819Y-109869715D01*
X101973334Y-109808392D01*
X101970500Y-109782034D01*
X101970500Y-100192606D01*
X101970500Y-100192604D01*
X101939799Y-100078027D01*
X101939799Y-100078026D01*
X101939799Y-100078025D01*
X101880492Y-99975302D01*
X101880488Y-99975297D01*
X96824703Y-94919513D01*
X96824701Y-94919511D01*
X96763235Y-94884023D01*
X96721975Y-94860201D01*
X96709867Y-94856957D01*
X96697760Y-94853713D01*
X96697757Y-94853712D01*
X96659565Y-94843478D01*
X96607396Y-94829500D01*
X96607395Y-94829500D01*
X96139880Y-94829500D01*
X96110439Y-94820855D01*
X96080453Y-94814332D01*
X96075437Y-94810577D01*
X96072841Y-94809815D01*
X96052199Y-94793181D01*
X95881819Y-94622801D01*
X95848334Y-94561478D01*
X95845500Y-94535120D01*
X95845500Y-88984108D01*
X97009500Y-88984108D01*
X97009500Y-89115892D01*
X97018100Y-89147987D01*
X97043608Y-89243187D01*
X97076554Y-89300250D01*
X97109500Y-89357314D01*
X97202686Y-89450500D01*
X97301521Y-89507563D01*
X97316810Y-89516390D01*
X97316814Y-89516392D01*
X97444108Y-89550500D01*
X97444110Y-89550500D01*
X97575890Y-89550500D01*
X97575892Y-89550500D01*
X97703186Y-89516392D01*
X97817314Y-89450500D01*
X97910500Y-89357314D01*
X97976392Y-89243186D01*
X97983257Y-89217567D01*
X98001900Y-89147986D01*
X98033992Y-89092399D01*
X100299550Y-86826841D01*
X100360869Y-86793359D01*
X100430561Y-86798343D01*
X100486494Y-86840215D01*
X100506501Y-86891465D01*
X100508727Y-86890989D01*
X100510142Y-86897603D01*
X100563452Y-87058481D01*
X100563457Y-87058492D01*
X100652424Y-87202728D01*
X100652427Y-87202732D01*
X100772267Y-87322572D01*
X100772271Y-87322575D01*
X100916507Y-87411542D01*
X100916518Y-87411547D01*
X101077393Y-87464855D01*
X101176683Y-87474999D01*
X101200000Y-87474998D01*
X101200000Y-86624000D01*
X101219685Y-86556961D01*
X101272489Y-86511206D01*
X101324000Y-86500000D01*
X101576000Y-86500000D01*
X101643039Y-86519685D01*
X101688794Y-86572489D01*
X101700000Y-86624000D01*
X101700000Y-87474999D01*
X101723308Y-87474999D01*
X101723322Y-87474998D01*
X101822607Y-87464855D01*
X101983481Y-87411547D01*
X101983492Y-87411542D01*
X102127728Y-87322575D01*
X102127732Y-87322572D01*
X102247573Y-87202731D01*
X102309606Y-87102160D01*
X102321263Y-87091674D01*
X102329019Y-87078047D01*
X102346709Y-87068787D01*
X102361554Y-87055435D01*
X102377029Y-87052916D01*
X102390921Y-87045645D01*
X102410808Y-87047419D01*
X102430516Y-87044212D01*
X102445821Y-87050543D01*
X102460514Y-87051854D01*
X102480253Y-87064786D01*
X102491189Y-87069310D01*
X102497329Y-87074077D01*
X102521780Y-87098528D01*
X102542267Y-87108966D01*
X102551544Y-87116169D01*
X102565391Y-87135360D01*
X102582590Y-87151604D01*
X102585876Y-87163752D01*
X102592426Y-87172830D01*
X102593443Y-87191727D01*
X102599500Y-87214115D01*
X102599500Y-87659460D01*
X102582887Y-87721460D01*
X102533609Y-87806810D01*
X102533609Y-87806811D01*
X102533608Y-87806813D01*
X102533608Y-87806814D01*
X102499500Y-87934108D01*
X102499500Y-88065892D01*
X102508505Y-88099500D01*
X102533608Y-88193187D01*
X102566410Y-88250000D01*
X102599500Y-88307314D01*
X102692686Y-88400500D01*
X102806814Y-88466392D01*
X102934108Y-88500500D01*
X102934110Y-88500500D01*
X103065890Y-88500500D01*
X103065892Y-88500500D01*
X103193186Y-88466392D01*
X103307314Y-88400500D01*
X103400500Y-88307314D01*
X103466392Y-88193186D01*
X103468997Y-88183466D01*
X103491900Y-88097986D01*
X103523992Y-88042399D01*
X105320480Y-86245913D01*
X107437819Y-84128574D01*
X107499142Y-84095089D01*
X107568834Y-84100073D01*
X107624767Y-84141945D01*
X107649184Y-84207409D01*
X107649500Y-84216255D01*
X107649500Y-84732744D01*
X107629815Y-84799783D01*
X107613181Y-84820425D01*
X103957600Y-88476005D01*
X103902014Y-88508098D01*
X103806815Y-88533607D01*
X103806814Y-88533607D01*
X103692686Y-88599500D01*
X103692683Y-88599502D01*
X103599502Y-88692683D01*
X103599500Y-88692686D01*
X103533608Y-88806812D01*
X103509717Y-88895977D01*
X103499500Y-88934108D01*
X103499500Y-89065892D01*
X103514173Y-89120654D01*
X103533608Y-89193187D01*
X103547684Y-89217567D01*
X103599500Y-89307314D01*
X103692686Y-89400500D01*
X103806814Y-89466392D01*
X103934108Y-89500500D01*
X103934110Y-89500500D01*
X104065890Y-89500500D01*
X104065892Y-89500500D01*
X104193186Y-89466392D01*
X104307314Y-89400500D01*
X104400500Y-89307314D01*
X104466392Y-89193186D01*
X104487103Y-89115891D01*
X104491900Y-89097986D01*
X104523992Y-89042399D01*
X108137821Y-85428571D01*
X108199142Y-85395088D01*
X108268834Y-85400072D01*
X108324767Y-85441944D01*
X108349184Y-85507408D01*
X108349500Y-85516254D01*
X108349500Y-86532744D01*
X108329815Y-86599783D01*
X108313181Y-86620425D01*
X106457600Y-88476005D01*
X106402014Y-88508098D01*
X106306815Y-88533607D01*
X106306814Y-88533607D01*
X106192686Y-88599500D01*
X106192683Y-88599502D01*
X106099502Y-88692683D01*
X106099500Y-88692686D01*
X106033608Y-88806812D01*
X106009717Y-88895977D01*
X105999500Y-88934108D01*
X105999500Y-89065892D01*
X106014173Y-89120654D01*
X106033608Y-89193187D01*
X106047684Y-89217567D01*
X106099500Y-89307314D01*
X106192686Y-89400500D01*
X106306814Y-89466392D01*
X106434108Y-89500500D01*
X106434110Y-89500500D01*
X106565890Y-89500500D01*
X106565892Y-89500500D01*
X106693186Y-89466392D01*
X106807314Y-89400500D01*
X106900500Y-89307314D01*
X106966392Y-89193186D01*
X106966393Y-89193183D01*
X106969582Y-89187660D01*
X107020149Y-89139444D01*
X107088756Y-89126221D01*
X107153621Y-89152189D01*
X107194149Y-89209103D01*
X107196739Y-89217553D01*
X107200695Y-89232315D01*
X107203608Y-89243187D01*
X107236554Y-89300250D01*
X107269500Y-89357314D01*
X107362686Y-89450500D01*
X107461521Y-89507563D01*
X107476810Y-89516390D01*
X107476814Y-89516392D01*
X107604108Y-89550500D01*
X107604110Y-89550500D01*
X107735890Y-89550500D01*
X107735892Y-89550500D01*
X107863186Y-89516392D01*
X107977314Y-89450500D01*
X108070500Y-89357314D01*
X108136392Y-89243186D01*
X108139305Y-89232315D01*
X108161900Y-89147987D01*
X108169916Y-89134100D01*
X108172842Y-89120654D01*
X108193993Y-89092399D01*
X108198019Y-89088373D01*
X108230786Y-89055605D01*
X108292106Y-89022121D01*
X108361798Y-89027105D01*
X108417732Y-89068975D01*
X108438241Y-89111193D01*
X108439500Y-89115891D01*
X108439500Y-89115892D01*
X108473608Y-89243186D01*
X108539500Y-89357314D01*
X108632686Y-89450500D01*
X108746814Y-89516392D01*
X108842014Y-89541900D01*
X108897600Y-89573993D01*
X109269088Y-89945481D01*
X109360413Y-89998208D01*
X109462274Y-90025501D01*
X117097201Y-90025501D01*
X117112691Y-90029651D01*
X117126436Y-90028997D01*
X117159200Y-90042113D01*
X117204233Y-90068113D01*
X117252448Y-90118681D01*
X117265670Y-90187288D01*
X117239702Y-90252152D01*
X117182788Y-90292680D01*
X117142232Y-90299500D01*
X104177205Y-90299500D01*
X104110166Y-90279815D01*
X104089524Y-90263181D01*
X101855865Y-88029522D01*
X101855863Y-88029520D01*
X101810200Y-88003156D01*
X101764539Y-87976793D01*
X101693851Y-87957853D01*
X101662677Y-87949500D01*
X100697273Y-87949500D01*
X100595413Y-87976793D01*
X100595410Y-87976794D01*
X100524241Y-88017884D01*
X100504090Y-88029518D01*
X100504084Y-88029522D01*
X100007600Y-88526005D01*
X99952014Y-88558098D01*
X99856815Y-88583607D01*
X99856814Y-88583607D01*
X99742686Y-88649500D01*
X99742683Y-88649502D01*
X99649502Y-88742683D01*
X99649500Y-88742686D01*
X99583608Y-88856812D01*
X99554659Y-88964855D01*
X99549500Y-88984108D01*
X99549500Y-89115892D01*
X99558100Y-89147987D01*
X99583608Y-89243187D01*
X99616554Y-89300250D01*
X99649500Y-89357314D01*
X99742686Y-89450500D01*
X99841521Y-89507563D01*
X99856810Y-89516390D01*
X99856814Y-89516392D01*
X99984108Y-89550500D01*
X99984110Y-89550500D01*
X100115890Y-89550500D01*
X100115892Y-89550500D01*
X100243186Y-89516392D01*
X100357314Y-89450500D01*
X100450500Y-89357314D01*
X100516392Y-89243186D01*
X100523257Y-89217567D01*
X100541900Y-89147986D01*
X100549917Y-89134099D01*
X100552843Y-89120651D01*
X100573993Y-89092399D01*
X100610787Y-89055604D01*
X100672108Y-89022121D01*
X100741800Y-89027105D01*
X100797733Y-89068977D01*
X100818241Y-89111193D01*
X100819500Y-89115891D01*
X100819500Y-89115892D01*
X100853608Y-89243186D01*
X100919500Y-89357314D01*
X101012686Y-89450500D01*
X101126814Y-89516392D01*
X101222014Y-89541900D01*
X101277600Y-89573993D01*
X102640652Y-90937044D01*
X102660357Y-90962723D01*
X102679520Y-90995913D01*
X103396864Y-91713257D01*
X104021427Y-92337819D01*
X104054912Y-92399142D01*
X104049928Y-92468834D01*
X104008056Y-92524767D01*
X103942592Y-92549184D01*
X103933746Y-92549500D01*
X100091519Y-92549500D01*
X100024480Y-92529815D01*
X100003842Y-92513185D01*
X99946543Y-92455886D01*
X99931617Y-92445913D01*
X99831807Y-92379222D01*
X99704332Y-92326421D01*
X99704322Y-92326418D01*
X99568996Y-92299500D01*
X99568994Y-92299500D01*
X99431006Y-92299500D01*
X99431004Y-92299500D01*
X99295677Y-92326418D01*
X99295667Y-92326421D01*
X99168192Y-92379222D01*
X99053454Y-92455887D01*
X98955887Y-92553454D01*
X98879222Y-92668192D01*
X98826421Y-92795667D01*
X98826418Y-92795677D01*
X98799500Y-92931003D01*
X98799500Y-92931006D01*
X98799500Y-93068994D01*
X98799500Y-93068996D01*
X98799499Y-93068996D01*
X98826418Y-93204322D01*
X98826421Y-93204332D01*
X98879222Y-93331807D01*
X98879225Y-93331811D01*
X98955886Y-93446543D01*
X99205886Y-93696542D01*
X99303458Y-93794114D01*
X99303459Y-93794115D01*
X99418182Y-93870771D01*
X99418186Y-93870773D01*
X99418189Y-93870775D01*
X99492866Y-93901707D01*
X99545671Y-93923580D01*
X99572591Y-93928934D01*
X99669630Y-93948237D01*
X99681006Y-93950500D01*
X99681007Y-93950500D01*
X105678633Y-93950500D01*
X105745672Y-93970185D01*
X105766314Y-93986819D01*
X107840962Y-96061467D01*
X108323605Y-96544111D01*
X108323606Y-96544112D01*
X108438344Y-96620777D01*
X108565819Y-96673578D01*
X108565824Y-96673580D01*
X108568016Y-96674016D01*
X108569057Y-96674560D01*
X108571656Y-96675349D01*
X108571506Y-96675841D01*
X108584774Y-96682781D01*
X108603256Y-96686802D01*
X108628288Y-96705541D01*
X108629928Y-96706399D01*
X108631510Y-96707953D01*
X108763181Y-96839624D01*
X108796666Y-96900947D01*
X108799500Y-96927305D01*
X108799500Y-99181006D01*
X108799500Y-99318994D01*
X108799500Y-99318996D01*
X108799499Y-99318996D01*
X108826418Y-99454322D01*
X108826421Y-99454332D01*
X108879222Y-99581807D01*
X108955887Y-99696545D01*
X117753454Y-108494112D01*
X117868192Y-108570777D01*
X117988900Y-108620775D01*
X117995672Y-108623580D01*
X117995676Y-108623580D01*
X117995677Y-108623581D01*
X118131003Y-108650500D01*
X118131006Y-108650500D01*
X118131007Y-108650500D01*
X121965287Y-108650500D01*
X122012739Y-108659938D01*
X122045672Y-108673580D01*
X122045676Y-108673580D01*
X122045677Y-108673581D01*
X122181003Y-108700500D01*
X122181006Y-108700500D01*
X122318996Y-108700500D01*
X122410042Y-108682389D01*
X122454329Y-108673580D01*
X122581811Y-108620775D01*
X122696543Y-108544114D01*
X122794114Y-108446543D01*
X122870775Y-108331811D01*
X122923580Y-108204329D01*
X122948572Y-108078688D01*
X122950500Y-108068996D01*
X122950500Y-107931003D01*
X122923581Y-107795677D01*
X122923580Y-107795676D01*
X122923580Y-107795672D01*
X122923578Y-107795667D01*
X122870777Y-107668192D01*
X122794112Y-107553454D01*
X122646545Y-107405887D01*
X122531807Y-107329222D01*
X122404332Y-107276421D01*
X122404322Y-107276418D01*
X122268996Y-107249500D01*
X122268994Y-107249500D01*
X122268993Y-107249500D01*
X118541519Y-107249500D01*
X118474480Y-107229815D01*
X118453838Y-107213181D01*
X115884653Y-104643996D01*
X120824499Y-104643996D01*
X120851418Y-104779322D01*
X120851421Y-104779332D01*
X120904222Y-104906807D01*
X120980887Y-105021545D01*
X123453454Y-107494112D01*
X123568190Y-107570776D01*
X123666790Y-107611617D01*
X123695671Y-107623580D01*
X123695672Y-107623580D01*
X123695677Y-107623582D01*
X123722545Y-107628925D01*
X123722551Y-107628926D01*
X123722591Y-107628934D01*
X123812937Y-107646905D01*
X123831006Y-107650500D01*
X123831007Y-107650500D01*
X126158481Y-107650500D01*
X126225520Y-107670185D01*
X126246162Y-107686819D01*
X130603453Y-112044111D01*
X130603454Y-112044112D01*
X130718192Y-112120777D01*
X130845667Y-112173578D01*
X130845672Y-112173580D01*
X130845676Y-112173580D01*
X130845677Y-112173581D01*
X130981003Y-112200500D01*
X130981006Y-112200500D01*
X131118996Y-112200500D01*
X131235999Y-112177226D01*
X131254329Y-112173580D01*
X131381811Y-112120775D01*
X131496543Y-112044114D01*
X131594114Y-111946543D01*
X131670775Y-111831811D01*
X131723580Y-111704329D01*
X131744244Y-111600444D01*
X131750500Y-111568996D01*
X131750500Y-111431003D01*
X131723581Y-111295677D01*
X131723580Y-111295676D01*
X131723580Y-111295672D01*
X131709690Y-111262138D01*
X131670777Y-111168192D01*
X131594112Y-111053454D01*
X126946545Y-106405887D01*
X126831807Y-106329222D01*
X126704332Y-106276421D01*
X126704322Y-106276418D01*
X126568996Y-106249500D01*
X126568994Y-106249500D01*
X126568993Y-106249500D01*
X124241519Y-106249500D01*
X124174480Y-106229815D01*
X124153838Y-106213181D01*
X121971546Y-104030888D01*
X121971545Y-104030887D01*
X121856807Y-103954222D01*
X121729332Y-103901421D01*
X121729322Y-103901418D01*
X121593996Y-103874500D01*
X121593994Y-103874500D01*
X121456006Y-103874500D01*
X121456004Y-103874500D01*
X121320677Y-103901418D01*
X121320667Y-103901421D01*
X121193192Y-103954222D01*
X121078454Y-104030887D01*
X120980887Y-104128454D01*
X120904222Y-104243192D01*
X120851421Y-104370667D01*
X120851418Y-104370677D01*
X120824500Y-104506003D01*
X120824500Y-104506006D01*
X120824500Y-104643994D01*
X120824500Y-104643996D01*
X120824499Y-104643996D01*
X115884653Y-104643996D01*
X110236819Y-98996162D01*
X110203334Y-98934839D01*
X110200500Y-98908481D01*
X110200500Y-96516790D01*
X110173581Y-96381463D01*
X110173580Y-96381462D01*
X110173580Y-96381458D01*
X110126245Y-96267180D01*
X110120778Y-96253981D01*
X110120776Y-96253977D01*
X110120775Y-96253975D01*
X110067672Y-96174501D01*
X110057983Y-96160000D01*
X110044116Y-96139245D01*
X110044114Y-96139243D01*
X109360760Y-95455888D01*
X109360759Y-95455887D01*
X109246021Y-95379222D01*
X109118544Y-95326420D01*
X109118540Y-95326419D01*
X109116341Y-95325982D01*
X109115295Y-95325435D01*
X109112708Y-95324650D01*
X109112856Y-95324159D01*
X109054431Y-95293594D01*
X109052855Y-95292046D01*
X107581619Y-93820810D01*
X106972991Y-93212181D01*
X106939506Y-93150858D01*
X106944490Y-93081166D01*
X106986362Y-93025233D01*
X107051826Y-93000816D01*
X107060672Y-93000500D01*
X107065890Y-93000500D01*
X107065892Y-93000500D01*
X107193186Y-92966392D01*
X107307314Y-92900500D01*
X107400500Y-92807314D01*
X107466392Y-92693186D01*
X107500500Y-92565892D01*
X107500500Y-92434108D01*
X107466392Y-92306814D01*
X107400500Y-92192686D01*
X107400497Y-92192683D01*
X107396928Y-92186501D01*
X107380455Y-92118601D01*
X107403307Y-92052574D01*
X107458228Y-92009383D01*
X107504315Y-92000500D01*
X110900495Y-92000500D01*
X110967534Y-92020185D01*
X111013289Y-92072989D01*
X111023233Y-92142147D01*
X111020270Y-92156593D01*
X110999500Y-92234108D01*
X110999500Y-92365891D01*
X111033608Y-92493187D01*
X111045152Y-92513181D01*
X111099500Y-92607314D01*
X111099502Y-92607316D01*
X111192686Y-92700500D01*
X111202327Y-92706066D01*
X111228009Y-92725773D01*
X114483470Y-95981234D01*
X114516955Y-96042557D01*
X114511971Y-96112249D01*
X114470099Y-96168182D01*
X114404635Y-96192599D01*
X114379604Y-96191854D01*
X114137642Y-96160000D01*
X113862358Y-96160000D01*
X113589434Y-96195930D01*
X113323528Y-96267180D01*
X113069212Y-96372520D01*
X113069197Y-96372527D01*
X112830799Y-96510166D01*
X112702312Y-96608757D01*
X112702312Y-96608758D01*
X113637706Y-97544152D01*
X113621058Y-97551049D01*
X113490030Y-97638599D01*
X113378599Y-97750030D01*
X113291049Y-97881058D01*
X113284152Y-97897706D01*
X112348758Y-96962312D01*
X112348757Y-96962312D01*
X112250166Y-97090799D01*
X112112527Y-97329197D01*
X112112520Y-97329212D01*
X112007180Y-97583528D01*
X111935930Y-97849434D01*
X111900000Y-98122358D01*
X111900000Y-98397641D01*
X111935930Y-98670565D01*
X112007180Y-98936471D01*
X112112520Y-99190787D01*
X112112527Y-99190802D01*
X112250163Y-99429196D01*
X112348758Y-99557686D01*
X113284152Y-98622292D01*
X113291049Y-98638942D01*
X113378599Y-98769970D01*
X113490030Y-98881401D01*
X113621058Y-98968951D01*
X113637706Y-98975847D01*
X112702312Y-99911240D01*
X112830804Y-100009836D01*
X113069197Y-100147472D01*
X113069212Y-100147479D01*
X113323528Y-100252819D01*
X113589434Y-100324069D01*
X113862358Y-100360000D01*
X114137642Y-100360000D01*
X114410565Y-100324069D01*
X114676471Y-100252819D01*
X114930787Y-100147479D01*
X114930802Y-100147472D01*
X115169194Y-100009836D01*
X115169211Y-100009825D01*
X115297686Y-99911241D01*
X115297686Y-99911239D01*
X114362293Y-98975847D01*
X114378942Y-98968951D01*
X114509970Y-98881401D01*
X114621401Y-98769970D01*
X114708951Y-98638942D01*
X114715847Y-98622293D01*
X115651239Y-99557686D01*
X115651241Y-99557686D01*
X115749825Y-99429211D01*
X115749836Y-99429194D01*
X115887472Y-99190802D01*
X115887479Y-99190787D01*
X115992819Y-98936471D01*
X116064069Y-98670565D01*
X116100000Y-98397641D01*
X116100000Y-98122358D01*
X116068145Y-97880395D01*
X116078911Y-97811360D01*
X116125291Y-97759104D01*
X116192560Y-97740219D01*
X116259360Y-97760700D01*
X116278765Y-97776529D01*
X122362725Y-103860489D01*
X122362726Y-103860490D01*
X122362728Y-103860491D01*
X122422032Y-103894729D01*
X122422035Y-103894732D01*
X122456276Y-103914500D01*
X122465453Y-103919799D01*
X122580030Y-103950500D01*
X147810352Y-103950500D01*
X147877391Y-103970185D01*
X147898033Y-103986819D01*
X150010047Y-106098833D01*
X150037321Y-106146071D01*
X150038657Y-106145518D01*
X150041768Y-106153028D01*
X150041769Y-106153030D01*
X150107661Y-106267158D01*
X150200847Y-106360344D01*
X150274925Y-106403113D01*
X150323140Y-106453681D01*
X150336362Y-106522288D01*
X150310394Y-106587152D01*
X150253480Y-106627680D01*
X150212924Y-106634500D01*
X148983937Y-106634500D01*
X148931249Y-106620381D01*
X148930696Y-106621719D01*
X148923188Y-106618609D01*
X148923186Y-106618608D01*
X148795892Y-106584500D01*
X148664108Y-106584500D01*
X148536812Y-106618608D01*
X148422686Y-106684500D01*
X148422683Y-106684502D01*
X148329502Y-106777683D01*
X148329500Y-106777686D01*
X148263608Y-106891812D01*
X148229500Y-107019108D01*
X148229500Y-107150891D01*
X148263608Y-107278187D01*
X148266628Y-107283417D01*
X148329500Y-107392314D01*
X148422686Y-107485500D01*
X148521521Y-107542563D01*
X148531425Y-107548281D01*
X148536814Y-107551392D01*
X148664108Y-107585500D01*
X148664110Y-107585500D01*
X148795890Y-107585500D01*
X148795892Y-107585500D01*
X148923186Y-107551392D01*
X148923194Y-107551387D01*
X148930696Y-107548281D01*
X148931249Y-107549618D01*
X148983937Y-107535500D01*
X153376063Y-107535500D01*
X153428750Y-107549618D01*
X153429304Y-107548281D01*
X153436807Y-107551388D01*
X153436814Y-107551392D01*
X153564108Y-107585500D01*
X153564110Y-107585500D01*
X153695890Y-107585500D01*
X153695892Y-107585500D01*
X153823186Y-107551392D01*
X153937314Y-107485500D01*
X154030500Y-107392314D01*
X154096392Y-107278186D01*
X154130500Y-107150892D01*
X154130500Y-107019108D01*
X154096392Y-106891814D01*
X154030500Y-106777686D01*
X153937314Y-106684500D01*
X153850712Y-106634500D01*
X153823187Y-106618608D01*
X153705789Y-106587152D01*
X153695892Y-106584500D01*
X153564108Y-106584500D01*
X153436814Y-106618608D01*
X153429304Y-106621719D01*
X153428750Y-106620381D01*
X153376063Y-106634500D01*
X150803398Y-106634500D01*
X150736359Y-106614815D01*
X150690604Y-106562011D01*
X150680660Y-106492853D01*
X150709685Y-106429297D01*
X150741397Y-106403113D01*
X150815475Y-106360344D01*
X150908661Y-106267158D01*
X150974553Y-106153030D01*
X151008661Y-106025736D01*
X151008661Y-105944150D01*
X151028346Y-105877111D01*
X151081150Y-105831356D01*
X151150308Y-105821412D01*
X151213864Y-105850437D01*
X151220342Y-105856469D01*
X151228161Y-105864288D01*
X151342289Y-105930180D01*
X151469583Y-105964288D01*
X151469585Y-105964288D01*
X151601365Y-105964288D01*
X151601367Y-105964288D01*
X151728661Y-105930180D01*
X151842789Y-105864288D01*
X151935975Y-105771102D01*
X152001867Y-105656974D01*
X152035975Y-105529680D01*
X152035975Y-105397896D01*
X152001867Y-105270602D01*
X151935975Y-105156474D01*
X151842789Y-105063288D01*
X151728661Y-104997396D01*
X151632125Y-104971529D01*
X151576539Y-104939436D01*
X149076616Y-102439513D01*
X149076614Y-102439511D01*
X149025250Y-102409856D01*
X148973888Y-102380201D01*
X148961780Y-102376957D01*
X148949673Y-102373713D01*
X148949670Y-102373712D01*
X148911478Y-102363478D01*
X148859309Y-102349500D01*
X148859308Y-102349500D01*
X123237965Y-102349500D01*
X123170926Y-102329815D01*
X123150284Y-102313181D01*
X118973633Y-98136530D01*
X163449500Y-98136530D01*
X163449500Y-98343469D01*
X163489868Y-98546412D01*
X163489870Y-98546420D01*
X163569058Y-98737596D01*
X163684024Y-98909657D01*
X163830342Y-99055975D01*
X163830345Y-99055977D01*
X164002402Y-99170941D01*
X164193580Y-99250130D01*
X164396530Y-99290499D01*
X164396534Y-99290500D01*
X164396535Y-99290500D01*
X164603466Y-99290500D01*
X164603467Y-99290499D01*
X164806420Y-99250130D01*
X164997598Y-99170941D01*
X165169655Y-99055977D01*
X165315977Y-98909655D01*
X165430941Y-98737598D01*
X165510130Y-98546420D01*
X165550500Y-98343465D01*
X165550500Y-98136535D01*
X165510130Y-97933580D01*
X165430941Y-97742402D01*
X165315977Y-97570345D01*
X165315975Y-97570342D01*
X165169657Y-97424024D01*
X165027737Y-97329197D01*
X164997598Y-97309059D01*
X164806420Y-97229870D01*
X164806412Y-97229868D01*
X164603469Y-97189500D01*
X164603465Y-97189500D01*
X164396535Y-97189500D01*
X164396530Y-97189500D01*
X164193587Y-97229868D01*
X164193579Y-97229870D01*
X164002403Y-97309058D01*
X163830342Y-97424024D01*
X163684024Y-97570342D01*
X163569058Y-97742403D01*
X163489870Y-97933579D01*
X163489868Y-97933587D01*
X163449500Y-98136530D01*
X118973633Y-98136530D01*
X116433633Y-95596530D01*
X163449500Y-95596530D01*
X163449500Y-95803469D01*
X163489868Y-96006412D01*
X163489870Y-96006420D01*
X163569058Y-96197596D01*
X163684024Y-96369657D01*
X163830342Y-96515975D01*
X163830345Y-96515977D01*
X164002402Y-96630941D01*
X164193580Y-96710130D01*
X164396530Y-96750499D01*
X164396534Y-96750500D01*
X164396535Y-96750500D01*
X164603466Y-96750500D01*
X164603467Y-96750499D01*
X164806420Y-96710130D01*
X164997598Y-96630941D01*
X165169655Y-96515977D01*
X165315977Y-96369655D01*
X165430941Y-96197598D01*
X165510130Y-96006420D01*
X165550500Y-95803465D01*
X165550500Y-95596535D01*
X165510130Y-95393580D01*
X165430941Y-95202402D01*
X165315977Y-95030345D01*
X165315975Y-95030342D01*
X165169657Y-94884024D01*
X165065354Y-94814332D01*
X164997598Y-94769059D01*
X164806420Y-94689870D01*
X164806412Y-94689868D01*
X164603469Y-94649500D01*
X164603465Y-94649500D01*
X164396535Y-94649500D01*
X164396530Y-94649500D01*
X164193587Y-94689868D01*
X164193579Y-94689870D01*
X164002403Y-94769058D01*
X163830342Y-94884024D01*
X163684024Y-95030342D01*
X163569058Y-95202403D01*
X163489870Y-95393579D01*
X163489868Y-95393587D01*
X163449500Y-95596530D01*
X116433633Y-95596530D01*
X113049284Y-92212181D01*
X113015799Y-92150858D01*
X113020783Y-92081166D01*
X113062655Y-92025233D01*
X113128119Y-92000816D01*
X113136965Y-92000500D01*
X162581324Y-92000500D01*
X162648363Y-92020185D01*
X162669005Y-92036819D01*
X163442322Y-92810136D01*
X163475807Y-92871459D01*
X163476258Y-92922008D01*
X163449500Y-93056530D01*
X163449500Y-93263469D01*
X163485916Y-93446543D01*
X163489870Y-93466420D01*
X163569059Y-93657598D01*
X163626541Y-93743626D01*
X163684024Y-93829657D01*
X163830342Y-93975975D01*
X163830345Y-93975977D01*
X164002402Y-94090941D01*
X164193580Y-94170130D01*
X164396530Y-94210499D01*
X164396534Y-94210500D01*
X164396535Y-94210500D01*
X164603466Y-94210500D01*
X164603467Y-94210499D01*
X164806420Y-94170130D01*
X164997598Y-94090941D01*
X165169655Y-93975977D01*
X165315977Y-93829655D01*
X165430941Y-93657598D01*
X165510130Y-93466420D01*
X165550500Y-93263465D01*
X165550500Y-93056535D01*
X165510130Y-92853580D01*
X165430941Y-92662402D01*
X165315977Y-92490345D01*
X165315975Y-92490342D01*
X165169657Y-92344024D01*
X165005154Y-92234108D01*
X164997598Y-92229059D01*
X164909786Y-92192686D01*
X164806420Y-92149870D01*
X164806412Y-92149868D01*
X164603469Y-92109500D01*
X164603465Y-92109500D01*
X164396535Y-92109500D01*
X164396530Y-92109500D01*
X164262008Y-92136258D01*
X164192416Y-92130031D01*
X164150136Y-92102322D01*
X163676187Y-91628373D01*
X163642702Y-91567050D01*
X163647686Y-91497358D01*
X163689558Y-91441425D01*
X163755022Y-91417008D01*
X163823295Y-91431860D01*
X163832758Y-91437590D01*
X164002400Y-91550940D01*
X164002401Y-91550940D01*
X164002402Y-91550941D01*
X164193580Y-91630130D01*
X164396530Y-91670499D01*
X164396534Y-91670500D01*
X164396535Y-91670500D01*
X164603466Y-91670500D01*
X164603467Y-91670499D01*
X164806420Y-91630130D01*
X164997598Y-91550941D01*
X165169655Y-91435977D01*
X165315977Y-91289655D01*
X165430941Y-91117598D01*
X165510130Y-90926420D01*
X165550500Y-90723465D01*
X165550500Y-90516535D01*
X165510130Y-90313580D01*
X165430941Y-90122402D01*
X165315977Y-89950345D01*
X165315975Y-89950342D01*
X165169657Y-89804024D01*
X165083626Y-89746541D01*
X164997598Y-89689059D01*
X164806420Y-89609870D01*
X164806412Y-89609868D01*
X164603469Y-89569500D01*
X164603465Y-89569500D01*
X164396535Y-89569500D01*
X164396530Y-89569500D01*
X164262008Y-89596258D01*
X164192416Y-89590031D01*
X164150136Y-89562322D01*
X163676187Y-89088373D01*
X163642702Y-89027050D01*
X163647686Y-88957358D01*
X163689558Y-88901425D01*
X163755022Y-88877008D01*
X163823295Y-88891860D01*
X163832758Y-88897590D01*
X164002400Y-89010940D01*
X164002401Y-89010940D01*
X164002402Y-89010941D01*
X164193580Y-89090130D01*
X164375023Y-89126221D01*
X164396530Y-89130499D01*
X164396534Y-89130500D01*
X164396535Y-89130500D01*
X164603466Y-89130500D01*
X164603467Y-89130499D01*
X164806420Y-89090130D01*
X164997598Y-89010941D01*
X165169655Y-88895977D01*
X165315977Y-88749655D01*
X165430941Y-88577598D01*
X165510130Y-88386420D01*
X165550500Y-88183465D01*
X165550500Y-87976535D01*
X165510130Y-87773580D01*
X165430941Y-87582402D01*
X165315977Y-87410345D01*
X165315975Y-87410342D01*
X165169657Y-87264024D01*
X165077920Y-87202728D01*
X164997598Y-87149059D01*
X164982376Y-87142754D01*
X164806420Y-87069870D01*
X164806412Y-87069868D01*
X164603469Y-87029500D01*
X164603465Y-87029500D01*
X164396535Y-87029500D01*
X164396530Y-87029500D01*
X164193587Y-87069868D01*
X164193579Y-87069870D01*
X164002403Y-87149058D01*
X163830342Y-87264024D01*
X163684024Y-87410342D01*
X163660677Y-87445285D01*
X163607819Y-87524391D01*
X163601730Y-87529481D01*
X163598432Y-87536703D01*
X163575303Y-87551566D01*
X163554210Y-87569195D01*
X163544835Y-87571146D01*
X163539654Y-87574477D01*
X163504719Y-87579500D01*
X163404360Y-87579500D01*
X163337321Y-87559815D01*
X163316679Y-87543181D01*
X162025679Y-86252181D01*
X161992194Y-86190858D01*
X161997178Y-86121166D01*
X162039050Y-86065233D01*
X162104514Y-86040816D01*
X162113360Y-86040500D01*
X163504719Y-86040500D01*
X163571758Y-86060185D01*
X163607819Y-86095607D01*
X163663656Y-86179174D01*
X163684024Y-86209657D01*
X163830342Y-86355975D01*
X163830345Y-86355977D01*
X164002402Y-86470941D01*
X164193580Y-86550130D01*
X164364395Y-86584107D01*
X164396530Y-86590499D01*
X164396534Y-86590500D01*
X164396535Y-86590500D01*
X164603466Y-86590500D01*
X164603467Y-86590499D01*
X164806420Y-86550130D01*
X164997598Y-86470941D01*
X165169655Y-86355977D01*
X165315977Y-86209655D01*
X165430941Y-86037598D01*
X165510130Y-85846420D01*
X165550500Y-85643465D01*
X165550500Y-85436535D01*
X165510130Y-85233580D01*
X165430941Y-85042402D01*
X165315977Y-84870345D01*
X165315975Y-84870342D01*
X165169657Y-84724024D01*
X165015111Y-84620761D01*
X164997598Y-84609059D01*
X164954777Y-84591322D01*
X164806420Y-84529870D01*
X164806412Y-84529868D01*
X164603469Y-84489500D01*
X164603465Y-84489500D01*
X164396535Y-84489500D01*
X164396530Y-84489500D01*
X164193587Y-84529868D01*
X164193579Y-84529870D01*
X164002403Y-84609058D01*
X163830342Y-84724024D01*
X163684024Y-84870342D01*
X163644292Y-84929806D01*
X163607819Y-84984391D01*
X163554210Y-85029195D01*
X163504719Y-85039500D01*
X162446874Y-85039500D01*
X162379835Y-85019815D01*
X162334080Y-84967011D01*
X162324136Y-84897853D01*
X162339487Y-84853499D01*
X162371464Y-84798114D01*
X162405572Y-84670820D01*
X162405572Y-84539036D01*
X162371464Y-84411742D01*
X162305572Y-84297614D01*
X160457458Y-82449500D01*
X160368580Y-82398186D01*
X160343331Y-82383608D01*
X160279683Y-82366554D01*
X160216036Y-82349500D01*
X160216035Y-82349500D01*
X123740048Y-82349500D01*
X123673009Y-82329815D01*
X123652367Y-82313181D01*
X120951367Y-79612181D01*
X120924051Y-79562155D01*
X163150000Y-79562155D01*
X163150000Y-80210000D01*
X164066988Y-80210000D01*
X164034075Y-80267007D01*
X164000000Y-80394174D01*
X164000000Y-80525826D01*
X164034075Y-80652993D01*
X164066988Y-80710000D01*
X163150000Y-80710000D01*
X163150000Y-81357844D01*
X163156401Y-81417372D01*
X163156403Y-81417379D01*
X163206645Y-81552086D01*
X163206649Y-81552093D01*
X163292809Y-81667187D01*
X163292812Y-81667190D01*
X163407906Y-81753350D01*
X163407913Y-81753354D01*
X163542620Y-81803596D01*
X163542627Y-81803598D01*
X163602155Y-81809999D01*
X163602172Y-81810000D01*
X164004435Y-81810000D01*
X164071474Y-81829685D01*
X164117229Y-81882489D01*
X164127173Y-81951647D01*
X164098148Y-82015203D01*
X164051888Y-82048561D01*
X164002403Y-82069058D01*
X163830342Y-82184024D01*
X163684024Y-82330342D01*
X163569058Y-82502403D01*
X163489870Y-82693579D01*
X163489868Y-82693587D01*
X163449500Y-82896530D01*
X163449500Y-83103469D01*
X163489868Y-83306412D01*
X163489870Y-83306420D01*
X163569058Y-83497596D01*
X163684024Y-83669657D01*
X163830342Y-83815975D01*
X163830345Y-83815977D01*
X164002402Y-83930941D01*
X164193580Y-84010130D01*
X164396530Y-84050499D01*
X164396534Y-84050500D01*
X164396535Y-84050500D01*
X164603466Y-84050500D01*
X164603467Y-84050499D01*
X164806420Y-84010130D01*
X164997598Y-83930941D01*
X165169655Y-83815977D01*
X165315977Y-83669655D01*
X165430941Y-83497598D01*
X165510130Y-83306420D01*
X165550500Y-83103465D01*
X165550500Y-82896535D01*
X165510130Y-82693580D01*
X165430941Y-82502402D01*
X165315977Y-82330345D01*
X165315975Y-82330342D01*
X165169657Y-82184024D01*
X165083626Y-82126541D01*
X164997598Y-82069059D01*
X164948112Y-82048561D01*
X164893709Y-82004720D01*
X164871644Y-81938426D01*
X164888923Y-81870726D01*
X164940061Y-81823116D01*
X164995565Y-81810000D01*
X165397828Y-81810000D01*
X165397844Y-81809999D01*
X165457372Y-81803598D01*
X165457379Y-81803596D01*
X165592086Y-81753354D01*
X165592093Y-81753350D01*
X165707187Y-81667190D01*
X165707190Y-81667187D01*
X165793350Y-81552093D01*
X165793354Y-81552086D01*
X165843596Y-81417379D01*
X165843598Y-81417372D01*
X165849999Y-81357844D01*
X165850000Y-81357827D01*
X165850000Y-80710000D01*
X164933012Y-80710000D01*
X164965925Y-80652993D01*
X165000000Y-80525826D01*
X165000000Y-80394174D01*
X164965925Y-80267007D01*
X164933012Y-80210000D01*
X165850000Y-80210000D01*
X165850000Y-79562172D01*
X165849999Y-79562155D01*
X165843598Y-79502627D01*
X165843596Y-79502620D01*
X165793354Y-79367913D01*
X165793350Y-79367906D01*
X165707190Y-79252812D01*
X165707187Y-79252809D01*
X165592093Y-79166649D01*
X165592086Y-79166645D01*
X165457379Y-79116403D01*
X165457372Y-79116401D01*
X165397844Y-79110000D01*
X164750000Y-79110000D01*
X164750000Y-80026988D01*
X164692993Y-79994075D01*
X164565826Y-79960000D01*
X164434174Y-79960000D01*
X164307007Y-79994075D01*
X164250000Y-80026988D01*
X164250000Y-79110000D01*
X163602155Y-79110000D01*
X163542627Y-79116401D01*
X163542620Y-79116403D01*
X163407913Y-79166645D01*
X163407906Y-79166649D01*
X163292812Y-79252809D01*
X163292809Y-79252812D01*
X163206649Y-79367906D01*
X163206645Y-79367913D01*
X163156403Y-79502620D01*
X163156401Y-79502627D01*
X163150000Y-79562155D01*
X120924051Y-79562155D01*
X120917882Y-79550858D01*
X120922866Y-79481166D01*
X120964738Y-79425233D01*
X121030202Y-79400816D01*
X121039048Y-79400500D01*
X133401253Y-79400500D01*
X133401255Y-79400500D01*
X133503116Y-79373207D01*
X133594441Y-79320480D01*
X144490850Y-68424071D01*
X151350000Y-68424071D01*
X151350000Y-68675928D01*
X151389397Y-68924669D01*
X151467219Y-69164184D01*
X151581557Y-69388583D01*
X151655748Y-69490697D01*
X151655748Y-69490698D01*
X152310690Y-68835756D01*
X152329668Y-68881574D01*
X152406274Y-68996224D01*
X152503776Y-69093726D01*
X152618426Y-69170332D01*
X152664242Y-69189309D01*
X152009300Y-69844250D01*
X152111416Y-69918442D01*
X152335815Y-70032780D01*
X152575330Y-70110602D01*
X152824072Y-70150000D01*
X153075928Y-70150000D01*
X153324669Y-70110602D01*
X153564184Y-70032780D01*
X153788575Y-69918446D01*
X153788581Y-69918442D01*
X153890697Y-69844250D01*
X153890698Y-69844250D01*
X153235757Y-69189309D01*
X153281574Y-69170332D01*
X153396224Y-69093726D01*
X153493726Y-68996224D01*
X153570332Y-68881574D01*
X153589309Y-68835757D01*
X154244250Y-69490698D01*
X154244250Y-69490697D01*
X154318442Y-69388581D01*
X154318446Y-69388575D01*
X154432780Y-69164184D01*
X154510602Y-68924669D01*
X154550000Y-68675928D01*
X154550000Y-68424071D01*
X156450000Y-68424071D01*
X156450000Y-68675928D01*
X156489397Y-68924669D01*
X156567219Y-69164184D01*
X156681557Y-69388583D01*
X156755748Y-69490697D01*
X156755748Y-69490698D01*
X157410690Y-68835756D01*
X157429668Y-68881574D01*
X157506274Y-68996224D01*
X157603776Y-69093726D01*
X157718426Y-69170332D01*
X157764242Y-69189309D01*
X157109300Y-69844250D01*
X157211416Y-69918442D01*
X157435815Y-70032780D01*
X157675330Y-70110602D01*
X157924072Y-70150000D01*
X158175928Y-70150000D01*
X158424669Y-70110602D01*
X158664184Y-70032780D01*
X158888575Y-69918446D01*
X158888581Y-69918442D01*
X158990697Y-69844250D01*
X158990698Y-69844250D01*
X158335757Y-69189309D01*
X158381574Y-69170332D01*
X158496224Y-69093726D01*
X158593726Y-68996224D01*
X158670332Y-68881574D01*
X158689309Y-68835757D01*
X159344250Y-69490698D01*
X159344250Y-69490697D01*
X159418442Y-69388581D01*
X159418446Y-69388575D01*
X159532780Y-69164184D01*
X159610602Y-68924669D01*
X159650000Y-68675928D01*
X159650000Y-68424071D01*
X159610602Y-68175330D01*
X159532780Y-67935815D01*
X159418442Y-67711416D01*
X159344250Y-67609301D01*
X159344250Y-67609300D01*
X158689309Y-68264241D01*
X158670332Y-68218426D01*
X158593726Y-68103776D01*
X158496224Y-68006274D01*
X158381574Y-67929668D01*
X158335755Y-67910689D01*
X158990698Y-67255748D01*
X158888583Y-67181557D01*
X158664184Y-67067219D01*
X158424669Y-66989397D01*
X158175928Y-66950000D01*
X157924072Y-66950000D01*
X157675330Y-66989397D01*
X157435815Y-67067219D01*
X157211413Y-67181559D01*
X157109301Y-67255747D01*
X157109300Y-67255748D01*
X157764242Y-67910690D01*
X157718426Y-67929668D01*
X157603776Y-68006274D01*
X157506274Y-68103776D01*
X157429668Y-68218426D01*
X157410690Y-68264242D01*
X156755748Y-67609300D01*
X156755747Y-67609301D01*
X156681559Y-67711413D01*
X156567219Y-67935815D01*
X156489397Y-68175330D01*
X156450000Y-68424071D01*
X154550000Y-68424071D01*
X154510602Y-68175330D01*
X154432780Y-67935815D01*
X154318442Y-67711416D01*
X154244250Y-67609301D01*
X154244250Y-67609300D01*
X153589309Y-68264241D01*
X153570332Y-68218426D01*
X153493726Y-68103776D01*
X153396224Y-68006274D01*
X153281574Y-67929668D01*
X153235755Y-67910689D01*
X153890698Y-67255748D01*
X153788583Y-67181557D01*
X153564184Y-67067219D01*
X153324669Y-66989397D01*
X153075928Y-66950000D01*
X152824072Y-66950000D01*
X152575330Y-66989397D01*
X152335815Y-67067219D01*
X152111413Y-67181559D01*
X152009301Y-67255747D01*
X152009300Y-67255748D01*
X152664242Y-67910690D01*
X152618426Y-67929668D01*
X152503776Y-68006274D01*
X152406274Y-68103776D01*
X152329668Y-68218426D01*
X152310690Y-68264242D01*
X151655748Y-67609300D01*
X151655747Y-67609301D01*
X151581559Y-67711413D01*
X151467219Y-67935815D01*
X151389397Y-68175330D01*
X151350000Y-68424071D01*
X144490850Y-68424071D01*
X147208102Y-65706819D01*
X147269425Y-65673334D01*
X147295783Y-65670500D01*
X148159460Y-65670500D01*
X148221460Y-65687113D01*
X148244647Y-65700500D01*
X148306814Y-65736392D01*
X148434108Y-65770500D01*
X148434110Y-65770500D01*
X148565890Y-65770500D01*
X148565892Y-65770500D01*
X148693186Y-65736392D01*
X148807314Y-65670500D01*
X148900500Y-65577314D01*
X148966392Y-65463186D01*
X149000500Y-65335892D01*
X149000500Y-65204108D01*
X148966392Y-65076814D01*
X148900500Y-64962686D01*
X148807314Y-64869500D01*
X148694520Y-64804378D01*
X148694519Y-64804377D01*
X148693188Y-64803608D01*
X148608323Y-64780869D01*
X148565892Y-64769500D01*
X148434108Y-64769500D01*
X148306814Y-64803608D01*
X148306813Y-64803608D01*
X148306811Y-64803609D01*
X148306810Y-64803609D01*
X148221460Y-64852887D01*
X148215558Y-64854318D01*
X148210971Y-64858294D01*
X148159460Y-64869500D01*
X147496255Y-64869500D01*
X147429216Y-64849815D01*
X147383461Y-64797011D01*
X147373517Y-64727853D01*
X147402542Y-64664297D01*
X147408574Y-64657819D01*
X147629574Y-64436819D01*
X147690897Y-64403334D01*
X147717255Y-64400500D01*
X148159460Y-64400500D01*
X148168687Y-64402972D01*
X148177107Y-64401762D01*
X148195474Y-64410150D01*
X148221460Y-64417113D01*
X148306814Y-64466392D01*
X148434108Y-64500500D01*
X148434110Y-64500500D01*
X148565890Y-64500500D01*
X148565892Y-64500500D01*
X148693186Y-64466392D01*
X148807314Y-64400500D01*
X148900500Y-64307314D01*
X148966392Y-64193186D01*
X149000500Y-64065892D01*
X149000500Y-63934108D01*
X148966392Y-63806814D01*
X148900500Y-63692686D01*
X148807314Y-63599500D01*
X148733380Y-63556814D01*
X148693187Y-63533608D01*
X148629539Y-63516554D01*
X148565892Y-63499500D01*
X148434108Y-63499500D01*
X148306814Y-63533608D01*
X148306813Y-63533608D01*
X148306811Y-63533609D01*
X148306810Y-63533609D01*
X148221460Y-63582887D01*
X148159460Y-63599500D01*
X147447273Y-63599500D01*
X147345410Y-63626793D01*
X147254087Y-63679520D01*
X147254084Y-63679522D01*
X132970426Y-77963181D01*
X132909103Y-77996666D01*
X132882745Y-77999500D01*
X119901447Y-77999500D01*
X119895522Y-77998418D01*
X119892106Y-77999148D01*
X119869752Y-77993719D01*
X119869692Y-77994034D01*
X119866569Y-77993432D01*
X119866410Y-77994029D01*
X119865164Y-77993695D01*
X119860961Y-77992296D01*
X119853816Y-77990654D01*
X119799257Y-77976035D01*
X119799257Y-77976034D01*
X119756209Y-77964500D01*
X119756204Y-77964499D01*
X119259160Y-77964497D01*
X119259158Y-77964497D01*
X119259157Y-77964497D01*
X119153703Y-77964497D01*
X119145459Y-77964497D01*
X119145415Y-77964500D01*
X113663592Y-77964500D01*
X113504860Y-77964497D01*
X113484520Y-77962817D01*
X113475236Y-77961273D01*
X113475234Y-77961273D01*
X113461533Y-77962605D01*
X113448078Y-77963914D01*
X113436091Y-77964496D01*
X113408810Y-77964496D01*
X113408798Y-77964499D01*
X113400703Y-77964500D01*
X113400700Y-77964499D01*
X113400689Y-77964500D01*
X112588676Y-77964500D01*
X112521637Y-77944815D01*
X112500995Y-77928181D01*
X112472316Y-77899502D01*
X112472314Y-77899500D01*
X112415250Y-77866554D01*
X112358187Y-77833608D01*
X112294539Y-77816554D01*
X112230892Y-77799500D01*
X112099108Y-77799500D01*
X111971812Y-77833608D01*
X111857686Y-77899500D01*
X111857683Y-77899502D01*
X111764502Y-77992683D01*
X111764500Y-77992686D01*
X111698608Y-78106812D01*
X111664500Y-78234108D01*
X111664500Y-78374019D01*
X111661341Y-78374019D01*
X111652869Y-78428348D01*
X111606490Y-78480605D01*
X111540695Y-78499500D01*
X111434108Y-78499500D01*
X111306812Y-78533608D01*
X111192686Y-78599500D01*
X111192683Y-78599502D01*
X111099502Y-78692683D01*
X111099500Y-78692686D01*
X111033608Y-78806812D01*
X110999500Y-78934108D01*
X110999500Y-79065891D01*
X111033608Y-79193187D01*
X111038270Y-79201261D01*
X111099500Y-79307314D01*
X111192686Y-79400500D01*
X111291521Y-79457563D01*
X111306810Y-79466390D01*
X111306814Y-79466392D01*
X111434108Y-79500500D01*
X111434110Y-79500500D01*
X111565890Y-79500500D01*
X111565892Y-79500500D01*
X111693186Y-79466392D01*
X111749613Y-79433814D01*
X111778540Y-79417113D01*
X111840540Y-79400500D01*
X113391117Y-79400500D01*
X113458156Y-79420185D01*
X113503911Y-79472989D01*
X113513855Y-79542147D01*
X113510892Y-79556589D01*
X113499500Y-79599108D01*
X113499500Y-79730892D01*
X113502243Y-79741128D01*
X113533608Y-79858187D01*
X113534486Y-79859707D01*
X113599500Y-79972314D01*
X113692686Y-80065500D01*
X113806814Y-80131392D01*
X113934108Y-80165500D01*
X118906324Y-80165500D01*
X118935764Y-80174144D01*
X118965751Y-80180668D01*
X118970766Y-80184422D01*
X118973363Y-80185185D01*
X118994005Y-80201819D01*
X119015005Y-80222819D01*
X119048490Y-80284142D01*
X119043506Y-80353834D01*
X119001634Y-80409767D01*
X118936170Y-80434184D01*
X118927324Y-80434500D01*
X113934108Y-80434500D01*
X113806812Y-80468608D01*
X113692686Y-80534500D01*
X113692683Y-80534502D01*
X113599502Y-80627683D01*
X113599500Y-80627686D01*
X113533608Y-80741812D01*
X113508071Y-80837119D01*
X113499500Y-80869108D01*
X113499500Y-81000892D01*
X113512524Y-81049500D01*
X113533608Y-81128187D01*
X113566554Y-81185250D01*
X113599500Y-81242314D01*
X113692686Y-81335500D01*
X113806814Y-81401392D01*
X113934108Y-81435500D01*
X119044954Y-81435500D01*
X119074394Y-81444144D01*
X119104381Y-81450668D01*
X119109396Y-81454422D01*
X119111993Y-81455185D01*
X119132635Y-81471819D01*
X119153635Y-81492819D01*
X119187120Y-81554142D01*
X119182136Y-81623834D01*
X119140264Y-81679767D01*
X119074800Y-81704184D01*
X119065954Y-81704500D01*
X113934108Y-81704500D01*
X113806812Y-81738608D01*
X113692686Y-81804500D01*
X113692683Y-81804502D01*
X113599502Y-81897683D01*
X113599500Y-81897686D01*
X113533608Y-82011812D01*
X113518269Y-82069059D01*
X113499500Y-82139108D01*
X113499500Y-82270892D01*
X113507803Y-82301880D01*
X113533608Y-82398187D01*
X113554347Y-82434107D01*
X113599500Y-82512314D01*
X113692686Y-82605500D01*
X113806814Y-82671392D01*
X113934108Y-82705500D01*
X119183584Y-82705500D01*
X119250623Y-82725185D01*
X119271265Y-82741819D01*
X122082419Y-85552972D01*
X122082429Y-85552983D01*
X122086759Y-85557313D01*
X122086760Y-85557314D01*
X122179946Y-85650500D01*
X122277997Y-85707110D01*
X122294074Y-85716392D01*
X122421367Y-85750500D01*
X122421368Y-85750500D01*
X144353343Y-85750500D01*
X144420382Y-85770185D01*
X144466137Y-85822989D01*
X144476081Y-85892147D01*
X144464436Y-85925790D01*
X144465446Y-85926209D01*
X144462335Y-85933720D01*
X144462334Y-85933722D01*
X144462334Y-85933723D01*
X144428226Y-86061017D01*
X144428226Y-86192801D01*
X144432742Y-86209655D01*
X144462334Y-86320096D01*
X144495280Y-86377159D01*
X144528226Y-86434223D01*
X144621412Y-86527409D01*
X144735540Y-86593301D01*
X144735542Y-86593301D01*
X144743052Y-86596413D01*
X144742232Y-86598391D01*
X144792242Y-86628863D01*
X144822780Y-86691706D01*
X144824500Y-86712285D01*
X144824500Y-86806517D01*
X144833010Y-86860248D01*
X144839354Y-86900304D01*
X144896950Y-87013342D01*
X144896952Y-87013344D01*
X144896953Y-87013346D01*
X144938680Y-87055072D01*
X144972166Y-87116395D01*
X144975000Y-87142754D01*
X144975000Y-88974999D01*
X144998308Y-88974999D01*
X144998322Y-88974998D01*
X145097607Y-88964855D01*
X145258481Y-88911547D01*
X145258492Y-88911542D01*
X145402728Y-88822575D01*
X145402732Y-88822572D01*
X145522573Y-88702731D01*
X145584606Y-88602160D01*
X145636554Y-88555435D01*
X145705516Y-88544212D01*
X145769599Y-88572056D01*
X145777826Y-88579575D01*
X145796774Y-88598523D01*
X145796778Y-88598526D01*
X145796780Y-88598528D01*
X145916874Y-88659719D01*
X145916876Y-88659719D01*
X145916878Y-88659720D01*
X146016507Y-88675500D01*
X146016512Y-88675500D01*
X146533493Y-88675500D01*
X146633121Y-88659720D01*
X146633121Y-88659719D01*
X146633126Y-88659719D01*
X146753220Y-88598528D01*
X146848528Y-88503220D01*
X146909719Y-88383126D01*
X146909720Y-88383121D01*
X146925500Y-88283493D01*
X146925500Y-88134944D01*
X146929725Y-88102851D01*
X146931029Y-88097986D01*
X146952492Y-88017884D01*
X146952492Y-87886100D01*
X146929725Y-87801131D01*
X146926918Y-87787734D01*
X146925500Y-87778436D01*
X146925500Y-87716512D01*
X146909719Y-87616874D01*
X146897073Y-87592056D01*
X146894058Y-87572282D01*
X146896164Y-87556683D01*
X146893259Y-87541212D01*
X146900744Y-87522767D01*
X146903409Y-87503041D01*
X146913614Y-87491057D01*
X146919535Y-87476471D01*
X146935806Y-87465000D01*
X146948711Y-87449848D01*
X146963773Y-87445285D01*
X146976641Y-87436214D01*
X146996531Y-87435361D01*
X147015580Y-87429591D01*
X147030719Y-87433896D01*
X147046447Y-87433222D01*
X147048697Y-87433801D01*
X147142560Y-87458952D01*
X147142562Y-87458952D01*
X147274342Y-87458952D01*
X147274344Y-87458952D01*
X147401638Y-87424844D01*
X147515766Y-87358952D01*
X147608952Y-87265766D01*
X147674844Y-87151638D01*
X147708952Y-87024344D01*
X147708952Y-86892560D01*
X147679724Y-86783481D01*
X147675499Y-86751387D01*
X147675499Y-86193482D01*
X147675083Y-86190858D01*
X147660646Y-86099696D01*
X147603050Y-85986658D01*
X147603046Y-85986654D01*
X147603045Y-85986652D01*
X147578574Y-85962181D01*
X147545089Y-85900858D01*
X147550073Y-85831166D01*
X147591945Y-85775233D01*
X147657409Y-85750816D01*
X147666255Y-85750500D01*
X158871324Y-85750500D01*
X158938363Y-85770185D01*
X158959005Y-85786819D01*
X163442322Y-90270136D01*
X163475807Y-90331459D01*
X163476258Y-90382008D01*
X163449500Y-90516530D01*
X163449500Y-90723469D01*
X163489868Y-90926412D01*
X163489870Y-90926420D01*
X163562107Y-91100816D01*
X163569059Y-91117598D01*
X163619231Y-91192686D01*
X163682410Y-91287241D01*
X163703287Y-91353918D01*
X163684802Y-91421298D01*
X163632823Y-91467988D01*
X163563853Y-91479164D01*
X163499789Y-91451278D01*
X163491626Y-91443812D01*
X163147316Y-91099502D01*
X163147314Y-91099500D01*
X163090250Y-91066554D01*
X163033187Y-91033608D01*
X162969539Y-91016554D01*
X162905892Y-90999500D01*
X162905891Y-90999500D01*
X148099505Y-90999500D01*
X148032466Y-90979815D01*
X147986711Y-90927011D01*
X147976767Y-90857853D01*
X147979730Y-90843407D01*
X148000500Y-90765892D01*
X148000500Y-90634108D01*
X147966392Y-90506814D01*
X147900500Y-90392686D01*
X147807314Y-90299500D01*
X147744408Y-90263181D01*
X147693187Y-90233608D01*
X147629539Y-90216554D01*
X147565892Y-90199500D01*
X147434108Y-90199500D01*
X147306814Y-90233608D01*
X147306813Y-90233608D01*
X147306811Y-90233609D01*
X147306810Y-90233609D01*
X147221460Y-90282887D01*
X147159460Y-90299500D01*
X117733250Y-90299500D01*
X117666211Y-90279815D01*
X117620456Y-90227011D01*
X117610512Y-90157853D01*
X117639537Y-90094297D01*
X117671249Y-90068113D01*
X117745055Y-90025501D01*
X117838241Y-89932315D01*
X117904133Y-89818187D01*
X117938241Y-89690893D01*
X117938241Y-89559109D01*
X117938241Y-89550982D01*
X117941341Y-89550982D01*
X117949826Y-89496461D01*
X117996190Y-89444191D01*
X118063453Y-89425285D01*
X118066486Y-89425502D01*
X118071848Y-89425502D01*
X118203630Y-89425502D01*
X118203632Y-89425502D01*
X118330926Y-89391394D01*
X118445054Y-89325502D01*
X118538240Y-89232316D01*
X118604132Y-89118188D01*
X118638240Y-88990894D01*
X118638240Y-88859110D01*
X118604132Y-88731816D01*
X118538240Y-88617688D01*
X118445054Y-88524502D01*
X118361055Y-88476005D01*
X118330927Y-88458610D01*
X118267279Y-88441556D01*
X118203632Y-88424502D01*
X118071848Y-88424502D01*
X117944552Y-88458610D01*
X117893334Y-88488182D01*
X117859201Y-88507888D01*
X117797202Y-88524501D01*
X110022207Y-88524501D01*
X109955168Y-88504816D01*
X109934526Y-88488182D01*
X109744666Y-88298322D01*
X143775001Y-88298322D01*
X143785144Y-88397607D01*
X143838452Y-88558481D01*
X143838457Y-88558492D01*
X143927424Y-88702728D01*
X143927427Y-88702732D01*
X144047267Y-88822572D01*
X144047271Y-88822575D01*
X144191507Y-88911542D01*
X144191518Y-88911547D01*
X144352393Y-88964855D01*
X144451683Y-88974999D01*
X144475000Y-88974998D01*
X144475000Y-88250000D01*
X143775001Y-88250000D01*
X143775001Y-88298322D01*
X109744666Y-88298322D01*
X109732663Y-88286319D01*
X109475865Y-88029522D01*
X109475863Y-88029520D01*
X109430200Y-88003156D01*
X109384539Y-87976793D01*
X109313851Y-87957853D01*
X109282677Y-87949500D01*
X108702777Y-87949500D01*
X108597323Y-87949500D01*
X108495460Y-87976793D01*
X108404137Y-88029520D01*
X108404134Y-88029522D01*
X108370476Y-88063181D01*
X108343548Y-88077884D01*
X108317730Y-88094477D01*
X108311529Y-88095368D01*
X108309153Y-88096666D01*
X108282795Y-88099500D01*
X108266254Y-88099500D01*
X108199215Y-88079815D01*
X108153460Y-88027011D01*
X108143516Y-87957853D01*
X108172541Y-87894297D01*
X108178573Y-87887819D01*
X108783228Y-87283163D01*
X108985703Y-87080687D01*
X108985708Y-87080684D01*
X108995911Y-87070480D01*
X108995913Y-87070480D01*
X109070480Y-86995913D01*
X109123207Y-86904587D01*
X109126430Y-86892560D01*
X109150501Y-86802726D01*
X109150501Y-86697273D01*
X109150501Y-86689678D01*
X109150500Y-86689660D01*
X109150500Y-83266255D01*
X109170185Y-83199216D01*
X109222989Y-83153461D01*
X109292147Y-83143517D01*
X109355703Y-83172542D01*
X109362181Y-83178574D01*
X113476005Y-87292398D01*
X113508099Y-87347985D01*
X113533608Y-87443186D01*
X113599500Y-87557314D01*
X113692686Y-87650500D01*
X113806814Y-87716392D01*
X113934108Y-87750500D01*
X113934110Y-87750500D01*
X114065890Y-87750500D01*
X114065892Y-87750500D01*
X114193186Y-87716392D01*
X114218673Y-87701677D01*
X143775000Y-87701677D01*
X143775000Y-87750000D01*
X144475000Y-87750000D01*
X144475000Y-87024999D01*
X144451693Y-87025000D01*
X144451674Y-87025001D01*
X144352392Y-87035144D01*
X144191518Y-87088452D01*
X144191507Y-87088457D01*
X144047271Y-87177424D01*
X144047267Y-87177427D01*
X143927427Y-87297267D01*
X143927424Y-87297271D01*
X143838457Y-87441507D01*
X143838452Y-87441518D01*
X143785144Y-87602393D01*
X143775000Y-87701677D01*
X114218673Y-87701677D01*
X114307314Y-87650500D01*
X114400500Y-87557314D01*
X114466392Y-87443186D01*
X114500500Y-87315892D01*
X114500500Y-87184108D01*
X114466392Y-87056814D01*
X114464141Y-87052916D01*
X114448024Y-87025000D01*
X114400500Y-86942686D01*
X114343742Y-86885928D01*
X114324038Y-86860251D01*
X114280469Y-86784788D01*
X114215212Y-86719531D01*
X114215209Y-86719529D01*
X114215205Y-86719526D01*
X114135293Y-86673388D01*
X114135290Y-86673387D01*
X114135289Y-86673386D01*
X114135288Y-86673386D01*
X114046144Y-86649500D01*
X114046143Y-86649500D01*
X114017255Y-86649500D01*
X113950216Y-86629815D01*
X113929574Y-86613181D01*
X109786819Y-82470426D01*
X109753334Y-82409103D01*
X109750500Y-82382745D01*
X109750500Y-79465783D01*
X109770185Y-79398744D01*
X109786819Y-79378102D01*
X114253102Y-74911819D01*
X114314425Y-74878334D01*
X114340783Y-74875500D01*
X117276663Y-74875500D01*
X117276665Y-74875500D01*
X117378526Y-74848207D01*
X117469851Y-74795480D01*
X118332999Y-73932330D01*
X118394322Y-73898846D01*
X118464013Y-73903830D01*
X118519947Y-73945702D01*
X118544364Y-74011166D01*
X118544680Y-74020012D01*
X118544680Y-74279288D01*
X118544680Y-74411072D01*
X118545275Y-74413291D01*
X118549500Y-74445385D01*
X118549500Y-74783493D01*
X118565279Y-74883121D01*
X118565280Y-74883124D01*
X118565281Y-74883126D01*
X118579901Y-74911819D01*
X118626473Y-75003221D01*
X118626476Y-75003225D01*
X118721774Y-75098523D01*
X118721778Y-75098526D01*
X118721780Y-75098528D01*
X118841874Y-75159719D01*
X118841876Y-75159719D01*
X118841878Y-75159720D01*
X118941507Y-75175500D01*
X118941512Y-75175500D01*
X119458493Y-75175500D01*
X119558121Y-75159720D01*
X119558121Y-75159719D01*
X119558126Y-75159719D01*
X119678220Y-75098528D01*
X119697173Y-75079574D01*
X119758494Y-75046090D01*
X119828185Y-75051073D01*
X119884120Y-75092944D01*
X119890392Y-75102159D01*
X119952424Y-75202728D01*
X119952427Y-75202732D01*
X120072267Y-75322572D01*
X120072271Y-75322575D01*
X120216507Y-75411542D01*
X120216518Y-75411547D01*
X120377393Y-75464855D01*
X120476683Y-75474999D01*
X121000000Y-75474999D01*
X121023308Y-75474999D01*
X121023322Y-75474998D01*
X121122607Y-75464855D01*
X121283481Y-75411547D01*
X121283492Y-75411542D01*
X121427728Y-75322575D01*
X121427732Y-75322572D01*
X121547572Y-75202732D01*
X121547575Y-75202728D01*
X121636542Y-75058492D01*
X121636547Y-75058481D01*
X121689855Y-74897606D01*
X121699999Y-74798322D01*
X121700000Y-74798309D01*
X121700000Y-74750000D01*
X121000000Y-74750000D01*
X121000000Y-75474999D01*
X120476683Y-75474999D01*
X120500000Y-75474998D01*
X120500000Y-74250000D01*
X121000000Y-74250000D01*
X121699999Y-74250000D01*
X121699999Y-74201692D01*
X121699998Y-74201677D01*
X121689855Y-74102392D01*
X121636547Y-73941518D01*
X121636542Y-73941507D01*
X121547575Y-73797271D01*
X121547572Y-73797267D01*
X121427732Y-73677427D01*
X121427728Y-73677424D01*
X121283492Y-73588457D01*
X121283481Y-73588452D01*
X121122606Y-73535144D01*
X121023322Y-73525000D01*
X121000000Y-73525000D01*
X121000000Y-74250000D01*
X120500000Y-74250000D01*
X120500000Y-73524999D01*
X120476693Y-73525000D01*
X120476674Y-73525001D01*
X120377392Y-73535144D01*
X120216518Y-73588452D01*
X120216507Y-73588457D01*
X120072271Y-73677424D01*
X120072267Y-73677427D01*
X119952426Y-73797268D01*
X119890392Y-73897841D01*
X119838444Y-73944565D01*
X119769481Y-73955786D01*
X119717321Y-73936740D01*
X119706389Y-73929641D01*
X119678220Y-73901472D01*
X119607594Y-73865486D01*
X119602147Y-73861949D01*
X119583453Y-73840167D01*
X119562589Y-73820462D01*
X119560770Y-73813737D01*
X119556643Y-73808929D01*
X119553657Y-73787444D01*
X119545680Y-73757952D01*
X119545680Y-72729290D01*
X119545680Y-72729288D01*
X119511572Y-72601994D01*
X119510246Y-72599698D01*
X119494585Y-72572572D01*
X119445680Y-72487866D01*
X119352494Y-72394680D01*
X119352491Y-72394678D01*
X119352487Y-72394675D01*
X119282995Y-72354553D01*
X119265743Y-72336460D01*
X119245729Y-72321477D01*
X119242048Y-72311608D01*
X119234780Y-72303986D01*
X119230049Y-72279438D01*
X119221312Y-72256013D01*
X119223551Y-72245720D01*
X119221558Y-72235378D01*
X119230849Y-72212168D01*
X119236164Y-72187740D01*
X119245763Y-72174917D01*
X119247526Y-72170514D01*
X119257307Y-72159494D01*
X119376277Y-72040524D01*
X119437598Y-72007041D01*
X119507290Y-72012025D01*
X119563223Y-72053897D01*
X119586429Y-72108809D01*
X119590279Y-72133121D01*
X119590280Y-72133124D01*
X119590281Y-72133126D01*
X119647651Y-72245720D01*
X119651473Y-72253221D01*
X119651476Y-72253225D01*
X119746774Y-72348523D01*
X119746778Y-72348526D01*
X119746780Y-72348528D01*
X119866874Y-72409719D01*
X119866876Y-72409719D01*
X119866878Y-72409720D01*
X119966507Y-72425500D01*
X119966512Y-72425500D01*
X120483493Y-72425500D01*
X120583121Y-72409720D01*
X120583121Y-72409719D01*
X120583126Y-72409719D01*
X120703220Y-72348528D01*
X120722173Y-72329574D01*
X120783494Y-72296090D01*
X120853185Y-72301073D01*
X120909120Y-72342944D01*
X120915392Y-72352159D01*
X120977424Y-72452728D01*
X120977427Y-72452732D01*
X121097267Y-72572572D01*
X121097271Y-72572575D01*
X121241507Y-72661542D01*
X121241518Y-72661547D01*
X121402393Y-72714855D01*
X121501683Y-72724999D01*
X121525000Y-72724998D01*
X121525000Y-70774999D01*
X121501693Y-70775000D01*
X121501674Y-70775001D01*
X121402392Y-70785144D01*
X121241518Y-70838452D01*
X121241507Y-70838457D01*
X121097271Y-70927424D01*
X121097267Y-70927427D01*
X120977426Y-71047268D01*
X120915392Y-71147841D01*
X120863444Y-71194565D01*
X120794481Y-71205786D01*
X120739433Y-71184806D01*
X120730146Y-71178398D01*
X120703220Y-71151472D01*
X120656959Y-71127900D01*
X120650175Y-71123220D01*
X120633155Y-71102226D01*
X120613505Y-71083667D01*
X120611479Y-71075488D01*
X120606175Y-71068945D01*
X120603206Y-71042081D01*
X120596710Y-71015846D01*
X120599427Y-71007872D01*
X120598502Y-70999498D01*
X120610530Y-70975292D01*
X120619248Y-70949711D01*
X120628996Y-70938131D01*
X120629594Y-70936928D01*
X120630428Y-70936429D01*
X120632909Y-70933482D01*
X121042399Y-70523992D01*
X121097982Y-70491901D01*
X121193186Y-70466392D01*
X121193192Y-70466388D01*
X121200696Y-70463281D01*
X121201249Y-70464618D01*
X121253937Y-70450500D01*
X122376803Y-70450500D01*
X122401503Y-70457752D01*
X122427031Y-70461128D01*
X122434479Y-70467435D01*
X122443842Y-70470185D01*
X122460699Y-70489639D01*
X122480351Y-70506281D01*
X122484586Y-70517206D01*
X122489597Y-70522989D01*
X122495376Y-70538217D01*
X122499501Y-70551697D01*
X122499501Y-70556518D01*
X122514354Y-70650304D01*
X122552708Y-70725577D01*
X122555878Y-70735937D01*
X122556156Y-70760476D01*
X122560686Y-70784595D01*
X122556546Y-70794794D01*
X122556671Y-70805802D01*
X122543638Y-70826596D01*
X122534409Y-70849335D01*
X122525411Y-70855677D01*
X122519566Y-70865005D01*
X122497360Y-70875452D01*
X122477303Y-70889592D01*
X122466305Y-70890063D01*
X122456344Y-70894750D01*
X122432013Y-70891533D01*
X122407497Y-70892584D01*
X122392587Y-70886320D01*
X122387077Y-70885592D01*
X122383359Y-70882443D01*
X122372208Y-70877759D01*
X122308486Y-70838454D01*
X122308481Y-70838452D01*
X122147606Y-70785144D01*
X122048322Y-70775000D01*
X122025000Y-70775000D01*
X122025000Y-72724999D01*
X122048308Y-72724999D01*
X122048322Y-72724998D01*
X122147607Y-72714855D01*
X122308481Y-72661547D01*
X122308492Y-72661542D01*
X122452728Y-72572575D01*
X122452732Y-72572572D01*
X122572573Y-72452731D01*
X122597156Y-72412876D01*
X122649103Y-72366151D01*
X122718066Y-72354928D01*
X122758989Y-72367487D01*
X122812358Y-72394680D01*
X122820012Y-72398580D01*
X122841876Y-72409720D01*
X122941507Y-72425500D01*
X122941512Y-72425500D01*
X123458493Y-72425500D01*
X123558121Y-72409720D01*
X123558121Y-72409719D01*
X123558126Y-72409719D01*
X123678220Y-72348528D01*
X123697173Y-72329574D01*
X123758494Y-72296090D01*
X123828185Y-72301073D01*
X123884120Y-72342944D01*
X123890392Y-72352159D01*
X123952424Y-72452728D01*
X123952427Y-72452732D01*
X124072267Y-72572572D01*
X124072271Y-72572575D01*
X124216507Y-72661542D01*
X124216518Y-72661547D01*
X124377393Y-72714855D01*
X124476683Y-72724999D01*
X125000000Y-72724999D01*
X125023308Y-72724999D01*
X125023322Y-72724998D01*
X125122607Y-72714855D01*
X125283481Y-72661547D01*
X125283492Y-72661542D01*
X125427728Y-72572575D01*
X125427732Y-72572572D01*
X125547572Y-72452732D01*
X125547575Y-72452728D01*
X125636542Y-72308492D01*
X125636547Y-72308481D01*
X125689855Y-72147606D01*
X125699999Y-72048322D01*
X125700000Y-72048309D01*
X125700000Y-72000000D01*
X125000000Y-72000000D01*
X125000000Y-72724999D01*
X124476683Y-72724999D01*
X124500000Y-72724998D01*
X124500000Y-71874000D01*
X124519685Y-71806961D01*
X124572489Y-71761206D01*
X124624000Y-71750000D01*
X124750000Y-71750000D01*
X124750000Y-71624000D01*
X124769685Y-71556961D01*
X124822489Y-71511206D01*
X124874000Y-71500000D01*
X125699999Y-71500000D01*
X125699999Y-71451692D01*
X125699998Y-71451677D01*
X125689855Y-71352392D01*
X125636547Y-71191518D01*
X125636542Y-71191507D01*
X125547575Y-71047271D01*
X125547572Y-71047267D01*
X125427732Y-70927427D01*
X125427728Y-70927424D01*
X125347504Y-70877941D01*
X125300779Y-70825993D01*
X125289558Y-70757031D01*
X125294417Y-70734874D01*
X125297496Y-70725176D01*
X125335646Y-70650304D01*
X125344647Y-70593475D01*
X128074500Y-70593475D01*
X128074500Y-71056517D01*
X128081188Y-71098741D01*
X128089354Y-71150304D01*
X128146950Y-71263342D01*
X128146952Y-71263344D01*
X128146954Y-71263347D01*
X128236652Y-71353045D01*
X128236654Y-71353046D01*
X128236658Y-71353050D01*
X128349694Y-71410645D01*
X128349698Y-71410647D01*
X128443475Y-71425499D01*
X128443481Y-71425500D01*
X129056518Y-71425499D01*
X129150304Y-71410646D01*
X129263342Y-71353050D01*
X129353050Y-71263342D01*
X129410646Y-71150304D01*
X129410646Y-71150302D01*
X129410647Y-71150301D01*
X129423447Y-71069481D01*
X129425500Y-71056519D01*
X129425499Y-70593482D01*
X129410646Y-70499696D01*
X129353050Y-70386658D01*
X129353046Y-70386654D01*
X129353045Y-70386652D01*
X129263347Y-70296954D01*
X129263344Y-70296952D01*
X129263342Y-70296950D01*
X129170217Y-70249500D01*
X129150301Y-70239352D01*
X129056524Y-70224500D01*
X128443482Y-70224500D01*
X128362519Y-70237323D01*
X128349696Y-70239354D01*
X128236658Y-70296950D01*
X128236657Y-70296951D01*
X128236652Y-70296954D01*
X128146954Y-70386652D01*
X128146951Y-70386657D01*
X128146950Y-70386658D01*
X128127751Y-70424337D01*
X128089352Y-70499698D01*
X128074500Y-70593475D01*
X125344647Y-70593475D01*
X125350500Y-70556519D01*
X125350499Y-69943482D01*
X125335646Y-69849696D01*
X125335645Y-69849694D01*
X125334727Y-69843897D01*
X125343683Y-69774604D01*
X125388680Y-69721152D01*
X125455431Y-69700513D01*
X125457201Y-69700500D01*
X128201884Y-69700500D01*
X128258176Y-69714014D01*
X128315647Y-69743297D01*
X128349698Y-69760647D01*
X128443475Y-69775499D01*
X128443481Y-69775500D01*
X128670937Y-69775499D01*
X128670943Y-69775501D01*
X128829057Y-69775501D01*
X128829063Y-69775499D01*
X129056518Y-69775499D01*
X129056520Y-69775499D01*
X129067648Y-69773736D01*
X129097488Y-69769010D01*
X129166780Y-69777964D01*
X129204566Y-69803801D01*
X131606284Y-72205520D01*
X131606286Y-72205521D01*
X131606290Y-72205524D01*
X131688905Y-72253221D01*
X131743216Y-72284577D01*
X131895943Y-72325501D01*
X131895945Y-72325501D01*
X132061654Y-72325501D01*
X132061670Y-72325500D01*
X135600230Y-72325500D01*
X135662369Y-72343746D01*
X135662819Y-72342905D01*
X135666859Y-72345064D01*
X135667269Y-72345185D01*
X135668087Y-72345721D01*
X135668190Y-72345776D01*
X135786261Y-72394682D01*
X135795672Y-72398580D01*
X135795676Y-72398580D01*
X135795677Y-72398581D01*
X135931004Y-72425500D01*
X135931007Y-72425500D01*
X136068995Y-72425500D01*
X136160041Y-72407389D01*
X136204328Y-72398580D01*
X136325165Y-72348528D01*
X136331804Y-72345778D01*
X136331804Y-72345777D01*
X136331811Y-72345775D01*
X136446542Y-72269114D01*
X136544114Y-72171542D01*
X136620775Y-72056811D01*
X136673580Y-71929328D01*
X136685286Y-71870477D01*
X136700500Y-71793995D01*
X136700500Y-71656004D01*
X136673581Y-71520677D01*
X136673580Y-71520676D01*
X136673580Y-71520672D01*
X136669659Y-71511206D01*
X136620778Y-71393195D01*
X136620771Y-71393182D01*
X136544114Y-71278458D01*
X136544111Y-71278454D01*
X136446545Y-71180888D01*
X136446541Y-71180885D01*
X136331817Y-71104228D01*
X136331804Y-71104221D01*
X136204332Y-71051421D01*
X136204322Y-71051418D01*
X136068995Y-71024500D01*
X136068993Y-71024500D01*
X135931007Y-71024500D01*
X135931005Y-71024500D01*
X135795677Y-71051418D01*
X135795667Y-71051421D01*
X135668190Y-71104223D01*
X135662819Y-71107095D01*
X135662123Y-71105794D01*
X135602438Y-71124480D01*
X135600230Y-71124500D01*
X132275098Y-71124500D01*
X132208059Y-71104815D01*
X132187417Y-71088181D01*
X131132016Y-70032780D01*
X130011415Y-68912180D01*
X129977931Y-68850858D01*
X129982915Y-68781166D01*
X130024787Y-68725233D01*
X130090251Y-68700816D01*
X130099097Y-68700500D01*
X135082745Y-68700500D01*
X135149784Y-68720185D01*
X135170426Y-68736819D01*
X135502602Y-69068994D01*
X135759518Y-69325910D01*
X135759520Y-69325913D01*
X135834087Y-69400480D01*
X135913871Y-69446543D01*
X135925413Y-69453207D01*
X136027273Y-69480501D01*
X136027275Y-69480501D01*
X136140323Y-69480501D01*
X136140339Y-69480500D01*
X137759460Y-69480500D01*
X137821460Y-69497113D01*
X137906814Y-69546392D01*
X138034108Y-69580500D01*
X138034110Y-69580500D01*
X138165890Y-69580500D01*
X138165892Y-69580500D01*
X138293186Y-69546392D01*
X138407314Y-69480500D01*
X138500500Y-69387314D01*
X138566392Y-69273186D01*
X138600500Y-69145892D01*
X138600500Y-69014108D01*
X138566392Y-68886814D01*
X138500500Y-68772686D01*
X138407314Y-68679500D01*
X138344408Y-68643181D01*
X138293187Y-68613608D01*
X138229539Y-68596554D01*
X138165892Y-68579500D01*
X138034108Y-68579500D01*
X137906814Y-68613608D01*
X137906813Y-68613608D01*
X137906811Y-68613609D01*
X137906810Y-68613609D01*
X137821460Y-68662887D01*
X137759460Y-68679500D01*
X136297254Y-68679500D01*
X136230215Y-68659815D01*
X136209573Y-68643181D01*
X135545915Y-67979522D01*
X135545914Y-67979521D01*
X135545913Y-67979520D01*
X135500250Y-67953156D01*
X135454589Y-67926793D01*
X135389955Y-67909475D01*
X135352727Y-67899500D01*
X135352726Y-67899500D01*
X129966255Y-67899500D01*
X129899216Y-67879815D01*
X129853461Y-67827011D01*
X129843517Y-67757853D01*
X129872542Y-67694297D01*
X129878574Y-67687819D01*
X131132285Y-66434108D01*
X131749500Y-66434108D01*
X131749500Y-66565892D01*
X131764799Y-66622989D01*
X131783608Y-66693187D01*
X131816554Y-66750250D01*
X131849500Y-66807314D01*
X131942686Y-66900500D01*
X132056814Y-66966392D01*
X132184108Y-67000500D01*
X136531324Y-67000500D01*
X136598363Y-67020185D01*
X136619005Y-67036819D01*
X137792686Y-68210500D01*
X137906814Y-68276392D01*
X138034108Y-68310500D01*
X138034110Y-68310500D01*
X138165891Y-68310500D01*
X138165893Y-68310500D01*
X138293186Y-68276392D01*
X138407314Y-68210500D01*
X138500500Y-68117314D01*
X138566392Y-68003186D01*
X138600500Y-67875893D01*
X138600500Y-67744108D01*
X138566392Y-67616814D01*
X138500500Y-67502686D01*
X137097314Y-66099500D01*
X137028077Y-66059526D01*
X136983187Y-66033608D01*
X136919539Y-66016554D01*
X136855892Y-65999500D01*
X132184108Y-65999500D01*
X132056812Y-66033608D01*
X131942686Y-66099500D01*
X131942683Y-66099502D01*
X131849502Y-66192683D01*
X131849500Y-66192686D01*
X131783608Y-66306812D01*
X131766744Y-66369752D01*
X131749500Y-66434108D01*
X131132285Y-66434108D01*
X132432285Y-65134108D01*
X134249500Y-65134108D01*
X134249500Y-65265891D01*
X134283608Y-65393187D01*
X134316554Y-65450250D01*
X134349500Y-65507314D01*
X134442686Y-65600500D01*
X134556814Y-65666392D01*
X134684108Y-65700500D01*
X137811422Y-65700500D01*
X137873421Y-65717112D01*
X137906814Y-65736392D01*
X138034108Y-65770500D01*
X138034110Y-65770500D01*
X138165890Y-65770500D01*
X138165892Y-65770500D01*
X138293186Y-65736392D01*
X138407314Y-65670500D01*
X138500500Y-65577314D01*
X138566392Y-65463186D01*
X138600500Y-65335892D01*
X138600500Y-65204108D01*
X138566392Y-65076814D01*
X138500500Y-64962686D01*
X138337314Y-64799500D01*
X138280250Y-64766554D01*
X138223187Y-64733608D01*
X138159539Y-64716554D01*
X138095892Y-64699500D01*
X134684108Y-64699500D01*
X134556812Y-64733608D01*
X134442686Y-64799500D01*
X134442683Y-64799502D01*
X134349502Y-64892683D01*
X134349500Y-64892686D01*
X134283608Y-65006812D01*
X134249500Y-65134108D01*
X132432285Y-65134108D01*
X134242322Y-63324071D01*
X151350000Y-63324071D01*
X151350000Y-63575928D01*
X151389397Y-63824669D01*
X151467219Y-64064184D01*
X151581557Y-64288583D01*
X151655748Y-64390697D01*
X151655748Y-64390698D01*
X152310690Y-63735756D01*
X152329668Y-63781574D01*
X152406274Y-63896224D01*
X152503776Y-63993726D01*
X152618426Y-64070332D01*
X152664242Y-64089309D01*
X152009300Y-64744250D01*
X152111416Y-64818442D01*
X152335815Y-64932780D01*
X152575330Y-65010602D01*
X152824072Y-65050000D01*
X153075928Y-65050000D01*
X153274407Y-65018563D01*
X154149500Y-65018563D01*
X154149500Y-66981429D01*
X154158273Y-67036819D01*
X154164357Y-67075235D01*
X154221968Y-67188302D01*
X154221970Y-67188304D01*
X154221972Y-67188307D01*
X154311692Y-67278027D01*
X154311694Y-67278028D01*
X154311698Y-67278032D01*
X154424765Y-67335643D01*
X154424766Y-67335643D01*
X154424768Y-67335644D01*
X154424767Y-67335644D01*
X154518563Y-67350499D01*
X154518569Y-67350500D01*
X156481430Y-67350499D01*
X156575235Y-67335643D01*
X156688302Y-67278032D01*
X156710587Y-67255747D01*
X156751008Y-67215327D01*
X156778027Y-67188307D01*
X156778032Y-67188302D01*
X156835643Y-67075235D01*
X156841728Y-67036819D01*
X156850499Y-66981436D01*
X156850500Y-66981431D01*
X156850499Y-65018570D01*
X156835643Y-64924765D01*
X156778032Y-64811698D01*
X156778028Y-64811694D01*
X156778027Y-64811692D01*
X156688307Y-64721972D01*
X156688304Y-64721970D01*
X156688302Y-64721968D01*
X156575235Y-64664357D01*
X156575234Y-64664356D01*
X156575231Y-64664355D01*
X156575232Y-64664355D01*
X156481436Y-64649500D01*
X154518570Y-64649500D01*
X154437590Y-64662325D01*
X154424765Y-64664357D01*
X154311698Y-64721968D01*
X154311697Y-64721969D01*
X154311692Y-64721972D01*
X154221972Y-64811692D01*
X154221969Y-64811697D01*
X154164355Y-64924768D01*
X154149500Y-65018563D01*
X153274407Y-65018563D01*
X153324669Y-65010602D01*
X153564184Y-64932780D01*
X153622215Y-64903212D01*
X153788575Y-64818446D01*
X153788581Y-64818442D01*
X153890697Y-64744250D01*
X153890698Y-64744250D01*
X153235757Y-64089309D01*
X153281574Y-64070332D01*
X153396224Y-63993726D01*
X153493726Y-63896224D01*
X153570332Y-63781574D01*
X153589309Y-63735757D01*
X154244250Y-64390698D01*
X154244250Y-64390697D01*
X154318442Y-64288581D01*
X154318446Y-64288575D01*
X154432780Y-64064184D01*
X154510602Y-63824669D01*
X154550000Y-63575928D01*
X154550000Y-63324071D01*
X156450000Y-63324071D01*
X156450000Y-63575928D01*
X156489397Y-63824669D01*
X156567219Y-64064184D01*
X156681557Y-64288583D01*
X156755748Y-64390697D01*
X156755748Y-64390698D01*
X157410690Y-63735756D01*
X157429668Y-63781574D01*
X157506274Y-63896224D01*
X157603776Y-63993726D01*
X157718426Y-64070332D01*
X157764242Y-64089309D01*
X157109300Y-64744250D01*
X157211416Y-64818442D01*
X157435815Y-64932780D01*
X157675330Y-65010602D01*
X157924072Y-65050000D01*
X158175928Y-65050000D01*
X158424669Y-65010602D01*
X158664184Y-64932780D01*
X158888575Y-64818446D01*
X158888581Y-64818442D01*
X158990697Y-64744250D01*
X158990698Y-64744250D01*
X158335757Y-64089309D01*
X158381574Y-64070332D01*
X158496224Y-63993726D01*
X158593726Y-63896224D01*
X158670332Y-63781574D01*
X158689309Y-63735757D01*
X159344250Y-64390698D01*
X159344250Y-64390697D01*
X159418442Y-64288581D01*
X159418446Y-64288575D01*
X159532780Y-64064184D01*
X159610602Y-63824669D01*
X159650000Y-63575928D01*
X159650000Y-63324071D01*
X159610602Y-63075330D01*
X159532780Y-62835815D01*
X159418442Y-62611416D01*
X159344250Y-62509301D01*
X159344250Y-62509300D01*
X158689309Y-63164241D01*
X158670332Y-63118426D01*
X158593726Y-63003776D01*
X158496224Y-62906274D01*
X158381574Y-62829668D01*
X158335755Y-62810689D01*
X158990698Y-62155748D01*
X158888583Y-62081557D01*
X158664184Y-61967219D01*
X158424669Y-61889397D01*
X158175928Y-61850000D01*
X157924072Y-61850000D01*
X157675330Y-61889397D01*
X157435815Y-61967219D01*
X157211413Y-62081559D01*
X157109301Y-62155747D01*
X157109300Y-62155748D01*
X157764242Y-62810690D01*
X157718426Y-62829668D01*
X157603776Y-62906274D01*
X157506274Y-63003776D01*
X157429668Y-63118426D01*
X157410690Y-63164242D01*
X156755748Y-62509300D01*
X156755747Y-62509301D01*
X156681559Y-62611413D01*
X156567219Y-62835815D01*
X156489397Y-63075330D01*
X156450000Y-63324071D01*
X154550000Y-63324071D01*
X154510602Y-63075330D01*
X154432780Y-62835815D01*
X154318442Y-62611416D01*
X154244250Y-62509301D01*
X154244250Y-62509300D01*
X153589309Y-63164241D01*
X153570332Y-63118426D01*
X153493726Y-63003776D01*
X153396224Y-62906274D01*
X153281574Y-62829668D01*
X153235755Y-62810689D01*
X153890698Y-62155748D01*
X153788583Y-62081557D01*
X153564184Y-61967219D01*
X153324669Y-61889397D01*
X153075928Y-61850000D01*
X152824072Y-61850000D01*
X152575330Y-61889397D01*
X152335815Y-61967219D01*
X152111413Y-62081559D01*
X152009301Y-62155747D01*
X152009300Y-62155748D01*
X152664242Y-62810690D01*
X152618426Y-62829668D01*
X152503776Y-62906274D01*
X152406274Y-63003776D01*
X152329668Y-63118426D01*
X152310690Y-63164242D01*
X151655748Y-62509300D01*
X151655747Y-62509301D01*
X151581559Y-62611413D01*
X151467219Y-62835815D01*
X151389397Y-63075330D01*
X151350000Y-63324071D01*
X134242322Y-63324071D01*
X134399574Y-63166819D01*
X134460897Y-63133334D01*
X134487255Y-63130500D01*
X137759460Y-63130500D01*
X137821460Y-63147113D01*
X137906814Y-63196392D01*
X138034108Y-63230500D01*
X138034110Y-63230500D01*
X138165890Y-63230500D01*
X138165892Y-63230500D01*
X138293186Y-63196392D01*
X138407314Y-63130500D01*
X138500500Y-63037314D01*
X138566392Y-62923186D01*
X138600500Y-62795892D01*
X138600500Y-62664108D01*
X138566392Y-62536814D01*
X138500500Y-62422686D01*
X138407314Y-62329500D01*
X138374222Y-62310394D01*
X138374221Y-62310393D01*
X138293189Y-62263609D01*
X138293186Y-62263608D01*
X138165892Y-62229500D01*
X138034108Y-62229500D01*
X137906814Y-62263608D01*
X137906813Y-62263608D01*
X137906811Y-62263609D01*
X137906810Y-62263609D01*
X137821460Y-62312887D01*
X137759460Y-62329500D01*
X134217273Y-62329500D01*
X134115413Y-62356793D01*
X134115410Y-62356794D01*
X134024090Y-62409517D01*
X134024085Y-62409521D01*
X132889370Y-63544235D01*
X132828047Y-63577720D01*
X132758355Y-63572736D01*
X132702422Y-63530864D01*
X132694306Y-63518560D01*
X132650500Y-63442686D01*
X132557314Y-63349500D01*
X132473530Y-63301127D01*
X132443187Y-63283608D01*
X132379539Y-63266554D01*
X132315892Y-63249500D01*
X132184108Y-63249500D01*
X132056812Y-63283608D01*
X131942686Y-63349500D01*
X131942683Y-63349502D01*
X131849502Y-63442683D01*
X131849500Y-63442686D01*
X131783608Y-63556812D01*
X131749500Y-63684108D01*
X131749500Y-63784216D01*
X131729815Y-63851255D01*
X131713181Y-63871897D01*
X129512181Y-66072897D01*
X129450858Y-66106382D01*
X129381166Y-66101398D01*
X129325233Y-66059526D01*
X129300816Y-65994062D01*
X129300500Y-65985216D01*
X129300500Y-64655249D01*
X129300499Y-64655247D01*
X129288868Y-64596770D01*
X129288867Y-64596769D01*
X129244552Y-64530447D01*
X129178230Y-64486132D01*
X129178229Y-64486131D01*
X129119752Y-64474500D01*
X129119748Y-64474500D01*
X128816048Y-64474500D01*
X128749009Y-64454815D01*
X128703254Y-64402011D01*
X128693310Y-64332853D01*
X128722335Y-64269297D01*
X128764264Y-64239061D01*
X128763879Y-64238306D01*
X128957554Y-64139622D01*
X129011716Y-64100270D01*
X129011717Y-64100270D01*
X128379408Y-63467962D01*
X128442993Y-63450925D01*
X128557007Y-63385099D01*
X128650099Y-63292007D01*
X128715925Y-63177993D01*
X128732962Y-63114408D01*
X129365270Y-63746717D01*
X129365270Y-63746716D01*
X129404622Y-63692554D01*
X129501095Y-63503217D01*
X129566757Y-63301130D01*
X129566757Y-63301127D01*
X129600000Y-63091246D01*
X129600000Y-62878753D01*
X129566757Y-62668872D01*
X129566757Y-62668869D01*
X129501095Y-62466782D01*
X129404624Y-62277449D01*
X129365270Y-62223282D01*
X129365269Y-62223282D01*
X128732962Y-62855590D01*
X128715925Y-62792007D01*
X128650099Y-62677993D01*
X128557007Y-62584901D01*
X128442993Y-62519075D01*
X128379409Y-62502037D01*
X129011716Y-61869728D01*
X128957550Y-61830375D01*
X128768217Y-61733904D01*
X128566129Y-61668242D01*
X128356246Y-61635000D01*
X128143754Y-61635000D01*
X127933872Y-61668242D01*
X127933869Y-61668242D01*
X127731782Y-61733904D01*
X127542439Y-61830380D01*
X127488282Y-61869727D01*
X127488282Y-61869728D01*
X128120591Y-62502037D01*
X128057007Y-62519075D01*
X127942993Y-62584901D01*
X127849901Y-62677993D01*
X127784075Y-62792007D01*
X127767037Y-62855591D01*
X127134728Y-62223282D01*
X127134727Y-62223282D01*
X127095380Y-62277439D01*
X126998904Y-62466782D01*
X126933242Y-62668869D01*
X126933242Y-62668872D01*
X126900000Y-62878753D01*
X126900000Y-63091246D01*
X126933242Y-63301127D01*
X126933242Y-63301130D01*
X126998904Y-63503217D01*
X127095375Y-63692550D01*
X127134728Y-63746716D01*
X127767037Y-63114408D01*
X127784075Y-63177993D01*
X127849901Y-63292007D01*
X127942993Y-63385099D01*
X128057007Y-63450925D01*
X128120590Y-63467962D01*
X127488282Y-64100269D01*
X127488282Y-64100270D01*
X127542449Y-64139624D01*
X127736121Y-64238306D01*
X127735603Y-64239321D01*
X127785808Y-64279779D01*
X127807873Y-64346073D01*
X127790594Y-64413772D01*
X127739458Y-64461383D01*
X127683952Y-64474500D01*
X127380247Y-64474500D01*
X127321770Y-64486131D01*
X127321769Y-64486132D01*
X127255447Y-64530447D01*
X127211132Y-64596769D01*
X127211131Y-64596770D01*
X127199500Y-64655247D01*
X127199500Y-66301236D01*
X127179815Y-66368275D01*
X127127011Y-66414030D01*
X127075500Y-66425236D01*
X124674500Y-66425236D01*
X124607461Y-66405551D01*
X124561706Y-66352747D01*
X124550500Y-66301236D01*
X124550500Y-64655249D01*
X124550499Y-64655247D01*
X124538868Y-64596770D01*
X124538867Y-64596769D01*
X124494552Y-64530447D01*
X124428230Y-64486132D01*
X124428229Y-64486131D01*
X124369752Y-64474500D01*
X124369748Y-64474500D01*
X124066048Y-64474500D01*
X123999009Y-64454815D01*
X123953254Y-64402011D01*
X123943310Y-64332853D01*
X123972335Y-64269297D01*
X124014264Y-64239061D01*
X124013879Y-64238306D01*
X124207554Y-64139622D01*
X124261716Y-64100270D01*
X124261717Y-64100270D01*
X123629408Y-63467962D01*
X123692993Y-63450925D01*
X123807007Y-63385099D01*
X123900099Y-63292007D01*
X123965925Y-63177993D01*
X123982962Y-63114408D01*
X124615270Y-63746717D01*
X124615270Y-63746716D01*
X124654622Y-63692554D01*
X124751095Y-63503217D01*
X124816757Y-63301130D01*
X124816757Y-63301127D01*
X124850000Y-63091246D01*
X124850000Y-62878753D01*
X124816757Y-62668872D01*
X124816757Y-62668869D01*
X124751095Y-62466782D01*
X124654624Y-62277449D01*
X124615270Y-62223282D01*
X124615269Y-62223282D01*
X123982962Y-62855590D01*
X123965925Y-62792007D01*
X123900099Y-62677993D01*
X123807007Y-62584901D01*
X123692993Y-62519075D01*
X123629409Y-62502037D01*
X124261716Y-61869728D01*
X124207550Y-61830375D01*
X124018217Y-61733904D01*
X123816129Y-61668242D01*
X123606246Y-61635000D01*
X123393754Y-61635000D01*
X123183872Y-61668242D01*
X123183869Y-61668242D01*
X122981782Y-61733904D01*
X122792439Y-61830380D01*
X122738282Y-61869727D01*
X122738282Y-61869728D01*
X123370591Y-62502037D01*
X123307007Y-62519075D01*
X123192993Y-62584901D01*
X123099901Y-62677993D01*
X123034075Y-62792007D01*
X123017037Y-62855591D01*
X122384728Y-62223282D01*
X122384727Y-62223282D01*
X122345380Y-62277439D01*
X122248904Y-62466782D01*
X122183242Y-62668869D01*
X122183242Y-62668872D01*
X122150000Y-62878753D01*
X122150000Y-63091246D01*
X122183242Y-63301127D01*
X122183242Y-63301130D01*
X122248904Y-63503217D01*
X122345375Y-63692550D01*
X122384728Y-63746716D01*
X123017037Y-63114408D01*
X123034075Y-63177993D01*
X123099901Y-63292007D01*
X123192993Y-63385099D01*
X123307007Y-63450925D01*
X123370590Y-63467962D01*
X122738282Y-64100269D01*
X122738282Y-64100270D01*
X122792449Y-64139624D01*
X122986121Y-64238306D01*
X122985603Y-64239321D01*
X123035808Y-64279779D01*
X123057873Y-64346073D01*
X123040594Y-64413772D01*
X122989458Y-64461383D01*
X122933952Y-64474500D01*
X122630247Y-64474500D01*
X122571770Y-64486131D01*
X122571769Y-64486132D01*
X122505447Y-64530447D01*
X122461132Y-64596769D01*
X122461131Y-64596770D01*
X122449500Y-64655247D01*
X122449500Y-66301236D01*
X122429815Y-66368275D01*
X122377011Y-66414030D01*
X122325500Y-66425236D01*
X120174500Y-66425236D01*
X120107461Y-66405551D01*
X120061706Y-66352747D01*
X120050500Y-66301236D01*
X120050500Y-64630249D01*
X120050499Y-64630247D01*
X120038868Y-64571770D01*
X120038867Y-64571769D01*
X119994552Y-64505447D01*
X119928230Y-64461132D01*
X119928229Y-64461131D01*
X119869752Y-64449500D01*
X119869748Y-64449500D01*
X119566048Y-64449500D01*
X119499009Y-64429815D01*
X119453254Y-64377011D01*
X119443310Y-64307853D01*
X119472335Y-64244297D01*
X119514264Y-64214061D01*
X119513879Y-64213306D01*
X119707554Y-64114622D01*
X119761716Y-64075270D01*
X119761717Y-64075270D01*
X119129408Y-63442962D01*
X119192993Y-63425925D01*
X119307007Y-63360099D01*
X119400099Y-63267007D01*
X119465925Y-63152993D01*
X119482962Y-63089409D01*
X120115270Y-63721717D01*
X120115270Y-63721716D01*
X120154622Y-63667554D01*
X120251095Y-63478217D01*
X120316757Y-63276130D01*
X120316757Y-63276127D01*
X120350000Y-63066246D01*
X120350000Y-62853753D01*
X120316757Y-62643872D01*
X120316757Y-62643869D01*
X120251095Y-62441782D01*
X120154624Y-62252449D01*
X120115270Y-62198282D01*
X120115269Y-62198282D01*
X119482962Y-62830590D01*
X119465925Y-62767007D01*
X119400099Y-62652993D01*
X119307007Y-62559901D01*
X119192993Y-62494075D01*
X119129409Y-62477037D01*
X119761716Y-61844728D01*
X119707550Y-61805375D01*
X119518217Y-61708904D01*
X119316129Y-61643242D01*
X119106246Y-61610000D01*
X118893754Y-61610000D01*
X118683872Y-61643242D01*
X118683869Y-61643242D01*
X118481782Y-61708904D01*
X118292439Y-61805380D01*
X118238282Y-61844727D01*
X118238282Y-61844728D01*
X118870591Y-62477037D01*
X118807007Y-62494075D01*
X118692993Y-62559901D01*
X118599901Y-62652993D01*
X118534075Y-62767007D01*
X118517037Y-62830591D01*
X117884728Y-62198282D01*
X117884727Y-62198282D01*
X117845380Y-62252439D01*
X117748904Y-62441782D01*
X117683242Y-62643869D01*
X117683242Y-62643872D01*
X117650000Y-62853753D01*
X117650000Y-63066246D01*
X117683242Y-63276127D01*
X117683242Y-63276130D01*
X117748904Y-63478217D01*
X117845375Y-63667550D01*
X117884728Y-63721716D01*
X118517037Y-63089408D01*
X118534075Y-63152993D01*
X118599901Y-63267007D01*
X118692993Y-63360099D01*
X118807007Y-63425925D01*
X118870590Y-63442962D01*
X118238282Y-64075269D01*
X118238282Y-64075270D01*
X118292449Y-64114624D01*
X118486121Y-64213306D01*
X118485603Y-64214321D01*
X118535808Y-64254779D01*
X118557873Y-64321073D01*
X118540594Y-64388772D01*
X118489458Y-64436383D01*
X118433952Y-64449500D01*
X118130247Y-64449500D01*
X118071770Y-64461131D01*
X118071769Y-64461132D01*
X118005447Y-64505447D01*
X117961132Y-64571769D01*
X117961131Y-64571770D01*
X117949500Y-64630247D01*
X117949500Y-66301236D01*
X117929815Y-66368275D01*
X117877011Y-66414030D01*
X117825500Y-66425236D01*
X115674500Y-66425236D01*
X115607461Y-66405551D01*
X115561706Y-66352747D01*
X115550500Y-66301236D01*
X115550500Y-64630249D01*
X115550499Y-64630247D01*
X115538868Y-64571770D01*
X115538867Y-64571769D01*
X115494552Y-64505447D01*
X115428230Y-64461132D01*
X115428229Y-64461131D01*
X115369752Y-64449500D01*
X115369748Y-64449500D01*
X115066048Y-64449500D01*
X114999009Y-64429815D01*
X114953254Y-64377011D01*
X114943310Y-64307853D01*
X114972335Y-64244297D01*
X115014264Y-64214061D01*
X115013879Y-64213306D01*
X115207554Y-64114622D01*
X115261716Y-64075270D01*
X115261717Y-64075270D01*
X114629408Y-63442962D01*
X114692993Y-63425925D01*
X114807007Y-63360099D01*
X114900099Y-63267007D01*
X114965925Y-63152993D01*
X114982962Y-63089409D01*
X115615270Y-63721717D01*
X115615270Y-63721716D01*
X115654622Y-63667554D01*
X115751095Y-63478217D01*
X115816757Y-63276130D01*
X115816757Y-63276127D01*
X115850000Y-63066246D01*
X115850000Y-62853753D01*
X115816757Y-62643872D01*
X115816757Y-62643869D01*
X115751095Y-62441782D01*
X115654624Y-62252449D01*
X115615270Y-62198282D01*
X115615269Y-62198282D01*
X114982962Y-62830590D01*
X114965925Y-62767007D01*
X114900099Y-62652993D01*
X114807007Y-62559901D01*
X114692993Y-62494075D01*
X114629409Y-62477037D01*
X115261716Y-61844728D01*
X115207550Y-61805375D01*
X115018217Y-61708904D01*
X114816129Y-61643242D01*
X114606246Y-61610000D01*
X114393754Y-61610000D01*
X114183872Y-61643242D01*
X114183869Y-61643242D01*
X113981782Y-61708904D01*
X113792439Y-61805380D01*
X113738282Y-61844727D01*
X113738282Y-61844728D01*
X114370591Y-62477037D01*
X114307007Y-62494075D01*
X114192993Y-62559901D01*
X114099901Y-62652993D01*
X114034075Y-62767007D01*
X114017037Y-62830591D01*
X113384728Y-62198282D01*
X113384727Y-62198282D01*
X113345380Y-62252439D01*
X113248904Y-62441782D01*
X113183242Y-62643869D01*
X113183242Y-62643872D01*
X113150000Y-62853753D01*
X113150000Y-63066246D01*
X113183242Y-63276127D01*
X113183242Y-63276130D01*
X113248904Y-63478217D01*
X113345375Y-63667550D01*
X113384728Y-63721716D01*
X114017037Y-63089408D01*
X114034075Y-63152993D01*
X114099901Y-63267007D01*
X114192993Y-63360099D01*
X114307007Y-63425925D01*
X114370590Y-63442962D01*
X113738282Y-64075269D01*
X113738282Y-64075270D01*
X113792449Y-64114624D01*
X113986121Y-64213306D01*
X113985603Y-64214321D01*
X114035808Y-64254779D01*
X114057873Y-64321073D01*
X114040594Y-64388772D01*
X113989458Y-64436383D01*
X113933952Y-64449500D01*
X113630247Y-64449500D01*
X113571770Y-64461131D01*
X113571769Y-64461132D01*
X113505447Y-64505447D01*
X113461132Y-64571769D01*
X113461131Y-64571770D01*
X113449500Y-64630247D01*
X113449500Y-66369752D01*
X113461131Y-66428229D01*
X113461132Y-66428230D01*
X113505447Y-66494552D01*
X113571769Y-66538867D01*
X113571770Y-66538868D01*
X113630247Y-66550499D01*
X113630250Y-66550500D01*
X113630252Y-66550500D01*
X113886689Y-66550500D01*
X113953728Y-66570185D01*
X113999483Y-66622989D01*
X114009427Y-66692147D01*
X113980402Y-66755703D01*
X113974370Y-66762179D01*
X112561220Y-68175330D01*
X111244080Y-69492470D01*
X111182757Y-69525955D01*
X111156399Y-69528789D01*
X111066341Y-69528789D01*
X110939045Y-69562897D01*
X110824919Y-69628789D01*
X110824916Y-69628791D01*
X110731735Y-69721972D01*
X110731734Y-69721974D01*
X110665841Y-69836101D01*
X110643777Y-69918446D01*
X110631733Y-69963397D01*
X110631733Y-70095181D01*
X110658052Y-70193409D01*
X110656390Y-70263256D01*
X110617228Y-70321119D01*
X110552999Y-70348623D01*
X110538278Y-70349500D01*
X108010540Y-70349500D01*
X107948540Y-70332887D01*
X107863188Y-70283609D01*
X107863187Y-70283608D01*
X107863186Y-70283608D01*
X107735892Y-70249500D01*
X107604108Y-70249500D01*
X107476812Y-70283608D01*
X107362686Y-70349500D01*
X107362683Y-70349502D01*
X107269502Y-70442683D01*
X107269500Y-70442686D01*
X107203608Y-70556812D01*
X107193783Y-70593481D01*
X107169500Y-70684108D01*
X107169500Y-70815892D01*
X107180160Y-70855677D01*
X107203608Y-70943186D01*
X107215336Y-70963499D01*
X107231809Y-71031399D01*
X107208957Y-71097426D01*
X107154036Y-71140617D01*
X107107949Y-71149500D01*
X104200540Y-71149500D01*
X104138540Y-71132887D01*
X104053188Y-71083609D01*
X104053187Y-71083608D01*
X104053186Y-71083608D01*
X103925892Y-71049500D01*
X103794108Y-71049500D01*
X103666812Y-71083608D01*
X103552686Y-71149500D01*
X103552683Y-71149502D01*
X103459502Y-71242683D01*
X103459500Y-71242686D01*
X103419375Y-71312184D01*
X103401279Y-71329437D01*
X103386298Y-71349450D01*
X103376430Y-71353130D01*
X103368807Y-71360399D01*
X103344258Y-71365129D01*
X103320834Y-71373867D01*
X103310541Y-71371627D01*
X103300200Y-71373621D01*
X103276990Y-71364329D01*
X103252561Y-71359015D01*
X103239738Y-71349415D01*
X103235335Y-71347653D01*
X103224307Y-71337864D01*
X103136819Y-71250376D01*
X103103334Y-71189053D01*
X103100500Y-71162695D01*
X103100500Y-69441519D01*
X103120185Y-69374480D01*
X103136819Y-69353838D01*
X103753838Y-68736819D01*
X103815161Y-68703334D01*
X103841519Y-68700500D01*
X104068995Y-68700500D01*
X104174566Y-68679500D01*
X104204328Y-68673580D01*
X104331811Y-68620775D01*
X104446542Y-68544114D01*
X104544114Y-68446542D01*
X104620775Y-68331811D01*
X104673580Y-68204328D01*
X104690888Y-68117314D01*
X104700500Y-68068995D01*
X104700500Y-67931004D01*
X104673581Y-67795677D01*
X104673580Y-67795676D01*
X104673580Y-67795672D01*
X104657915Y-67757853D01*
X104620778Y-67668195D01*
X104620771Y-67668182D01*
X104544114Y-67553458D01*
X104544111Y-67553454D01*
X104446545Y-67455888D01*
X104446541Y-67455885D01*
X104331817Y-67379228D01*
X104331804Y-67379221D01*
X104204332Y-67326421D01*
X104204322Y-67326418D01*
X104068995Y-67299500D01*
X104068993Y-67299500D01*
X103568994Y-67299500D01*
X103431006Y-67299500D01*
X103431004Y-67299500D01*
X103295677Y-67326418D01*
X103295667Y-67326421D01*
X103168192Y-67379222D01*
X103053454Y-67455887D01*
X101955887Y-68553454D01*
X101879222Y-68668192D01*
X101826421Y-68795667D01*
X101826418Y-68795677D01*
X101799500Y-68931003D01*
X101799500Y-68931006D01*
X101799500Y-69068994D01*
X101799500Y-69068996D01*
X101799499Y-69068996D01*
X101826418Y-69204322D01*
X101826421Y-69204332D01*
X101879222Y-69331806D01*
X101882094Y-69337178D01*
X101880792Y-69337874D01*
X101899480Y-69397554D01*
X101899500Y-69399769D01*
X101899500Y-71376123D01*
X101899499Y-71376141D01*
X101899499Y-71541847D01*
X101899498Y-71541847D01*
X101940424Y-71694582D01*
X101940425Y-71694583D01*
X101967059Y-71740713D01*
X101967061Y-71740716D01*
X102019479Y-71831507D01*
X102019481Y-71831510D01*
X102138349Y-71950378D01*
X102138354Y-71950382D01*
X104168491Y-73980520D01*
X104168493Y-73980521D01*
X104168497Y-73980524D01*
X104283552Y-74046950D01*
X104305423Y-74059577D01*
X104458150Y-74100501D01*
X104458152Y-74100501D01*
X104623861Y-74100501D01*
X104623877Y-74100500D01*
X108079055Y-74100500D01*
X108079057Y-74100500D01*
X108231784Y-74059577D01*
X108368716Y-73980520D01*
X108480520Y-73868716D01*
X108559577Y-73731784D01*
X108600500Y-73579057D01*
X108600500Y-73420943D01*
X108559577Y-73268216D01*
X108549236Y-73250304D01*
X108480524Y-73131290D01*
X108480518Y-73131282D01*
X108368717Y-73019481D01*
X108368709Y-73019475D01*
X108231790Y-72940426D01*
X108231786Y-72940424D01*
X108231784Y-72940423D01*
X108079057Y-72899500D01*
X108079056Y-72899500D01*
X104837305Y-72899500D01*
X104770266Y-72879815D01*
X104749624Y-72863181D01*
X104072135Y-72185692D01*
X104060152Y-72163748D01*
X104044698Y-72144095D01*
X104043697Y-72133611D01*
X104038650Y-72124369D01*
X104040433Y-72099431D01*
X104038057Y-72074542D01*
X104042882Y-72065182D01*
X104043634Y-72054677D01*
X104058620Y-72034658D01*
X104070075Y-72012440D01*
X104082664Y-72002539D01*
X104085506Y-71998744D01*
X104097810Y-71990628D01*
X104122002Y-71976660D01*
X104138542Y-71967112D01*
X104200540Y-71950500D01*
X111502725Y-71950500D01*
X111502727Y-71950500D01*
X111604588Y-71923207D01*
X111695913Y-71870480D01*
X114442232Y-69124159D01*
X114503553Y-69090676D01*
X114573245Y-69095660D01*
X114629178Y-69137532D01*
X114649684Y-69179746D01*
X114674722Y-69273186D01*
X114690423Y-69331783D01*
X114690426Y-69331790D01*
X114769475Y-69468709D01*
X114769479Y-69468714D01*
X114769480Y-69468716D01*
X114881284Y-69580520D01*
X114881286Y-69580521D01*
X114881290Y-69580524D01*
X115018209Y-69659573D01*
X115018216Y-69659577D01*
X115170943Y-69700500D01*
X117292324Y-69700500D01*
X117359363Y-69720185D01*
X117405118Y-69772989D01*
X117415062Y-69842147D01*
X117386037Y-69905703D01*
X117380005Y-69912181D01*
X117349502Y-69942683D01*
X117349500Y-69942686D01*
X117283607Y-70056814D01*
X117283607Y-70056815D01*
X117258098Y-70152014D01*
X117226005Y-70207600D01*
X115845426Y-71588181D01*
X115784103Y-71621666D01*
X115757745Y-71624500D01*
X113025217Y-71624500D01*
X112923354Y-71651793D01*
X112832031Y-71704520D01*
X112832028Y-71704522D01*
X106973370Y-77563181D01*
X106912047Y-77596666D01*
X106885689Y-77599500D01*
X105217255Y-77599500D01*
X105150216Y-77579815D01*
X105129574Y-77563181D01*
X99523993Y-71957600D01*
X99491900Y-71902014D01*
X99466392Y-71806814D01*
X99400500Y-71692686D01*
X99307314Y-71599500D01*
X99250250Y-71566554D01*
X99193187Y-71533608D01*
X99129539Y-71516554D01*
X99065892Y-71499500D01*
X98934108Y-71499500D01*
X98806812Y-71533608D01*
X98692686Y-71599500D01*
X98692683Y-71599502D01*
X98599502Y-71692683D01*
X98599500Y-71692686D01*
X98533608Y-71806812D01*
X98499500Y-71934108D01*
X98499500Y-72332745D01*
X98479815Y-72399784D01*
X98463181Y-72420426D01*
X98396954Y-72486652D01*
X98396951Y-72486657D01*
X98396950Y-72486658D01*
X98377751Y-72524337D01*
X98339352Y-72599698D01*
X98324500Y-72693475D01*
X98324500Y-73156517D01*
X98335292Y-73224657D01*
X98339354Y-73250304D01*
X98396950Y-73363342D01*
X98396952Y-73363344D01*
X98396954Y-73363347D01*
X98486652Y-73453045D01*
X98486654Y-73453046D01*
X98486658Y-73453050D01*
X98599694Y-73510645D01*
X98599698Y-73510647D01*
X98687116Y-73524491D01*
X98690330Y-73525001D01*
X98693475Y-73525499D01*
X98693481Y-73525500D01*
X99306518Y-73525499D01*
X99400304Y-73510646D01*
X99513342Y-73453050D01*
X99545449Y-73420943D01*
X99609951Y-73356442D01*
X99612126Y-73358617D01*
X99654591Y-73325845D01*
X99724202Y-73319839D01*
X99786010Y-73352421D01*
X99787305Y-73353698D01*
X104679519Y-78245912D01*
X104679520Y-78245913D01*
X104754087Y-78320480D01*
X104845413Y-78373207D01*
X104947273Y-78400500D01*
X106925500Y-78400500D01*
X106992539Y-78420185D01*
X107038294Y-78472989D01*
X107049500Y-78524500D01*
X107049500Y-83332745D01*
X107029815Y-83399784D01*
X107013181Y-83420426D01*
X106120426Y-84313181D01*
X106059103Y-84346666D01*
X106032745Y-84349500D01*
X105161533Y-84349500D01*
X105094494Y-84329815D01*
X105051049Y-84281796D01*
X105028050Y-84236658D01*
X105028046Y-84236654D01*
X105028045Y-84236652D01*
X104938347Y-84146954D01*
X104938344Y-84146952D01*
X104938342Y-84146950D01*
X104861517Y-84107805D01*
X104825301Y-84089352D01*
X104731524Y-84074500D01*
X104268482Y-84074500D01*
X104187519Y-84087323D01*
X104174696Y-84089354D01*
X104061658Y-84146950D01*
X104061657Y-84146951D01*
X104061652Y-84146954D01*
X103971954Y-84236652D01*
X103971951Y-84236657D01*
X103914352Y-84349698D01*
X103899500Y-84443475D01*
X103899500Y-85056517D01*
X103910292Y-85124657D01*
X103914354Y-85150304D01*
X103971950Y-85263342D01*
X103971952Y-85263344D01*
X103971954Y-85263347D01*
X104061652Y-85353045D01*
X104061654Y-85353046D01*
X104061658Y-85353050D01*
X104174694Y-85410645D01*
X104174698Y-85410647D01*
X104268475Y-85425499D01*
X104268481Y-85425500D01*
X104708745Y-85425499D01*
X104729992Y-85431737D01*
X104752077Y-85433317D01*
X104762858Y-85441387D01*
X104775784Y-85445183D01*
X104790284Y-85461917D01*
X104808011Y-85475187D01*
X104812718Y-85487807D01*
X104821539Y-85497987D01*
X104824690Y-85519903D01*
X104832429Y-85540651D01*
X104829565Y-85553813D01*
X104831483Y-85567146D01*
X104822284Y-85587287D01*
X104817578Y-85608925D01*
X104804307Y-85626651D01*
X104802458Y-85630702D01*
X104796427Y-85637179D01*
X104754088Y-85679519D01*
X103862181Y-86571426D01*
X103800858Y-86604911D01*
X103731166Y-86599927D01*
X103675233Y-86558055D01*
X103650816Y-86492591D01*
X103650500Y-86483745D01*
X103650500Y-86216506D01*
X103634720Y-86116878D01*
X103634719Y-86116876D01*
X103634719Y-86116874D01*
X103573528Y-85996780D01*
X103573526Y-85996778D01*
X103573523Y-85996774D01*
X103478225Y-85901476D01*
X103478221Y-85901473D01*
X103478220Y-85901472D01*
X103358126Y-85840281D01*
X103358124Y-85840280D01*
X103358121Y-85840279D01*
X103258493Y-85824500D01*
X103258488Y-85824500D01*
X102782676Y-85824500D01*
X102761430Y-85818261D01*
X102739343Y-85816682D01*
X102728559Y-85808609D01*
X102715637Y-85804815D01*
X102701138Y-85788083D01*
X102683409Y-85774811D01*
X102678701Y-85762188D01*
X102669882Y-85752011D01*
X102666730Y-85730094D01*
X102658992Y-85709346D01*
X102661854Y-85696185D01*
X102659938Y-85682853D01*
X102669137Y-85662709D01*
X102673844Y-85641073D01*
X102687113Y-85623345D01*
X102688963Y-85619297D01*
X102694982Y-85612831D01*
X102845996Y-85461816D01*
X102907318Y-85428333D01*
X102933676Y-85425499D01*
X103081517Y-85425499D01*
X103081518Y-85425499D01*
X103175304Y-85410646D01*
X103288342Y-85353050D01*
X103378050Y-85263342D01*
X103435646Y-85150304D01*
X103435646Y-85150302D01*
X103435647Y-85150301D01*
X103450499Y-85056524D01*
X103450500Y-85056519D01*
X103450499Y-84443482D01*
X103435646Y-84349696D01*
X103378050Y-84236658D01*
X103378046Y-84236654D01*
X103378045Y-84236652D01*
X103288347Y-84146954D01*
X103288344Y-84146952D01*
X103288342Y-84146950D01*
X103211517Y-84107805D01*
X103175301Y-84089352D01*
X103081524Y-84074500D01*
X102618482Y-84074500D01*
X102537519Y-84087323D01*
X102524696Y-84089354D01*
X102411658Y-84146950D01*
X102411657Y-84146951D01*
X102411652Y-84146954D01*
X102321954Y-84236652D01*
X102321951Y-84236657D01*
X102264352Y-84349698D01*
X102249500Y-84443475D01*
X102249500Y-84591322D01*
X102240855Y-84620761D01*
X102234333Y-84650747D01*
X102230577Y-84655764D01*
X102229815Y-84658361D01*
X102213183Y-84679002D01*
X102179006Y-84713180D01*
X102117683Y-84746666D01*
X102091323Y-84749500D01*
X101934500Y-84749500D01*
X101867461Y-84729815D01*
X101821706Y-84677011D01*
X101810500Y-84625500D01*
X101810500Y-76819110D01*
X101810500Y-76819108D01*
X101776392Y-76691814D01*
X101710500Y-76577686D01*
X101617314Y-76484500D01*
X101617313Y-76484499D01*
X101612983Y-76480169D01*
X101612972Y-76480159D01*
X99711818Y-74579004D01*
X99678333Y-74517681D01*
X99675499Y-74491323D01*
X99675499Y-74343482D01*
X99675498Y-74343475D01*
X99660646Y-74249696D01*
X99603050Y-74136658D01*
X99603046Y-74136654D01*
X99603045Y-74136652D01*
X99513347Y-74046954D01*
X99513344Y-74046952D01*
X99513342Y-74046950D01*
X99436517Y-74007805D01*
X99400301Y-73989352D01*
X99306524Y-73974500D01*
X98693482Y-73974500D01*
X98612519Y-73987323D01*
X98599696Y-73989354D01*
X98486658Y-74046950D01*
X98486657Y-74046951D01*
X98486652Y-74046954D01*
X98396954Y-74136652D01*
X98396951Y-74136657D01*
X98339352Y-74249698D01*
X98324500Y-74343475D01*
X98324500Y-74806517D01*
X98331103Y-74848206D01*
X98339354Y-74900304D01*
X98396950Y-75013342D01*
X98396952Y-75013344D01*
X98396954Y-75013347D01*
X98486652Y-75103045D01*
X98486654Y-75103046D01*
X98486658Y-75103050D01*
X98597877Y-75159719D01*
X98599698Y-75160647D01*
X98693475Y-75175499D01*
X98693481Y-75175500D01*
X98841322Y-75175499D01*
X98908362Y-75195183D01*
X98929004Y-75211818D01*
X100773181Y-77055994D01*
X100806666Y-77117317D01*
X100809500Y-77143675D01*
X100809500Y-85132744D01*
X100789815Y-85199783D01*
X100773181Y-85220425D01*
X97467600Y-88526005D01*
X97412014Y-88558098D01*
X97316815Y-88583607D01*
X97316814Y-88583607D01*
X97202686Y-88649500D01*
X97202683Y-88649502D01*
X97109502Y-88742683D01*
X97109500Y-88742686D01*
X97043608Y-88856812D01*
X97014659Y-88964855D01*
X97009500Y-88984108D01*
X95845500Y-88984108D01*
X95845500Y-82401650D01*
X95865185Y-82334611D01*
X95917989Y-82288856D01*
X95987147Y-82278912D01*
X96043131Y-82301879D01*
X96112118Y-82352793D01*
X96154845Y-82367744D01*
X96240299Y-82397646D01*
X96270730Y-82400500D01*
X96270734Y-82400500D01*
X96904270Y-82400500D01*
X96934699Y-82397646D01*
X96934701Y-82397646D01*
X96998790Y-82375219D01*
X97062882Y-82352793D01*
X97172150Y-82272150D01*
X97252793Y-82162882D01*
X97285623Y-82069059D01*
X97297646Y-82034701D01*
X97297646Y-82034699D01*
X97300500Y-82004269D01*
X97300500Y-80995730D01*
X97297646Y-80965300D01*
X97297646Y-80965298D01*
X97252793Y-80837119D01*
X97252793Y-80837118D01*
X97252791Y-80837115D01*
X97248449Y-80828899D01*
X97250975Y-80827563D01*
X97232134Y-80775977D01*
X97247449Y-80707807D01*
X97297189Y-80658738D01*
X97365561Y-80644351D01*
X97430858Y-80669212D01*
X97443556Y-80680291D01*
X97663415Y-80900150D01*
X97696900Y-80961473D01*
X97699599Y-80993623D01*
X97699500Y-80995740D01*
X97699500Y-82004269D01*
X97702353Y-82034699D01*
X97702353Y-82034701D01*
X97738888Y-82139108D01*
X97747207Y-82162882D01*
X97827850Y-82272150D01*
X97937118Y-82352793D01*
X97979845Y-82367744D01*
X98065299Y-82397646D01*
X98095730Y-82400500D01*
X98095734Y-82400500D01*
X98729270Y-82400500D01*
X98759699Y-82397646D01*
X98759701Y-82397646D01*
X98823790Y-82375219D01*
X98887882Y-82352793D01*
X98997150Y-82272150D01*
X99077793Y-82162882D01*
X99110623Y-82069059D01*
X99122646Y-82034701D01*
X99122646Y-82034699D01*
X99125500Y-82004269D01*
X99125500Y-80995730D01*
X99123597Y-80975445D01*
X99122646Y-80965301D01*
X99077793Y-80837118D01*
X99071727Y-80828899D01*
X99036542Y-80781223D01*
X99015368Y-80728723D01*
X99015104Y-80728794D01*
X99014523Y-80726629D01*
X99013374Y-80723778D01*
X99013001Y-80720945D01*
X99013001Y-80720943D01*
X98972077Y-80568215D01*
X98943139Y-80518095D01*
X98893020Y-80431284D01*
X98781216Y-80319480D01*
X98781215Y-80319479D01*
X98776885Y-80315149D01*
X98776874Y-80315139D01*
X97724319Y-79262584D01*
X97690834Y-79201261D01*
X97688000Y-79174903D01*
X97688000Y-78541476D01*
X97694123Y-78520623D01*
X97695526Y-78498934D01*
X97706477Y-78478548D01*
X97707685Y-78474437D01*
X97712218Y-78467858D01*
X97733224Y-78439395D01*
X97788869Y-78397147D01*
X97858526Y-78391688D01*
X97920075Y-78424755D01*
X97950699Y-78474026D01*
X97965642Y-78519121D01*
X97965643Y-78519124D01*
X98057684Y-78668345D01*
X98181654Y-78792315D01*
X98330875Y-78884356D01*
X98330880Y-78884358D01*
X98497302Y-78939505D01*
X98497309Y-78939506D01*
X98600019Y-78949999D01*
X99162500Y-78949999D01*
X99224972Y-78949999D01*
X99224986Y-78949998D01*
X99327697Y-78939505D01*
X99494119Y-78884358D01*
X99494124Y-78884356D01*
X99643345Y-78792315D01*
X99767315Y-78668345D01*
X99859356Y-78519124D01*
X99859358Y-78519119D01*
X99914505Y-78352697D01*
X99914506Y-78352690D01*
X99924999Y-78249986D01*
X99925000Y-78249973D01*
X99925000Y-78000000D01*
X99162500Y-78000000D01*
X99162500Y-78949999D01*
X98600019Y-78949999D01*
X98662499Y-78949998D01*
X98662500Y-78949998D01*
X98662500Y-77500000D01*
X99162500Y-77500000D01*
X99924999Y-77500000D01*
X99924999Y-77250028D01*
X99924998Y-77250013D01*
X99914505Y-77147302D01*
X99859358Y-76980880D01*
X99859356Y-76980875D01*
X99767315Y-76831654D01*
X99643345Y-76707684D01*
X99494124Y-76615643D01*
X99494119Y-76615641D01*
X99327697Y-76560494D01*
X99327690Y-76560493D01*
X99224986Y-76550000D01*
X99162500Y-76550000D01*
X99162500Y-77500000D01*
X98662500Y-77500000D01*
X98662500Y-76550000D01*
X98662499Y-76549999D01*
X98600028Y-76550000D01*
X98600011Y-76550001D01*
X98497302Y-76560494D01*
X98330880Y-76615641D01*
X98330875Y-76615643D01*
X98181654Y-76707684D01*
X98057684Y-76831654D01*
X97965643Y-76980875D01*
X97965640Y-76980883D01*
X97950698Y-77025974D01*
X97943997Y-77035650D01*
X97941418Y-77047134D01*
X97924474Y-77063848D01*
X97910925Y-77083418D01*
X97900056Y-77087936D01*
X97891678Y-77096202D01*
X97868386Y-77101102D01*
X97846409Y-77110240D01*
X97834823Y-77108165D01*
X97823305Y-77110589D01*
X97801060Y-77102119D01*
X97777633Y-77097924D01*
X97767353Y-77089285D01*
X97758008Y-77085727D01*
X97733224Y-77060603D01*
X97712228Y-77032154D01*
X97688259Y-76966527D01*
X97688000Y-76958523D01*
X97688000Y-72272597D01*
X97707685Y-72205558D01*
X97724319Y-72184916D01*
X97855338Y-72053897D01*
X97990519Y-71918716D01*
X98069577Y-71781785D01*
X98110500Y-71629058D01*
X98110500Y-71470943D01*
X98069577Y-71318216D01*
X98066094Y-71312184D01*
X97990521Y-71181287D01*
X97990516Y-71181281D01*
X97878718Y-71069483D01*
X97878712Y-71069478D01*
X97741786Y-70990424D01*
X97741785Y-70990423D01*
X97741784Y-70990423D01*
X97589057Y-70949500D01*
X97430942Y-70949500D01*
X97278214Y-70990423D01*
X97141284Y-71069481D01*
X97141281Y-71069483D01*
X96718786Y-71491978D01*
X96606981Y-71603782D01*
X96606979Y-71603784D01*
X96592388Y-71629058D01*
X96575039Y-71659108D01*
X96527923Y-71740715D01*
X96486999Y-71893443D01*
X96486999Y-71893445D01*
X96486999Y-72061546D01*
X96487000Y-72061559D01*
X96487000Y-76958523D01*
X96467315Y-77025562D01*
X96462770Y-77032156D01*
X96422209Y-77087113D01*
X96422206Y-77087119D01*
X96377353Y-77215298D01*
X96377353Y-77215300D01*
X96374500Y-77245730D01*
X96374500Y-78254269D01*
X96377353Y-78284699D01*
X96377353Y-78284701D01*
X96416701Y-78397147D01*
X96422207Y-78412882D01*
X96448675Y-78448745D01*
X96462770Y-78467842D01*
X96486741Y-78533471D01*
X96487000Y-78541476D01*
X96487000Y-79388330D01*
X96486999Y-79388348D01*
X96486999Y-79554054D01*
X96486998Y-79554054D01*
X96527924Y-79706789D01*
X96527925Y-79706790D01*
X96547750Y-79741127D01*
X96547751Y-79741128D01*
X96606977Y-79843712D01*
X96606981Y-79843717D01*
X96725849Y-79962585D01*
X96725855Y-79962590D01*
X97219708Y-80456443D01*
X97253193Y-80517766D01*
X97248209Y-80587458D01*
X97206337Y-80643391D01*
X97140873Y-80667808D01*
X97072600Y-80652956D01*
X97066996Y-80649381D01*
X97062880Y-80647206D01*
X96934700Y-80602353D01*
X96904270Y-80599500D01*
X96904266Y-80599500D01*
X96270734Y-80599500D01*
X96270730Y-80599500D01*
X96240300Y-80602353D01*
X96240298Y-80602353D01*
X96112119Y-80647206D01*
X96112117Y-80647207D01*
X96002850Y-80727850D01*
X95922207Y-80837117D01*
X95875970Y-80969252D01*
X95835248Y-81026028D01*
X95791023Y-81048071D01*
X95695326Y-81073713D01*
X95695325Y-81073712D01*
X95671116Y-81080199D01*
X95671113Y-81080200D01*
X95568386Y-81139511D01*
X95568383Y-81139513D01*
X95034513Y-81673383D01*
X95034511Y-81673386D01*
X94988344Y-81753350D01*
X94981387Y-81765399D01*
X94930819Y-81813614D01*
X94862212Y-81826836D01*
X94797348Y-81800868D01*
X94756820Y-81743954D01*
X94750000Y-81703398D01*
X94750000Y-62853753D01*
X108650000Y-62853753D01*
X108650000Y-63066246D01*
X108683242Y-63276127D01*
X108683242Y-63276130D01*
X108748904Y-63478217D01*
X108845375Y-63667550D01*
X108884728Y-63721716D01*
X109517037Y-63089408D01*
X109534075Y-63152993D01*
X109599901Y-63267007D01*
X109692993Y-63360099D01*
X109807007Y-63425925D01*
X109870590Y-63442962D01*
X109238282Y-64075269D01*
X109238282Y-64075270D01*
X109292449Y-64114624D01*
X109486121Y-64213306D01*
X109485603Y-64214321D01*
X109535808Y-64254779D01*
X109557873Y-64321073D01*
X109540594Y-64388772D01*
X109489458Y-64436383D01*
X109433952Y-64449500D01*
X109130247Y-64449500D01*
X109071770Y-64461131D01*
X109071769Y-64461132D01*
X109005447Y-64505447D01*
X108961132Y-64571769D01*
X108961131Y-64571770D01*
X108949500Y-64630247D01*
X108949500Y-66369752D01*
X108961131Y-66428229D01*
X108961132Y-66428230D01*
X109005447Y-66494552D01*
X109071769Y-66538867D01*
X109071770Y-66538868D01*
X109130247Y-66550499D01*
X109130250Y-66550500D01*
X109130252Y-66550500D01*
X110869750Y-66550500D01*
X110869751Y-66550499D01*
X110884568Y-66547552D01*
X110928229Y-66538868D01*
X110928229Y-66538867D01*
X110928231Y-66538867D01*
X110994552Y-66494552D01*
X111038867Y-66428231D01*
X111038867Y-66428229D01*
X111038868Y-66428229D01*
X111050499Y-66369752D01*
X111050500Y-66369750D01*
X111050500Y-64630249D01*
X111050499Y-64630247D01*
X111038868Y-64571770D01*
X111038867Y-64571769D01*
X110994552Y-64505447D01*
X110928230Y-64461132D01*
X110928229Y-64461131D01*
X110869752Y-64449500D01*
X110869748Y-64449500D01*
X110566048Y-64449500D01*
X110499009Y-64429815D01*
X110453254Y-64377011D01*
X110443310Y-64307853D01*
X110472335Y-64244297D01*
X110514264Y-64214061D01*
X110513879Y-64213306D01*
X110707554Y-64114622D01*
X110761716Y-64075270D01*
X110761717Y-64075270D01*
X110129408Y-63442962D01*
X110192993Y-63425925D01*
X110307007Y-63360099D01*
X110400099Y-63267007D01*
X110465925Y-63152993D01*
X110482962Y-63089409D01*
X111115270Y-63721717D01*
X111115270Y-63721716D01*
X111154622Y-63667554D01*
X111251095Y-63478217D01*
X111316757Y-63276130D01*
X111316757Y-63276127D01*
X111350000Y-63066246D01*
X111350000Y-62853753D01*
X111316757Y-62643872D01*
X111316757Y-62643869D01*
X111251095Y-62441782D01*
X111154624Y-62252449D01*
X111115270Y-62198282D01*
X111115269Y-62198282D01*
X110482962Y-62830590D01*
X110465925Y-62767007D01*
X110400099Y-62652993D01*
X110307007Y-62559901D01*
X110192993Y-62494075D01*
X110129409Y-62477037D01*
X110761716Y-61844728D01*
X110707550Y-61805375D01*
X110518217Y-61708904D01*
X110316129Y-61643242D01*
X110106246Y-61610000D01*
X109893754Y-61610000D01*
X109683872Y-61643242D01*
X109683869Y-61643242D01*
X109481782Y-61708904D01*
X109292439Y-61805380D01*
X109238282Y-61844727D01*
X109238282Y-61844728D01*
X109870591Y-62477037D01*
X109807007Y-62494075D01*
X109692993Y-62559901D01*
X109599901Y-62652993D01*
X109534075Y-62767007D01*
X109517037Y-62830591D01*
X108884728Y-62198282D01*
X108884727Y-62198282D01*
X108845380Y-62252439D01*
X108748904Y-62441782D01*
X108683242Y-62643869D01*
X108683242Y-62643872D01*
X108650000Y-62853753D01*
X94750000Y-62853753D01*
X94750000Y-61148883D01*
X94769685Y-61081844D01*
X94822489Y-61036089D01*
X94873794Y-61024883D01*
X155598844Y-60924997D01*
X155602172Y-60925038D01*
G37*
%TD.AperFunction*%
%TD*%
M02*
