M48
; DRILL file KiCad 10.0.3 date 2026-07-27T20:22:06
; FORMAT={-:-/ absolute / inch / decimal}
; #@! TF.CreationDate,2026-07-27T20:22:06-04:00
; #@! TF.GenerationSoftware,Kicad,Pcbnew,10.0.3
; #@! TF.FileFunction,Plated,1,2,PTH
FMAT,2
INCH
; #@! TA.AperFunction,Plated,PTH,ViaDrill
T1C0.0118
; #@! TA.AperFunction,Plated,PTH,ComponentDrill
T2C0.0118
; #@! TA.AperFunction,Plated,PTH,ViaDrill
T3C0.0157
; #@! TA.AperFunction,Plated,PTH,ViaDrill
T4C0.0197
; #@! TA.AperFunction,Plated,PTH,ComponentDrill
T5C0.0236
; #@! TA.AperFunction,Plated,PTH,ComponentDrill
T6C0.0295
; #@! TA.AperFunction,Plated,PTH,ComponentDrill
T7C0.0394
; #@! TA.AperFunction,Plated,PTH,ComponentDrill
T8C0.0551
; #@! TA.AperFunction,Plated,PTH,ComponentDrill
T9C0.0630
; #@! TA.AperFunction,Plated,PTH,ComponentDrill
T10C0.1260
%
G90
G05
T1
X3.7811Y-2.5
X3.7811Y-4.0354
X3.7884Y-3.7205
X3.789Y-2.8169
X3.8386Y-3.3071
X3.8386Y-3.4252
X3.839Y-2.8169
X3.839Y-3.5059
X3.8878Y-3.9272
X3.8942Y-3.061
X3.8976Y-2.8346
X3.8976Y-4.1043
X3.9075Y-4.5374
X3.9173Y-3.6614
X3.9272Y-3.2874
X3.937Y-3.9764
X3.939Y-3.5059
X3.9567Y-3.7697
X3.989Y-3.5059
X3.9941Y-3.4055
X4.0551Y-3.4646
X4.065Y-2.9134
X4.065Y-3.0906
X4.0846Y-4.0354
X4.089Y-2.8169
X4.0945Y-2.6772
X4.0945Y-3.5039
X4.0945Y-4.4291
X4.1043Y-2.5
X4.1516Y-3.7205
X4.1634Y-2.9626
X4.1732Y-3.0315
X4.1929Y-3.5039
X4.1929Y-3.6024
X4.2126Y-3.6417
X4.239Y-2.7854
X4.239Y-3.5059
X4.252Y-2.8937
X4.2717Y-3.8189
X4.289Y-3.5059
X4.311Y-3.9075
X4.311Y-4.4587
X4.3209Y-3.3268
X4.3209Y-3.4449
X4.3209Y-4.0354
X4.3602Y-3.1693
X4.3753Y-2.7571
X4.3898Y-3.1102
X4.3898Y-3.6339
X4.4159Y-3.0827
X4.4291Y-3.3071
X4.4291Y-3.6339
X4.4488Y-3.75
X4.4783Y-4.1535
X4.4882Y-3.1364
X4.4882Y-3.1864
X4.4882Y-3.2364
X4.4882Y-3.435
X4.5374Y-2.7205
X4.6235Y-3.5285
X4.6358Y-2.7657
X4.6511Y-3.501
X4.6831Y-2.7161
X4.6868Y-2.866
X4.6983Y-3.0118
X4.7098Y-2.757
X4.7244Y-3.4449
X4.7333Y-2.8248
X4.7467Y-3.147
X4.7539Y-2.9331
X4.7638Y-2.7559
X4.7943Y-2.8248
X4.813Y-4.252
X4.8819Y-3.0512
X4.9114Y-2.8248
X4.9213Y-4.311
X4.9705Y-3.2087
X5.0689Y-2.7884
X5.0984Y-4.1142
X5.1083Y-2.8543
X5.1083Y-3.6417
X5.1319Y-4.5039
X5.1673Y-3.0413
X5.2067Y-2.5098
X5.2067Y-2.6181
X5.2362Y-4.1142
X5.2657Y-3.2185
X5.2953Y-2.9626
X5.3051Y-2.5669
X5.3543Y-3.0906
X5.3543Y-4.4636
X5.3839Y-4.0059
X5.3937Y-3.4055
X5.4093Y-4.3041
X5.437Y-2.4697
X5.437Y-2.5697
X5.437Y-2.6697
X5.437Y-2.7197
X5.437Y-2.7697
X5.4593Y-4.499
X5.4823Y-3.5236
X5.4921Y-3.2087
X5.5093Y-4.499
X5.5118Y-2.9134
X5.5217Y-3.6516
X5.5315Y-2.7362
X5.5315Y-4.2323
X5.5593Y-4.499
X5.6496Y-3.8091
X5.689Y-2.7461
X5.7059Y-3.3908
X5.7185Y-2.5492
X5.7658Y-3.4627
X5.7874Y-2.6673
X5.7956Y-3.4236
X5.7959Y-2.6982
X5.797Y-2.6376
X5.8071Y-3.5709
X5.8071Y-3.6417
X5.8169Y-2.6197
X5.824Y-4.2159
X5.8366Y-2.7169
X5.8465Y-2.5197
X5.8465Y-2.5697
X5.8465Y-2.6197
X5.8555Y-4.2159
X5.8661Y-2.7169
X5.876Y-3.2185
X5.8765Y-2.6197
X5.8957Y-2.7169
X5.9115Y-2.5847
X5.9255Y-4.1716
X5.9291Y-2.7007
X5.937Y-2.5512
X5.9537Y-2.6761
X5.9646Y-2.5512
X5.966Y-4.1521
X5.9841Y-2.6457
X5.9941Y-2.5512
X6.0217Y-2.5512
X6.0335Y-2.6457
X6.0374Y-3.1205
X6.0387Y-4.0597
X6.0463Y-3.1663
X6.0484Y-4.2159
X6.0531Y-2.5394
X6.0624Y-3.0955
X6.0693Y-2.6708
X6.0728Y-3.9272
X6.0799Y-4.2159
X6.0827Y-2.5256
X6.0827Y-3.1818
X6.1024Y-2.6713
X6.1122Y-2.5256
X6.1122Y-3.3957
X6.1319Y-2.6713
X6.1377Y-3.1405
X6.1417Y-2.5256
X6.1614Y-2.6713
X6.1614Y-3.0315
X6.1614Y-3.1405
X6.1743Y-2.5256
X6.1811Y-3.0113
X6.1949Y-2.5461
X6.1949Y-2.5787
X6.1949Y-2.6063
X6.1949Y-2.6378
X6.1949Y-2.6654
X6.2005Y-2.9919
X6.2008Y-3.5531
X6.2027Y-3.1122
X6.2301Y-2.9624
X6.2421Y-3.0728
X6.2596Y-2.9328
X6.2697Y-3.6516
X6.2716Y-3.0433
X6.2891Y-2.9033
X6.3012Y-3.0138
X6.3208Y-2.9941
X6.3285Y-2.8639
X6.3405Y-2.9744
X6.3679Y-2.8246
X6.3742Y-3.3309
X6.3799Y-2.935
X6.3974Y-2.795
X6.3996Y-2.9153
X6.4016Y-2.7165
X6.4016Y-2.7559
X6.4173Y-2.6772
X6.4291Y-2.8858
X6.4567Y-2.6772
X6.4567Y-2.8642
X6.4862Y-2.8346
X6.4882Y-2.6929
X6.4882Y-2.7362
X6.4882Y-2.7953
X6.5945Y-3.3169
X6.6043Y-3.8189
T2
X4.0378Y-3.1929
X4.0378Y-3.248
X4.0654Y-3.1654
X4.0654Y-3.2205
X4.0654Y-3.2756
X4.0929Y-3.1929
X4.0929Y-3.248
X4.1205Y-3.1654
X4.1205Y-3.2205
X4.1205Y-3.2756
X4.148Y-3.1929
X4.148Y-3.248
X5.437Y-4.374
X5.437Y-4.4291
X5.4843Y-4.374
X5.4843Y-4.4291
X5.5315Y-4.374
X5.5315Y-4.4291
T3
X3.7884Y-3.6024
X3.7884Y-3.6614
X3.789Y-3.5059
X3.7992Y-4.4685
X4.1732Y-2.5482
X4.2179Y-3.7152
X4.2671Y-3.7644
X4.5669Y-2.7648
X4.8514Y-4.1171
X4.9852Y-3.9173
X4.9852Y-4.1171
X5.1594Y-4.3898
X5.2756Y-4.3898
X5.3543Y-2.8848
X5.5709Y-4.252
X5.6086Y-3.1818
X5.6801Y-4.3701
X5.8071Y-3.937
X5.809Y-3.5058
X6.3583Y-3.1781
T4
X4.7844Y-4.1171
X4.8514Y-3.7569
X5.3543Y-2.8238
T6
X3.878Y-4.2126
X3.878Y-4.2913
T7
X4.3307Y-2.4787
X4.3307Y-2.5787
X4.5079Y-2.4787
X4.5079Y-2.5787
X4.685Y-2.4787
X4.685Y-2.5787
X4.8622Y-2.4797
X4.8622Y-2.5797
X5.0492Y-2.4797
X5.0492Y-2.5797
X6.4764Y-3.1677
X6.4764Y-3.2677
X6.4764Y-3.3677
X6.4764Y-3.4677
X6.4764Y-3.5677
X6.4764Y-3.6677
X6.4764Y-3.7677
X6.4764Y-3.8677
T8
X6.0217Y-2.498
X6.0217Y-2.6988
X6.122Y-2.5984
X6.2224Y-2.498
X6.2224Y-2.6988
T9
X4.4882Y-3.8685
X4.4882Y-4.4685
T10
X6.3976Y-4.2618
T5
G00X5.7819Y-4.2303
M15
G01X5.7819Y-4.2736
M16
G05
G00X5.7819Y-4.4047
M15
G01X5.7819Y-4.4283
M16
G05
G00X6.122Y-4.2303
M15
G01X6.122Y-4.2736
M16
G05
G00X6.122Y-4.4047
M15
G01X6.122Y-4.4283
M16
G05
M30
